<svg width="440" height="801" viewBox="0 0 440 801" fill="none" xmlns="http://www.w3.org/2000/svg">
<path d="M181.274 777.96H183.164V780.66H181.274V777.96ZM188.474 768.042H190.364V784.494H188.474V768.042ZM177.152 781.542L176.918 779.994C179.96 779.976 184.01 779.958 187.52 779.49L187.646 780.876C184.028 781.506 180.122 781.542 177.152 781.542ZM177.242 769.968H187.196V771.462H177.242V769.968ZM182.21 772.272C184.604 772.272 186.242 773.496 186.242 775.332C186.242 777.186 184.604 778.392 182.21 778.392C179.834 778.392 178.196 777.186 178.196 775.332C178.196 773.496 179.834 772.272 182.21 772.272ZM182.21 773.712C180.914 773.712 179.996 774.342 179.996 775.332C179.996 776.34 180.914 776.952 182.21 776.952C183.524 776.952 184.442 776.34 184.442 775.332C184.442 774.342 183.524 773.712 182.21 773.712ZM181.274 768.078H183.164V770.814H181.274V768.078ZM197.869 776.394H199.759V780.03H197.869V776.394ZM205.123 768.042H207.013V780.534H205.123V768.042ZM195.511 782.64H207.391V784.17H195.511V782.64ZM195.511 779.328H197.401V783.054H195.511V779.328ZM193.549 777.024L193.297 775.494C196.321 775.494 200.371 775.458 203.845 775.008L203.971 776.376C200.443 776.952 196.519 777.024 193.549 777.024ZM201.883 777.69H205.573V779.022H201.883V777.69ZM198.625 768.672C201.019 768.672 202.693 769.824 202.693 771.57C202.693 773.316 201.019 774.45 198.625 774.45C196.213 774.45 194.557 773.316 194.557 771.57C194.557 769.824 196.213 768.672 198.625 768.672ZM198.625 770.058C197.275 770.058 196.339 770.616 196.339 771.57C196.339 772.506 197.275 773.064 198.625 773.064C199.957 773.064 200.893 772.506 200.893 771.57C200.893 770.616 199.957 770.058 198.625 770.058ZM220.799 768.024H222.689V784.476H220.799V768.024ZM222.185 774.54H225.155V776.088H222.185V774.54ZM216.533 769.77H218.387C218.387 774.558 216.353 778.788 210.971 781.488L209.909 780.048C214.355 777.78 216.533 774.486 216.533 770.094V769.77ZM210.737 769.77H217.505V771.3H210.737V769.77ZM238.168 768.042H240.058V776.88H238.168V768.042ZM229.312 777.654H231.166V779.436H238.186V777.654H240.058V784.296H229.312V777.654ZM231.166 780.912V782.784H238.186V780.912H231.166ZM231.184 768.78C233.704 768.78 235.54 770.346 235.54 772.614C235.54 774.864 233.704 776.448 231.184 776.448C228.664 776.448 226.81 774.864 226.81 772.614C226.81 770.346 228.664 768.78 231.184 768.78ZM231.184 770.346C229.708 770.346 228.646 771.246 228.646 772.614C228.646 773.982 229.708 774.882 231.184 774.882C232.66 774.882 233.704 773.982 233.704 772.614C233.704 771.246 232.66 770.346 231.184 770.346ZM251.119 774.792H253.009V777.294H251.119V774.792ZM252.037 768.762C254.413 768.762 256.105 770.094 256.105 772.056C256.105 774 254.413 775.332 252.037 775.332C249.661 775.332 247.951 774 247.951 772.056C247.951 770.094 249.661 768.762 252.037 768.762ZM252.037 770.184C250.669 770.184 249.715 770.904 249.715 772.056C249.715 773.19 250.669 773.91 252.037 773.91C253.405 773.91 254.341 773.19 254.341 772.056C254.341 770.904 253.405 770.184 252.037 770.184ZM258.085 768.06H259.975V780.624H258.085V768.06ZM259.255 773.442H262.225V774.99H259.255V773.442ZM249.319 782.622H260.551V784.152H249.319V782.622ZM249.319 779.544H251.209V783.288H249.319V779.544ZM247.285 778.32L247.051 776.79C249.895 776.79 253.837 776.772 257.131 776.268L257.257 777.636C253.873 778.266 250.057 778.32 247.285 778.32ZM180.806 795.654H182.66V799.632H180.806V795.654ZM186.044 795.636H187.88V799.614H186.044V795.636ZM176.828 799.02H191.732V800.568H176.828V799.02ZM178.574 787.194H189.95V792.378H180.482V795.456H178.61V790.884H188.078V788.706H178.574V787.194ZM178.61 794.646H190.328V796.176H178.61V794.646Z" fill="white"/>
<rect x="9" y="771" width="431" height="29" rx="3.07792" fill="#9055D1"/>
<path d="M200.205 787.415H201.175V788.8H200.205V787.415ZM203.899 782.327H204.869V790.766H203.899V782.327ZM198.091 789.252L197.971 788.458C199.531 788.449 201.609 788.439 203.41 788.199L203.474 788.91C201.618 789.234 199.615 789.252 198.091 789.252ZM198.137 783.315H203.243V784.081H198.137V783.315ZM200.686 784.497C201.914 784.497 202.754 785.125 202.754 786.066C202.754 787.017 201.914 787.636 200.686 787.636C199.467 787.636 198.627 787.017 198.627 786.066C198.627 785.125 199.467 784.497 200.686 784.497ZM200.686 785.235C200.021 785.235 199.55 785.559 199.55 786.066C199.55 786.584 200.021 786.897 200.686 786.897C201.36 786.897 201.831 786.584 201.831 786.066C201.831 785.559 201.36 785.235 200.686 785.235ZM200.205 782.345H201.175V783.749H200.205V782.345ZM208.718 786.611H209.688V788.476H208.718V786.611ZM212.44 782.327H213.409V788.735H212.44V782.327ZM207.509 789.815H213.603V790.6H207.509V789.815ZM207.509 788.116H208.478V790.028H207.509V788.116ZM206.502 786.934L206.373 786.15C207.924 786.15 210.002 786.131 211.784 785.9L211.849 786.602C210.039 786.897 208.026 786.934 206.502 786.934ZM210.777 787.276H212.67V787.959H210.777V787.276ZM209.106 782.65C210.334 782.65 211.193 783.241 211.193 784.137C211.193 785.032 210.334 785.614 209.106 785.614C207.869 785.614 207.019 785.032 207.019 784.137C207.019 783.241 207.869 782.65 209.106 782.65ZM209.106 783.361C208.414 783.361 207.933 783.647 207.933 784.137C207.933 784.617 208.414 784.903 209.106 784.903C209.789 784.903 210.27 784.617 210.27 784.137C210.27 783.647 209.789 783.361 209.106 783.361ZM220.481 782.318H221.451V790.757H220.481V782.318ZM221.192 785.66H222.716V786.454H221.192V785.66ZM218.293 783.213H219.244C219.244 785.669 218.201 787.839 215.44 789.224L214.895 788.486C217.176 787.322 218.293 785.632 218.293 783.379V783.213ZM215.32 783.213H218.792V783.998H215.32V783.213ZM229.391 782.327H230.361V786.861H229.391V782.327ZM224.848 787.258H225.799V788.172H229.401V787.258H230.361V790.665H224.848V787.258ZM225.799 788.929V789.889H229.401V788.929H225.799ZM225.809 782.705C227.101 782.705 228.043 783.509 228.043 784.672C228.043 785.826 227.101 786.639 225.809 786.639C224.516 786.639 223.565 785.826 223.565 784.672C223.565 783.509 224.516 782.705 225.809 782.705ZM225.809 783.509C225.051 783.509 224.507 783.97 224.507 784.672C224.507 785.374 225.051 785.836 225.809 785.836C226.566 785.836 227.101 785.374 227.101 784.672C227.101 783.97 226.566 783.509 225.809 783.509ZM236.035 785.789H237.005V787.073H236.035V785.789ZM236.506 782.696C237.725 782.696 238.593 783.379 238.593 784.386C238.593 785.383 237.725 786.066 236.506 786.066C235.287 786.066 234.41 785.383 234.41 784.386C234.41 783.379 235.287 782.696 236.506 782.696ZM236.506 783.426C235.804 783.426 235.315 783.795 235.315 784.386C235.315 784.968 235.804 785.337 236.506 785.337C237.208 785.337 237.688 784.968 237.688 784.386C237.688 783.795 237.208 783.426 236.506 783.426ZM239.609 782.336H240.578V788.781H239.609V782.336ZM240.209 785.097H241.733V785.891H240.209V785.097ZM235.112 789.806H240.874V790.591H235.112V789.806ZM235.112 788.227H236.081V790.148H235.112V788.227ZM234.068 787.599L233.948 786.814C235.407 786.814 237.43 786.805 239.119 786.547L239.184 787.248C237.448 787.572 235.49 787.599 234.068 787.599ZM244.511 787.258H245.462V789.298H244.511V787.258ZM247.198 787.248H248.14V789.289H247.198V787.248ZM242.47 788.984H250.116V789.778H242.47V788.984ZM243.366 782.918H249.202V785.577H244.345V787.156H243.385V784.811H248.242V783.693H243.366V782.918ZM243.385 786.74H249.396V787.525H243.385V786.74Z" fill="white"/>
<rect x="9.5" y="703.5" width="350" height="28" rx="2.57792" fill="white" stroke="#C2C2C2"/>
<path d="M17.8667 722V721.251H19.4722V715.874H18.1819V715.293C18.832 715.184 19.2949 715.017 19.679 714.78H20.3685V721.251H21.8262V722H17.8667ZM22.8967 722V721.478C25.162 719.498 26.1962 718.05 26.1962 716.819C26.1962 715.992 25.7727 715.381 24.8764 715.381C24.2854 715.381 23.7733 715.746 23.3695 716.218L22.8474 715.716C23.4384 715.076 24.0688 714.652 24.9847 714.652C26.275 714.652 27.0827 715.49 27.0827 716.78C27.0827 718.228 25.95 719.695 24.246 721.301C24.6302 721.261 25.0635 721.232 25.428 721.232H27.4274V722H22.8967ZM30.517 722.138C29.3843 722.138 28.685 721.665 28.2123 721.143L28.6653 720.552C29.0889 720.995 29.6306 721.389 30.4579 721.389C31.3148 721.389 31.9255 720.867 31.9255 720.04C31.9255 719.173 31.3444 718.602 29.6798 718.602V717.903C31.1671 717.903 31.6694 717.312 31.6694 716.524C31.6694 715.834 31.2065 715.381 30.4579 715.381C29.8768 715.381 29.3646 715.677 28.9608 716.09L28.4782 715.509C29.0199 715.017 29.6601 714.652 30.4875 714.652C31.6989 714.652 32.5854 715.312 32.5854 716.465C32.5854 717.341 32.0732 717.922 31.305 718.198V718.238C32.152 718.444 32.8415 719.085 32.8415 720.079C32.8415 721.36 31.8073 722.138 30.517 722.138ZM36.7289 722V717.085C36.7289 716.721 36.7584 716.14 36.788 715.765H36.7387C36.5614 716.12 36.3644 716.484 36.1675 716.839L34.5226 719.301H38.5412V720.01H33.5771V719.419L36.5811 714.78H37.5759V722H36.7289ZM41.4239 722.138C40.3011 722.138 39.6117 721.665 39.1192 721.173L39.5723 720.582C39.9761 721.005 40.5079 721.389 41.3353 721.389C42.1922 721.389 42.8718 720.729 42.8718 719.685C42.8718 718.651 42.2808 718.031 41.3845 718.031C40.9019 718.031 40.5966 718.188 40.1829 718.464L39.7003 718.159L39.9268 714.78H43.4431V715.549H40.7148L40.5276 717.637C40.8527 717.459 41.1777 717.351 41.6111 717.351C42.8127 717.351 43.7878 718.06 43.7878 719.656C43.7878 721.232 42.6354 722.138 41.4239 722.138ZM47.2812 722.138C45.8925 722.138 44.8583 720.946 44.8583 718.563C44.8583 715.736 46.1289 714.652 47.5275 714.652C48.276 714.652 48.8276 714.968 49.2215 715.391L48.7192 715.943C48.4435 715.608 48.0002 715.401 47.5669 715.401C46.5524 715.401 45.7053 716.199 45.7053 718.563C45.7053 720.414 46.2667 721.429 47.2812 721.429C47.9707 721.429 48.5025 720.769 48.5025 719.794C48.5025 718.809 48.0692 718.188 47.2024 718.188C46.7395 718.188 46.1584 718.464 45.6758 719.183L45.6462 718.464C46.0895 717.883 46.7592 717.528 47.3403 717.528C48.5616 717.528 49.3496 718.277 49.3496 719.794C49.3496 721.192 48.3942 722.138 47.2812 722.138Z" fill="black"/>
<rect x="9.5" y="634.5" width="350" height="28" rx="2.57792" fill="white" stroke="#C2C2C2"/>
<path d="M19.7381 653.138C18.3592 653.138 17.4826 651.887 17.4826 649.366C17.4826 646.864 18.3592 645.652 19.7381 645.652C21.0973 645.652 21.9739 646.864 21.9739 649.366C21.9739 651.887 21.0973 653.138 19.7381 653.138ZM19.7381 652.409C20.5556 652.409 21.1072 651.493 21.1072 649.366C21.1072 647.268 20.5556 646.371 19.7381 646.371C18.9108 646.371 18.3494 647.268 18.3494 649.366C18.3494 651.493 18.9108 652.409 19.7381 652.409ZM23.3301 653V652.251H24.9355V646.874H23.6452V646.293C24.2953 646.184 24.7582 646.017 25.1423 645.78H25.8318V652.251H27.2895V653H23.3301ZM30.6647 653.138C29.2858 653.138 28.4092 651.887 28.4092 649.366C28.4092 646.864 29.2858 645.652 30.6647 645.652C32.024 645.652 32.9006 646.864 32.9006 649.366C32.9006 651.887 32.024 653.138 30.6647 653.138ZM30.6647 652.409C31.4822 652.409 32.0338 651.493 32.0338 649.366C32.0338 647.268 31.4822 646.371 30.6647 646.371C29.8374 646.371 29.276 647.268 29.276 649.366C29.276 651.493 29.8374 652.409 30.6647 652.409ZM33.843 650.597V649.907H36.3644V650.597H33.843ZM37.6713 653V652.251H39.2767V646.874H37.9864V646.293C38.6365 646.184 39.0994 646.017 39.4835 645.78H40.173V652.251H41.6307V653H37.6713ZM42.7012 653V652.478C44.9666 650.498 46.0007 649.05 46.0007 647.819C46.0007 646.992 45.5772 646.381 44.6809 646.381C44.09 646.381 43.5778 646.746 43.174 647.218L42.652 646.716C43.2429 646.076 43.8733 645.652 44.7893 645.652C46.0795 645.652 46.8872 646.49 46.8872 647.78C46.8872 649.228 45.7545 650.695 44.0506 652.301C44.4347 652.261 44.8681 652.232 45.2325 652.232H47.2319V653H42.7012ZM50.3215 653.138C49.1888 653.138 48.4895 652.665 48.0168 652.143L48.4698 651.552C48.8934 651.995 49.4351 652.389 50.2624 652.389C51.1193 652.389 51.73 651.867 51.73 651.04C51.73 650.173 51.1489 649.602 49.4843 649.602V648.903C50.9716 648.903 51.4739 648.312 51.4739 647.524C51.4739 646.834 51.011 646.381 50.2624 646.381C49.6813 646.381 49.1691 646.677 48.7653 647.09L48.2827 646.509C48.8244 646.017 49.4646 645.652 50.292 645.652C51.5034 645.652 52.3899 646.312 52.3899 647.465C52.3899 648.341 51.8777 648.922 51.1095 649.198V649.238C51.9565 649.444 52.646 650.085 52.646 651.079C52.646 652.36 51.6118 653.138 50.3215 653.138ZM56.5334 653V648.085C56.5334 647.721 56.5629 647.14 56.5925 646.765H56.5432C56.3659 647.12 56.169 647.484 55.972 647.839L54.3271 650.301H58.3457V651.01H53.3816V650.419L56.3856 645.78H57.3804V653H56.5334ZM59.1108 650.597V649.907H61.6323V650.597H59.1108ZM64.643 653.138C63.5202 653.138 62.8307 652.665 62.3383 652.173L62.7913 651.582C63.1952 652.005 63.727 652.389 64.5544 652.389C65.4113 652.389 66.0909 651.729 66.0909 650.685C66.0909 649.651 65.4999 649.031 64.6036 649.031C64.121 649.031 63.8157 649.188 63.402 649.464L62.9194 649.159L63.1459 645.78H66.6621V646.549H63.9339L63.7467 648.637C64.0718 648.459 64.3968 648.351 64.8302 648.351C66.0318 648.351 67.0069 649.06 67.0069 650.656C67.0069 652.232 65.8545 653.138 64.643 653.138ZM70.5003 653.138C69.1116 653.138 68.0774 651.946 68.0774 649.563C68.0774 646.736 69.3479 645.652 70.7465 645.652C71.4951 645.652 72.0467 645.968 72.4406 646.391L71.9383 646.943C71.6625 646.608 71.2193 646.401 70.7859 646.401C69.7715 646.401 68.9244 647.199 68.9244 649.563C68.9244 651.414 69.4858 652.429 70.5003 652.429C71.1898 652.429 71.7216 651.769 71.7216 650.794C71.7216 649.809 71.2883 649.188 70.4215 649.188C69.9586 649.188 69.3775 649.464 68.8949 650.183L68.8653 649.464C69.3085 648.883 69.9783 648.528 70.5594 648.528C71.7807 648.528 72.5687 649.277 72.5687 650.794C72.5687 652.192 71.6133 653.138 70.5003 653.138ZM74.9393 653C75.0673 650.272 75.5598 648.519 76.9781 646.549H73.4816V645.78H77.9926V646.322C76.2985 648.499 75.9932 650.183 75.875 653H74.9393ZM81.2103 653.138C79.8806 653.138 78.9055 652.33 78.9055 651.217C78.9055 650.242 79.5753 649.572 80.2352 649.218V649.178C79.7033 648.814 79.2502 648.262 79.2502 647.504C79.2502 646.411 80.1071 645.682 81.2398 645.682C82.471 645.682 83.2195 646.47 83.2195 647.573C83.2195 648.341 82.6877 648.981 82.2543 649.316V649.366C82.8846 649.73 83.4756 650.282 83.4756 651.267C83.4756 652.32 82.5596 653.138 81.2103 653.138ZM81.7027 649.09C82.1952 648.656 82.4513 648.164 82.4513 647.622C82.4513 646.913 81.9982 646.342 81.2201 646.342C80.5602 646.342 80.0776 646.815 80.0776 647.504C80.0776 648.371 80.8557 648.755 81.7027 649.09ZM81.23 652.458C82.0573 652.458 82.6089 651.956 82.6089 651.237C82.6089 650.272 81.7224 649.907 80.7079 649.494C80.117 649.868 79.7132 650.439 79.7132 651.129C79.7132 651.897 80.3632 652.458 81.23 652.458Z" fill="black"/>
<rect x="374" y="489" width="66" height="29" rx="3.07792" fill="#9055D1"/>
<rect x="374" y="489" width="66" height="29" rx="3.07792" fill="black" fill-opacity="0.3"/>
<path d="M390.91 501.019H391.695V502.404C391.695 504.371 390.818 506.255 389.368 506.994L388.777 506.218C390.088 505.581 390.91 503.965 390.91 502.404V501.019ZM391.095 501.019H391.87V502.404C391.87 503.909 392.664 505.442 393.929 506.07L393.338 506.837C391.935 506.107 391.095 504.306 391.095 502.404V501.019ZM394.493 500.327H395.462V508.766H394.493V500.327ZM395.241 503.669H396.773V504.473H395.241V503.669ZM399.22 503.171H400.18V504.74H399.22V503.171ZM402.258 503.171H403.218V504.74H402.258V503.171ZM397.41 504.427H405.037V505.193H397.41V504.427ZM401.214 505.738C403.024 505.738 404.123 506.283 404.123 507.243C404.123 508.212 403.024 508.757 401.214 508.757C399.395 508.757 398.306 508.212 398.306 507.243C398.306 506.283 399.395 505.738 401.214 505.738ZM401.214 506.476C399.977 506.476 399.284 506.744 399.284 507.243C399.284 507.751 399.977 508.018 401.214 508.018C402.452 508.018 403.144 507.751 403.144 507.243C403.144 506.744 402.452 506.476 401.214 506.476ZM401.223 500.465C403.07 500.465 404.234 501.065 404.234 502.063C404.234 503.06 403.07 503.642 401.223 503.642C399.377 503.642 398.222 503.06 398.222 502.063C398.222 501.065 399.377 500.465 401.223 500.465ZM401.223 501.213C399.968 501.213 399.22 501.509 399.22 502.063C399.22 502.607 399.968 502.903 401.223 502.903C402.488 502.903 403.236 502.607 403.236 502.063C403.236 501.509 402.488 501.213 401.223 501.213ZM413.555 500.318H414.525V508.757H413.555V500.318ZM414.266 503.66H415.79V504.454H414.266V503.66ZM411.367 501.213H412.318C412.318 503.669 411.275 505.839 408.514 507.224L407.969 506.486C410.25 505.322 411.367 503.632 411.367 501.379V501.213ZM408.394 501.213H411.866V501.998H408.394V501.213ZM417.479 502.561H423.25V503.337H417.479V502.561ZM417.479 500.484H418.439V502.912H417.479V500.484ZM416.482 504.205H424.109V504.981H416.482V504.205ZM420.277 505.645C422.087 505.645 423.186 506.199 423.186 507.197C423.186 508.175 422.087 508.739 420.277 508.739C418.467 508.739 417.368 508.175 417.368 507.197C417.368 506.199 418.467 505.645 420.277 505.645ZM420.277 506.393C419.04 506.393 418.347 506.661 418.347 507.197C418.347 507.705 419.04 507.991 420.277 507.991C421.514 507.991 422.207 507.705 422.207 507.197C422.207 506.661 421.514 506.393 420.277 506.393Z" fill="white"/>
<rect x="9.5" y="566.5" width="428" height="28" rx="2.57792" fill="white" stroke="#C2C2C2"/>
<path d="M17.4334 585V584.478C19.6987 582.498 20.7329 581.05 20.7329 579.819C20.7329 578.992 20.3094 578.381 19.4131 578.381C18.8221 578.381 18.31 578.746 17.9061 579.218L17.3841 578.716C17.9751 578.076 18.6054 577.652 19.5214 577.652C20.8117 577.652 21.6193 578.49 21.6193 579.78C21.6193 581.228 20.4867 582.695 18.7827 584.301C19.1669 584.261 19.6002 584.232 19.9647 584.232H21.9641V585H17.4334ZM25.2014 585.138C23.8225 585.138 22.9459 583.887 22.9459 581.366C22.9459 578.864 23.8225 577.652 25.2014 577.652C26.5606 577.652 27.4372 578.864 27.4372 581.366C27.4372 583.887 26.5606 585.138 25.2014 585.138ZM25.2014 584.409C26.0189 584.409 26.5705 583.493 26.5705 581.366C26.5705 579.268 26.0189 578.371 25.2014 578.371C24.3741 578.371 23.8127 579.268 23.8127 581.366C23.8127 583.493 24.3741 584.409 25.2014 584.409ZM30.6647 585.138C29.2858 585.138 28.4092 583.887 28.4092 581.366C28.4092 578.864 29.2858 577.652 30.6647 577.652C32.024 577.652 32.9006 578.864 32.9006 581.366C32.9006 583.887 32.024 585.138 30.6647 585.138ZM30.6647 584.409C31.4822 584.409 32.0338 583.493 32.0338 581.366C32.0338 579.268 31.4822 578.371 30.6647 578.371C29.8374 578.371 29.276 579.268 29.276 581.366C29.276 583.493 29.8374 584.409 30.6647 584.409ZM35.9606 585.138C34.8378 585.138 34.1483 584.665 33.6559 584.173L34.1089 583.582C34.5128 584.005 35.0446 584.389 35.872 584.389C36.7289 584.389 37.4085 583.729 37.4085 582.685C37.4085 581.651 36.8175 581.031 35.9212 581.031C35.4386 581.031 35.1333 581.188 34.7196 581.464L34.237 581.159L34.4635 577.78H37.9797V578.549H35.2515L35.0643 580.637C35.3894 580.459 35.7144 580.351 36.1478 580.351C37.3494 580.351 38.3245 581.06 38.3245 582.656C38.3245 584.232 37.1721 585.138 35.9606 585.138ZM38.9616 586.763L41.9164 577.18H42.5566L39.6117 586.763H38.9616ZM45.4484 585.138C44.0695 585.138 43.1929 583.887 43.1929 581.366C43.1929 578.864 44.0695 577.652 45.4484 577.652C46.8076 577.652 47.6842 578.864 47.6842 581.366C47.6842 583.887 46.8076 585.138 45.4484 585.138ZM45.4484 584.409C46.2659 584.409 46.8175 583.493 46.8175 581.366C46.8175 579.268 46.2659 578.371 45.4484 578.371C44.6211 578.371 44.0596 579.268 44.0596 581.366C44.0596 583.493 44.6211 584.409 45.4484 584.409ZM49.0403 585V584.251H50.6458V578.874H49.3555V578.293C50.0056 578.184 50.4685 578.017 50.8526 577.78H51.5421V584.251H52.9998V585H49.0403ZM53.7452 586.763L56.7001 577.18H57.3403L54.3953 586.763H53.7452ZM60.2321 585.138C58.8531 585.138 57.9765 583.887 57.9765 581.366C57.9765 578.864 58.8531 577.652 60.2321 577.652C61.5913 577.652 62.4679 578.864 62.4679 581.366C62.4679 583.887 61.5913 585.138 60.2321 585.138ZM60.2321 584.409C61.0495 584.409 61.6011 583.493 61.6011 581.366C61.6011 579.268 61.0495 578.371 60.2321 578.371C59.4047 578.371 58.8433 579.268 58.8433 581.366C58.8433 583.493 59.4047 584.409 60.2321 584.409ZM63.824 585V584.251H65.4294V578.874H64.1392V578.293C64.7892 578.184 65.2521 578.017 65.6363 577.78H66.3257V584.251H67.7834V585H63.824Z" fill="black"/>
<rect x="9.5" y="421.5" width="428" height="28" rx="2.57792" fill="white" stroke="#C2C2C2"/>
<path d="M21.2943 432.436H22.1512C22.1512 434.701 20.5261 436.297 17.9061 436.996L17.591 436.346C19.9056 435.735 21.2943 434.445 21.2943 432.8V432.436ZM18.0539 432.436H21.7671V433.096H18.0539V432.436ZM23.9635 431.864H24.7908V436.888H23.9635V431.864ZM19.029 437.321H24.7908V440.65H19.029V437.321ZM23.9832 437.981H19.8366V439.98H23.9832V437.981ZM33.0241 431.874H33.8515V438.375H33.0241V431.874ZM28.129 439.902H34.1174V440.571H28.129V439.902ZM28.129 437.705H28.9366V440.128H28.129V437.705ZM29.0745 432.485C30.4042 432.485 31.3891 433.391 31.3891 434.681C31.3891 435.962 30.4042 436.878 29.0745 436.878C27.7449 436.878 26.7501 435.962 26.7501 434.681C26.7501 433.391 27.7449 432.485 29.0745 432.485ZM29.0745 433.194C28.2078 433.194 27.5479 433.805 27.5479 434.681C27.5479 435.548 28.2078 436.159 29.0745 436.159C29.9413 436.159 30.6012 435.548 30.6012 434.681C30.6012 433.805 29.9413 433.194 29.0745 433.194ZM41.6415 431.864H42.459V440.768H41.6415V431.864ZM42.2621 435.519H43.9167V436.208H42.2621V435.519ZM35.5645 433.283H40.8142V433.952H35.5645V433.283ZM38.2238 434.691C39.4845 434.691 40.3907 435.538 40.3907 436.74C40.3907 437.941 39.4845 438.789 38.2238 438.789C36.973 438.789 36.057 437.941 36.057 436.74C36.057 435.538 36.973 434.691 38.2238 434.691ZM38.2238 435.371C37.4162 435.371 36.8351 435.932 36.8351 436.74C36.8351 437.538 37.4162 438.109 38.2238 438.109C39.0315 438.109 39.6126 437.538 39.6126 436.74C39.6126 435.932 39.0315 435.371 38.2238 435.371ZM37.8003 431.973H38.6178V433.588H37.8003V431.973Z" fill="black"/>
<rect x="374" y="634" width="66" height="29" rx="3.07792" fill="#9055D1"/>
<path d="M400.741 645.327H401.664V653.766H400.741V645.327ZM399.549 648.651H401.073V649.454H399.549V648.651ZM398.912 645.484H399.817V653.36H398.912V645.484ZM396.059 646.638H396.798V647.506C396.798 649.556 396.225 651.283 394.886 652.086L394.295 651.347C395.533 650.645 396.059 649.186 396.059 647.506V646.638ZM396.244 646.638H396.992V647.506C396.992 649.029 397.527 650.415 398.746 651.042L398.183 651.781C396.835 651.052 396.244 649.408 396.244 647.506V646.638ZM394.526 646.259H398.405V647.044H394.526V646.259ZM403.215 645.687H404.175V646.804H406.234V645.687H407.185V649.371H403.215V645.687ZM404.175 647.543V648.605H406.234V647.543H404.175ZM408.533 645.327H409.503V649.648H408.533V645.327ZM409.096 647.053H410.685V647.848H409.096V647.053ZM404.055 650.017H409.503V652.178H405.024V653.323H404.064V651.476H408.552V650.775H404.055V650.017ZM404.064 652.926H409.78V653.693H404.064V652.926ZM414.728 648.3H415.689V649.842H414.728V648.3ZM414.719 645.465H415.55V645.788C415.55 647.321 414.1 648.466 412.189 648.762L411.829 647.995C413.51 647.783 414.719 646.832 414.719 645.788V645.465ZM414.876 645.465H415.698V645.788C415.698 646.85 416.908 647.783 418.588 647.995L418.228 648.762C416.326 648.457 414.876 647.34 414.876 645.788V645.465ZM411.404 649.445H419.031V650.211H411.404V649.445ZM415.209 650.802C417.028 650.802 418.117 651.338 418.117 652.28C418.117 653.231 417.028 653.757 415.209 653.757C413.389 653.757 412.3 653.231 412.3 652.28C412.3 651.338 413.389 650.802 415.209 650.802ZM415.209 651.541C413.962 651.541 413.279 651.79 413.279 652.28C413.279 652.769 413.962 653.028 415.209 653.028C416.455 653.028 417.138 652.769 417.138 652.28C417.138 651.79 416.455 651.541 415.209 651.541Z" fill="white"/>
<rect x="9.5" y="344.5" width="430" height="28" rx="2.57792" fill="white" stroke="#C2C2C2"/>
<path d="M19.0965 361.934C18.4366 361.934 17.8555 361.392 17.8555 360.614C17.8555 359.816 18.4366 359.275 19.0965 359.275C19.7367 359.275 20.3178 359.816 20.3178 360.614C20.3178 361.392 19.7367 361.934 19.0965 361.934ZM22.4438 361.934C21.7838 361.934 21.2027 361.392 21.2027 360.614C21.2027 359.816 21.7838 359.275 22.4438 359.275C23.084 359.275 23.6651 359.816 23.6651 360.614C23.6651 361.392 23.084 361.934 22.4438 361.934ZM25.791 361.934C25.1311 361.934 24.55 361.392 24.55 360.614C24.55 359.816 25.1311 359.275 25.791 359.275C26.4312 359.275 27.0123 359.816 27.0123 360.614C27.0123 361.392 26.4312 361.934 25.791 361.934ZM29.1382 361.934C28.4783 361.934 27.8972 361.392 27.8972 360.614C27.8972 359.816 28.4783 359.275 29.1382 359.275C29.7784 359.275 30.3596 359.816 30.3596 360.614C30.3596 361.392 29.7784 361.934 29.1382 361.934ZM32.4855 361.934C31.8256 361.934 31.2445 361.392 31.2445 360.614C31.2445 359.816 31.8256 359.275 32.4855 359.275C33.1257 359.275 33.7068 359.816 33.7068 360.614C33.7068 361.392 33.1257 361.934 32.4855 361.934ZM35.8327 361.934C35.1728 361.934 34.5917 361.392 34.5917 360.614C34.5917 359.816 35.1728 359.275 35.8327 359.275C36.4729 359.275 37.054 359.816 37.054 360.614C37.054 361.392 36.4729 361.934 35.8327 361.934ZM39.18 361.934C38.5201 361.934 37.9389 361.392 37.9389 360.614C37.9389 359.816 38.5201 359.275 39.18 359.275C39.8202 359.275 40.4013 359.816 40.4013 360.614C40.4013 361.392 39.8202 361.934 39.18 361.934ZM42.5272 361.934C41.8673 361.934 41.2862 361.392 41.2862 360.614C41.2862 359.816 41.8673 359.275 42.5272 359.275C43.1674 359.275 43.7485 359.816 43.7485 360.614C43.7485 361.392 43.1674 361.934 42.5272 361.934ZM45.8744 361.934C45.2145 361.934 44.6334 361.392 44.6334 360.614C44.6334 359.816 45.2145 359.275 45.8744 359.275C46.5147 359.275 47.0958 359.816 47.0958 360.614C47.0958 361.392 46.5147 361.934 45.8744 361.934ZM49.2217 361.934C48.5618 361.934 47.9807 361.392 47.9807 360.614C47.9807 359.816 48.5618 359.275 49.2217 359.275C49.8619 359.275 50.443 359.816 50.443 360.614C50.443 361.392 49.8619 361.934 49.2217 361.934Z" fill="black"/>
<path d="M422.45 356.75L424.828 359.12V359C424.828 358.403 424.591 357.831 424.169 357.409C423.747 356.987 423.175 356.75 422.578 356.75H422.45ZM419.225 357.35L420.388 358.512C420.35 358.67 420.328 358.827 420.328 359C420.328 359.597 420.565 360.169 420.987 360.591C421.409 361.013 421.981 361.25 422.578 361.25C422.743 361.25 422.908 361.227 423.065 361.19L424.228 362.352C423.725 362.6 423.17 362.75 422.578 362.75C421.583 362.75 420.629 362.355 419.926 361.652C419.223 360.948 418.828 359.995 418.828 359C418.828 358.407 418.978 357.852 419.225 357.35ZM415.078 353.202L416.788 354.912L417.125 355.25C415.888 356.225 414.913 357.5 414.328 359C415.625 362.292 418.828 364.625 422.578 364.625C423.74 364.625 424.85 364.4 425.863 363.995L426.185 364.31L428.375 366.5L429.328 365.547L416.03 352.25M422.578 355.25C423.572 355.25 424.526 355.645 425.23 356.348C425.933 357.052 426.328 358.005 426.328 359C426.328 359.48 426.23 359.945 426.058 360.365L428.255 362.562C429.38 361.625 430.28 360.395 430.828 359C429.53 355.707 426.328 353.375 422.578 353.375C421.528 353.375 420.523 353.562 419.578 353.9L421.205 355.512C421.633 355.347 422.09 355.25 422.578 355.25Z" fill="#808080"/>
<rect x="374" y="702" width="66" height="29" rx="3.07792" fill="#9055D1"/>
<rect x="374" y="702" width="66" height="29" rx="3.07792" fill="black" fill-opacity="0.3"/>
<path d="M400.993 717.242H401.963V718.378H400.993V717.242ZM404.557 713.336H405.527V719.033H404.557V713.336ZM405.158 715.82H406.681V716.623H405.158V715.82ZM398.962 718.821L398.851 718.054C400.356 718.054 402.387 718.045 404.114 717.814L404.188 718.488C402.406 718.802 400.439 718.812 398.962 718.821ZM399.904 719.412H405.527V721.766H404.557V720.169H399.904V719.412ZM399.063 714.029H403.883V714.74H399.063V714.029ZM401.473 715.007C402.683 715.007 403.477 715.487 403.477 716.254C403.477 717.029 402.683 717.51 401.473 717.51C400.254 717.51 399.47 717.029 399.47 716.254C399.47 715.487 400.254 715.007 401.473 715.007ZM401.473 715.654C400.799 715.654 400.384 715.866 400.384 716.254C400.384 716.632 400.799 716.863 401.473 716.863C402.147 716.863 402.563 716.632 402.563 716.254C402.563 715.866 402.147 715.654 401.473 715.654ZM400.993 713.262H401.963V714.361H400.993V713.262ZM413.403 713.336H414.372V719.449H413.403V713.336ZM408.86 720.815H414.612V721.6H408.86V720.815ZM408.86 718.83H409.829V721.111H408.86V718.83ZM409.82 713.899C411.094 713.899 412.054 714.767 412.054 716.005C412.054 717.223 411.094 718.11 409.82 718.11C408.546 718.11 407.576 717.223 407.576 716.005C407.576 714.767 408.546 713.899 409.82 713.899ZM409.82 714.73C409.081 714.73 408.518 715.229 408.518 716.005C408.518 716.762 409.081 717.26 409.82 717.26C410.559 717.26 411.113 716.762 411.113 716.005C411.113 715.229 410.559 714.73 409.82 714.73Z" fill="white"/>
<rect x="9.5" y="267.5" width="430" height="28" rx="2.57792" fill="white" stroke="#C2C2C2"/>
<path d="M19.0965 284.934C18.4366 284.934 17.8555 284.392 17.8555 283.614C17.8555 282.816 18.4366 282.275 19.0965 282.275C19.7367 282.275 20.3178 282.816 20.3178 283.614C20.3178 284.392 19.7367 284.934 19.0965 284.934ZM22.4438 284.934C21.7838 284.934 21.2027 284.392 21.2027 283.614C21.2027 282.816 21.7838 282.275 22.4438 282.275C23.084 282.275 23.6651 282.816 23.6651 283.614C23.6651 284.392 23.084 284.934 22.4438 284.934ZM25.791 284.934C25.1311 284.934 24.55 284.392 24.55 283.614C24.55 282.816 25.1311 282.275 25.791 282.275C26.4312 282.275 27.0123 282.816 27.0123 283.614C27.0123 284.392 26.4312 284.934 25.791 284.934ZM29.1382 284.934C28.4783 284.934 27.8972 284.392 27.8972 283.614C27.8972 282.816 28.4783 282.275 29.1382 282.275C29.7784 282.275 30.3596 282.816 30.3596 283.614C30.3596 284.392 29.7784 284.934 29.1382 284.934ZM32.4855 284.934C31.8256 284.934 31.2445 284.392 31.2445 283.614C31.2445 282.816 31.8256 282.275 32.4855 282.275C33.1257 282.275 33.7068 282.816 33.7068 283.614C33.7068 284.392 33.1257 284.934 32.4855 284.934ZM35.8327 284.934C35.1728 284.934 34.5917 284.392 34.5917 283.614C34.5917 282.816 35.1728 282.275 35.8327 282.275C36.4729 282.275 37.054 282.816 37.054 283.614C37.054 284.392 36.4729 284.934 35.8327 284.934ZM39.18 284.934C38.5201 284.934 37.9389 284.392 37.9389 283.614C37.9389 282.816 38.5201 282.275 39.18 282.275C39.8202 282.275 40.4013 282.816 40.4013 283.614C40.4013 284.392 39.8202 284.934 39.18 284.934ZM42.5272 284.934C41.8673 284.934 41.2862 284.392 41.2862 283.614C41.2862 282.816 41.8673 282.275 42.5272 282.275C43.1674 282.275 43.7485 282.816 43.7485 283.614C43.7485 284.392 43.1674 284.934 42.5272 284.934ZM45.8744 284.934C45.2145 284.934 44.6334 284.392 44.6334 283.614C44.6334 282.816 45.2145 282.275 45.8744 282.275C46.5147 282.275 47.0958 282.816 47.0958 283.614C47.0958 284.392 46.5147 284.934 45.8744 284.934ZM49.2217 284.934C48.5618 284.934 47.9807 284.392 47.9807 283.614C47.9807 282.816 48.5618 282.275 49.2217 282.275C49.8619 282.275 50.443 282.816 50.443 283.614C50.443 284.392 49.8619 284.934 49.2217 284.934Z" fill="black"/>
<path d="M422.45 279.75L424.828 282.12V282C424.828 281.403 424.591 280.831 424.169 280.409C423.747 279.987 423.175 279.75 422.578 279.75H422.45ZM419.225 280.35L420.388 281.512C420.35 281.67 420.328 281.827 420.328 282C420.328 282.597 420.565 283.169 420.987 283.591C421.409 284.013 421.981 284.25 422.578 284.25C422.743 284.25 422.908 284.227 423.065 284.19L424.228 285.352C423.725 285.6 423.17 285.75 422.578 285.75C421.583 285.75 420.629 285.355 419.926 284.652C419.223 283.948 418.828 282.995 418.828 282C418.828 281.407 418.978 280.852 419.225 280.35ZM415.078 276.202L416.788 277.912L417.125 278.25C415.888 279.225 414.913 280.5 414.328 282C415.625 285.292 418.828 287.625 422.578 287.625C423.74 287.625 424.85 287.4 425.863 286.995L426.185 287.31L428.375 289.5L429.328 288.547L416.03 275.25M422.578 278.25C423.572 278.25 424.526 278.645 425.23 279.348C425.933 280.052 426.328 281.005 426.328 282C426.328 282.48 426.23 282.945 426.058 283.365L428.255 285.562C429.38 284.625 430.28 283.395 430.828 282C429.53 278.707 426.328 276.375 422.578 276.375C421.528 276.375 420.523 276.562 419.578 276.9L421.205 278.512C421.633 278.347 422.09 278.25 422.578 278.25Z" fill="#808080"/>
<path d="M17.532 325.757H18.8247V337.034H17.532V325.757ZM10.1573 326.692H11.4377V329.561H14.2817V326.692H15.5621V334.363H10.1573V326.692ZM11.4377 330.571V333.316H14.2817V330.571H11.4377ZM21.4708 326.36H26.8017V331.038H21.4708V326.36ZM25.546 327.382H22.7266V330.017H25.546V327.382ZM28.8701 325.769H30.1628V331.506H28.8701V325.769ZM22.7758 332.036H30.1628V334.904H24.0686V336.295H22.8004V333.969H28.8824V333.045H22.7758V332.036ZM22.8004 335.902H30.4953V336.923H22.8004V335.902ZM37.5243 328.859H40.6022V329.906H37.5243V328.859ZM40.2452 325.781H41.5379V334.092H40.2452V325.781ZM34.2124 335.754H41.7964V336.8H34.2124V335.754ZM34.2124 333.279H35.5052V336.32H34.2124V333.279ZM32.7227 326.52H34.0031V328.379H36.6501V326.52H37.9182V332.245H32.7227V326.52ZM34.0031 329.376V331.211H36.6501V329.376H34.0031ZM44.0116 327.308H53.2084V328.342H44.0116V327.308ZM43.5437 334.744H53.7378V335.791H43.5437V334.744ZM47.9759 333.082H49.2564V335.15H47.9759V333.082ZM48.6038 328.982C50.9061 328.982 52.3466 329.783 52.3466 331.149C52.3466 332.516 50.9061 333.316 48.6038 333.316C46.3015 333.316 44.8734 332.516 44.8734 331.149C44.8734 329.783 46.3015 328.982 48.6038 328.982ZM48.6038 329.992C47.0649 329.992 46.1784 330.398 46.1784 331.149C46.1784 331.9 47.0649 332.294 48.6038 332.294C50.1428 332.294 51.0292 331.9 51.0292 331.149C51.0292 330.398 50.1428 329.992 48.6038 329.992ZM47.9759 325.929H49.2564V327.948H47.9759V325.929ZM60.3927 330.989H61.6854V332.503H60.3927V330.989ZM65.145 325.781H66.4377V333.378H65.145V325.781ZM65.9452 329.093H67.9767V330.164H65.9452V329.093ZM57.6841 333.094L57.5363 332.073C59.5432 332.073 62.2517 332.06 64.554 331.752L64.6525 332.651C62.2764 333.07 59.654 333.082 57.6841 333.094ZM58.9399 333.882H66.4377V337.022H65.145V334.892H58.9399V333.882ZM57.8195 326.705H64.2462V327.653H57.8195V326.705ZM61.0329 328.01C62.6457 328.01 63.7045 328.65 63.7045 329.672C63.7045 330.706 62.6457 331.346 61.0329 331.346C59.4077 331.346 58.3612 330.706 58.3612 329.672C58.3612 328.65 59.4077 328.01 61.0329 328.01ZM61.0329 328.872C60.1341 328.872 59.5801 329.155 59.5801 329.672C59.5801 330.177 60.1341 330.484 61.0329 330.484C61.9316 330.484 62.4856 330.177 62.4856 329.672C62.4856 329.155 61.9316 328.872 61.0329 328.872ZM60.3927 325.683H61.6854V327.148H60.3927V325.683ZM76.9386 325.781H78.2313V333.932H76.9386V325.781ZM70.8813 335.754H78.5514V336.8H70.8813V335.754ZM70.8813 333.107H72.174V336.148H70.8813V333.107ZM72.1617 326.532C73.8607 326.532 75.1411 327.69 75.1411 329.339C75.1411 330.965 73.8607 332.146 72.1617 332.146C70.4627 332.146 69.1699 330.965 69.1699 329.339C69.1699 327.69 70.4627 326.532 72.1617 326.532ZM72.1617 327.64C71.1767 327.64 70.4257 328.305 70.4257 329.339C70.4257 330.349 71.1767 331.014 72.1617 331.014C73.1466 331.014 73.8853 330.349 73.8853 329.339C73.8853 328.305 73.1466 327.64 72.1617 327.64Z" fill="black"/>
<path d="M17.532 248.757H18.8247V260.034H17.532V248.757ZM10.1573 249.692H11.4377V252.561H14.2817V249.692H15.5621V257.363H10.1573V249.692ZM11.4377 253.571V256.316H14.2817V253.571H11.4377ZM21.4708 249.36H26.8017V254.038H21.4708V249.36ZM25.546 250.382H22.7266V253.017H25.546V250.382ZM28.8701 248.769H30.1628V254.506H28.8701V248.769ZM22.7758 255.036H30.1628V257.904H24.0686V259.295H22.8004V256.969H28.8824V256.045H22.7758V255.036ZM22.8004 258.902H30.4953V259.923H22.8004V258.902ZM37.5243 251.859H40.6022V252.906H37.5243V251.859ZM40.2452 248.781H41.5379V257.092H40.2452V248.781ZM34.2124 258.754H41.7964V259.8H34.2124V258.754ZM34.2124 256.279H35.5052V259.32H34.2124V256.279ZM32.7227 249.52H34.0031V251.379H36.6501V249.52H37.9182V255.245H32.7227V249.52ZM34.0031 252.376V254.211H36.6501V252.376H34.0031ZM44.0116 250.308H53.2084V251.342H44.0116V250.308ZM43.5437 257.744H53.7378V258.791H43.5437V257.744ZM47.9759 256.082H49.2564V258.15H47.9759V256.082ZM48.6038 251.982C50.9061 251.982 52.3466 252.783 52.3466 254.149C52.3466 255.516 50.9061 256.316 48.6038 256.316C46.3015 256.316 44.8734 255.516 44.8734 254.149C44.8734 252.783 46.3015 251.982 48.6038 251.982ZM48.6038 252.992C47.0649 252.992 46.1784 253.398 46.1784 254.149C46.1784 254.9 47.0649 255.294 48.6038 255.294C50.1428 255.294 51.0292 254.9 51.0292 254.149C51.0292 253.398 50.1428 252.992 48.6038 252.992ZM47.9759 248.929H49.2564V250.948H47.9759V248.929Z" fill="black"/>
<rect x="374" y="190" width="66" height="29" rx="3.07792" fill="#9055D1"/>
<rect x="374" y="190" width="66" height="29" rx="3.07792" fill="black" fill-opacity="0.3"/>
<path d="M390.91 202.019H391.695V203.404C391.695 205.371 390.818 207.255 389.368 207.994L388.777 207.218C390.088 206.581 390.91 204.965 390.91 203.404V202.019ZM391.095 202.019H391.87V203.404C391.87 204.909 392.664 206.442 393.929 207.07L393.338 207.837C391.935 207.107 391.095 205.306 391.095 203.404V202.019ZM394.493 201.327H395.462V209.766H394.493V201.327ZM395.241 204.669H396.773V205.473H395.241V204.669ZM399.22 204.171H400.18V205.74H399.22V204.171ZM402.258 204.171H403.218V205.74H402.258V204.171ZM397.41 205.427H405.037V206.193H397.41V205.427ZM401.214 206.738C403.024 206.738 404.123 207.283 404.123 208.243C404.123 209.212 403.024 209.757 401.214 209.757C399.395 209.757 398.306 209.212 398.306 208.243C398.306 207.283 399.395 206.738 401.214 206.738ZM401.214 207.476C399.977 207.476 399.284 207.744 399.284 208.243C399.284 208.751 399.977 209.018 401.214 209.018C402.452 209.018 403.144 208.751 403.144 208.243C403.144 207.744 402.452 207.476 401.214 207.476ZM401.223 201.465C403.07 201.465 404.234 202.065 404.234 203.063C404.234 204.06 403.07 204.642 401.223 204.642C399.377 204.642 398.222 204.06 398.222 203.063C398.222 202.065 399.377 201.465 401.223 201.465ZM401.223 202.213C399.968 202.213 399.22 202.509 399.22 203.063C399.22 203.607 399.968 203.903 401.223 203.903C402.488 203.903 403.236 203.607 403.236 203.063C403.236 202.509 402.488 202.213 401.223 202.213ZM413.555 201.318H414.525V209.757H413.555V201.318ZM414.266 204.66H415.79V205.454H414.266V204.66ZM411.367 202.213H412.318C412.318 204.669 411.275 206.839 408.514 208.224L407.969 207.486C410.25 206.322 411.367 204.632 411.367 202.379V202.213ZM408.394 202.213H411.866V202.998H408.394V202.213ZM417.479 203.561H423.25V204.337H417.479V203.561ZM417.479 201.484H418.439V203.912H417.479V201.484ZM416.482 205.205H424.109V205.981H416.482V205.205ZM420.277 206.645C422.087 206.645 423.186 207.199 423.186 208.197C423.186 209.175 422.087 209.739 420.277 209.739C418.467 209.739 417.368 209.175 417.368 208.197C417.368 207.199 418.467 206.645 420.277 206.645ZM420.277 207.393C419.04 207.393 418.347 207.661 418.347 208.197C418.347 208.705 419.04 208.991 420.277 208.991C421.514 208.991 422.207 208.705 422.207 208.197C422.207 207.661 421.514 207.393 420.277 207.393Z" fill="white"/>
<path d="M12.0656 624.71H13.3583V628.046H12.0656V624.71ZM15.9438 624.71H17.2365V628.046H15.9438V624.71ZM10.0711 617.963H19.1695V618.985H10.0711V617.963ZM9.56634 623.971H19.7604V625.006H9.56634V623.971ZM14.6388 619.539C16.9903 619.539 18.3815 620.204 18.3815 621.41C18.3815 622.629 16.9903 623.306 14.6388 623.306C12.2872 623.306 10.896 622.629 10.896 621.41C10.896 620.204 12.2872 619.539 14.6388 619.539ZM14.6388 620.499C13.0752 620.499 12.238 620.807 12.238 621.41C12.238 622.026 13.0752 622.334 14.6388 622.334C16.2147 622.334 17.0518 622.026 17.0518 621.41C17.0518 620.807 16.2147 620.499 14.6388 620.499ZM13.9985 616.732H15.279V618.69H13.9985V616.732ZM29.2518 616.769H30.4829V628.022H29.2518V616.769ZM27.5281 621.201H29.5596V622.248H27.5281V621.201ZM26.7156 616.991H27.9098V627.468H26.7156V616.991ZM21.2492 624.279H22.0125C23.5391 624.279 24.6718 624.23 25.9892 623.971L26.1 625.03C24.7457 625.301 23.5884 625.35 22.0125 625.35H21.2492V624.279ZM21.2492 618.111H25.4228V619.157H22.5296V624.784H21.2492V618.111ZM33.129 617.237H41.4394V618.271H33.129V617.237ZM33.1906 620.536H41.3778V621.558H33.1906V620.536ZM34.7049 617.68H35.9976V621.029H34.7049V617.68ZM38.5708 617.68H39.8635V621.029H38.5708V617.68ZM32.2056 622.765H42.3751V623.799H32.2056V622.765ZM36.6501 621.226H37.9306V623.393H36.6501V621.226ZM33.486 626.754H41.2424V627.8H33.486V626.754ZM33.486 624.661H34.7788V627.111H33.486V624.661ZM51.6154 619.859H54.6933V620.906H51.6154V619.859ZM54.3363 616.781H55.629V625.092H54.3363V616.781ZM48.3035 626.754H55.8875V627.8H48.3035V626.754ZM48.3035 624.279H49.5963V627.32H48.3035V624.279ZM46.8138 617.52H48.0942V619.379H50.7413V617.52H52.0094V623.245H46.8138V617.52ZM48.0942 620.376V622.211H50.7413V620.376H48.0942ZM58.1027 618.308H67.2995V619.342H58.1027V618.308ZM57.6348 625.744H67.8289V626.791H57.6348V625.744ZM62.0671 624.082H63.3475V626.15H62.0671V624.082ZM62.6949 619.982C64.9972 619.982 66.4377 620.783 66.4377 622.149C66.4377 623.516 64.9972 624.316 62.6949 624.316C60.3927 624.316 58.9645 623.516 58.9645 622.149C58.9645 620.783 60.3927 619.982 62.6949 619.982ZM62.6949 620.992C61.156 620.992 60.2695 621.398 60.2695 622.149C60.2695 622.9 61.156 623.294 62.6949 623.294C64.2339 623.294 65.1204 622.9 65.1204 622.149C65.1204 621.398 64.2339 620.992 62.6949 620.992ZM62.0671 616.929H63.3475V618.948H62.0671V616.929Z" fill="black"/>
<rect x="9.5" y="190.5" width="350" height="28" rx="2.57792" fill="white" stroke="#C2C2C2"/>
<path d="M17.9061 209V201.17H18.7926V206.479H18.8221L21.0973 203.652H22.102L20.3192 205.809L22.3285 209H21.3534L19.7874 206.419L18.7926 207.592V209H17.9061ZM23.3406 209V203.652H24.2369V209H23.3406ZM23.7937 202.549C23.4391 202.549 23.1929 202.322 23.1929 201.948C23.1929 201.603 23.4391 201.377 23.7937 201.377C24.1384 201.377 24.3945 201.603 24.3945 201.948C24.3945 202.322 24.1384 202.549 23.7937 202.549ZM26.053 209V201.17H26.9493V203.307L26.9198 204.41C27.4122 203.928 27.9539 203.524 28.6926 203.524C29.8155 203.524 30.3276 204.253 30.3276 205.612V209H29.4215V205.73C29.4215 204.725 29.1162 204.302 28.407 204.302C27.8653 204.302 27.4812 204.587 26.9493 205.119V209H26.053ZM31.9963 209V208.251H33.6018V203.081H32.3115V202.499C32.9616 202.381 33.4245 202.214 33.8086 201.987H34.4981V208.251H35.9558V209H31.9963ZM37.0263 209V208.478C39.1439 206.37 40.3258 205.1 40.3258 203.947C40.3258 203.149 39.9023 202.578 39.006 202.578C38.415 202.578 37.9029 202.952 37.499 203.425L36.977 202.913C37.568 202.273 38.1984 201.859 39.1143 201.859C40.4046 201.859 41.2123 202.667 41.2123 203.918C41.2123 205.238 40.0008 206.548 38.3362 208.301C38.7105 208.261 39.1537 208.232 39.5182 208.232H41.557V209H37.0263ZM44.6466 209.138C43.5139 209.138 42.8146 208.665 42.3419 208.143L42.7949 207.552C43.2184 207.995 43.7602 208.389 44.5875 208.389C45.4444 208.389 46.0551 207.887 46.0551 207.099C46.0551 206.262 45.4739 205.7 43.8094 205.7V205.011C45.2967 205.011 45.799 204.43 45.799 203.691C45.799 203.012 45.3361 202.578 44.5875 202.578C44.0064 202.578 43.4942 202.884 43.0904 203.297L42.6078 202.726C43.1495 202.224 43.7897 201.859 44.6171 201.859C45.8285 201.859 46.715 202.499 46.715 203.632C46.715 204.479 46.2028 205.021 45.4345 205.306V205.346C46.2816 205.543 46.971 206.173 46.971 207.129C46.971 208.379 45.9369 209.138 44.6466 209.138ZM50.8585 209V204.292C50.8585 203.928 50.888 203.317 50.9176 202.952H50.8683C50.691 203.278 50.494 203.593 50.2971 203.937L48.6522 206.351H52.6707V207.06H47.7067V206.469L50.7107 201.987H51.7055V209H50.8585Z" fill="black"/>
<path d="M11.7701 548.458H12.7797V549.874C12.7797 551.659 11.9056 553.482 10.1696 554.233L9.49247 553.235C11.0068 552.571 11.7701 551.142 11.7701 549.874V548.458ZM11.9917 548.458H13.0136V549.874C13.0136 551.105 13.7523 552.349 15.2051 552.915L14.5156 553.9C12.8412 553.235 11.9917 551.61 11.9917 549.874V548.458ZM17.8644 547.781H19.0833V554.688H17.8644V547.781ZM16.2639 550.662H18.2338V551.709H16.2639V550.662ZM15.4636 547.991H16.6702V554.331H15.4636V547.991ZM15.3405 554.897C17.6674 554.897 19.1448 555.661 19.1448 556.954C19.1448 558.246 17.6674 559.01 15.3405 559.01C12.989 559.01 11.5362 558.246 11.5362 556.954C11.5362 555.661 12.989 554.897 15.3405 554.897ZM15.3405 555.882C13.7523 555.882 12.8043 556.264 12.8043 556.954C12.8043 557.643 13.7523 558.025 15.3405 558.025C16.9164 558.025 17.8521 557.643 17.8521 556.954C17.8521 556.264 16.9164 555.882 15.3405 555.882ZM28.9194 547.769H30.2121V556.079H28.9194V547.769ZM25.9399 549.148H29.3749V550.17H25.9399V549.148ZM22.9113 557.754H30.4829V558.8H22.9113V557.754ZM22.9113 555.353H24.204V558.259H22.9113V555.353ZM21.52 548.545H22.8004V553.839H21.52V548.545ZM21.52 553.445H22.3942C24.007 553.445 25.4844 553.371 27.1711 553.063L27.2942 554.122C25.5583 554.442 24.0562 554.503 22.3942 554.503H21.52V553.445ZM25.9399 551.266H29.3749V552.3H25.9399V551.266ZM35.0989 552.386H36.3793V554.368H35.0989V552.386ZM40.2452 547.769H41.5379V554.343H40.2452V547.769ZM32.341 552.804L32.1933 551.881C34.3602 551.881 37.0687 551.869 39.4572 551.623L39.5311 552.435C37.081 552.78 34.4463 552.804 32.341 552.804ZM33.8554 554.725H41.5379V557.2H35.1481V558.295H33.88V556.363H40.2698V555.624H33.8554V554.725ZM33.88 558.012H41.858V558.923H33.88V558.012ZM38.1152 553.063H40.6514V553.863H38.1152V553.063ZM35.8006 547.966C37.475 547.966 38.5831 548.618 38.5831 549.653C38.5831 550.687 37.475 551.339 35.8006 551.339C34.1139 551.339 33.0059 550.687 33.0059 549.653C33.0059 548.618 34.1139 547.966 35.8006 547.966ZM35.8006 548.828C34.828 548.828 34.2124 549.136 34.2124 549.653C34.2124 550.17 34.828 550.465 35.8006 550.465C36.7609 550.465 37.3765 550.17 37.3765 549.653C37.3765 549.136 36.7609 548.828 35.8006 548.828ZM46.6955 548.138C48.3945 548.138 49.6503 549.185 49.6503 550.675C49.6503 552.152 48.3945 553.198 46.6955 553.198C45.0088 553.198 43.753 552.152 43.753 550.675C43.753 549.185 45.0088 548.138 46.6955 548.138ZM46.6955 549.197C45.7229 549.197 44.9965 549.776 44.9965 550.675C44.9965 551.573 45.7229 552.152 46.6955 552.152C47.6805 552.152 48.3945 551.573 48.3945 550.675C48.3945 549.776 47.6805 549.197 46.6955 549.197ZM51.5217 547.769H52.8144V553.469H51.5217V547.769ZM45.4397 553.986H52.8144V556.867H46.7201V558.419H45.4643V555.919H51.534V554.996H45.4397V553.986ZM45.4643 557.865H53.1468V558.886H45.4643V557.865Z" fill="black"/>
<path d="M17.532 402.757H18.8247V414.034H17.532V402.757ZM12.8289 403.594C14.5156 403.594 15.7345 405.133 15.7345 407.558C15.7345 409.984 14.5156 411.535 12.8289 411.535C11.1545 411.535 9.93569 409.984 9.93569 407.558C9.93569 405.133 11.1545 403.594 12.8289 403.594ZM12.8289 404.763C11.844 404.763 11.1669 405.81 11.1669 407.558C11.1669 409.319 11.844 410.378 12.8289 410.378C13.8139 410.378 14.491 409.319 14.491 407.558C14.491 405.81 13.8139 404.763 12.8289 404.763ZM20.8798 408.519H31.0739V409.553H20.8798V408.519ZM22.1602 403.015H29.7935V405.835H23.453V407.201H22.1726V404.899H28.5254V404.012H22.1602V403.015ZM22.1726 406.721H30.0274V407.718H22.1726V406.721ZM22.2095 410.415H29.8304V413.886H22.2095V410.415ZM28.5623 411.436H23.4776V412.852H28.5623V411.436Z" fill="black"/>
<path d="M11.253 477.762H18.837V482.034H17.5443V478.809H11.253V477.762ZM17.5443 470.781H18.837V477.233H17.5443V470.781ZM10.2312 471.385H11.5116V475.989H10.2312V471.385ZM10.2312 475.41H11.1669C12.8289 475.41 14.5895 475.3 16.4486 474.918L16.6209 475.977C14.688 476.358 12.8905 476.482 11.1669 476.482H10.2312V475.41ZM21.3723 471.914H22.6527V478.488H21.3723V471.914ZM21.3723 478.144H22.1233C23.453 478.144 24.6349 478.082 26.0015 477.799L26.1739 478.895C24.758 479.178 23.5145 479.239 22.1233 479.239H21.3723V478.144ZM29.2641 470.769H30.5076V482.022H29.2641V470.769ZM24.4995 474.45H27.208V475.497H24.4995V474.45ZM26.8879 471.003H28.0945V481.48H26.8879V471.003ZM40.1959 470.781H41.4886V477.171H40.1959V470.781ZM34.1262 477.737H41.4886V481.886H34.1262V477.737ZM40.2205 478.759H35.3943V480.852H40.2205V478.759ZM35.419 471.335C37.1426 471.335 38.3984 472.419 38.3984 473.995C38.3984 475.546 37.1426 476.654 35.419 476.654C33.6953 476.654 32.4272 475.546 32.4272 473.995C32.4272 472.419 33.6953 471.335 35.419 471.335ZM35.419 472.406C34.4217 472.406 33.683 473.034 33.683 473.995C33.683 474.955 34.4217 475.571 35.419 475.571C36.4162 475.571 37.1426 474.955 37.1426 473.995C37.1426 473.034 36.4162 472.406 35.419 472.406Z" fill="black"/>
<path d="M12.5581 172.594C14.2325 172.594 15.439 174.133 15.439 176.558C15.439 178.984 14.2325 180.535 12.5581 180.535C10.8837 180.535 9.67714 178.984 9.67714 176.558C9.67714 174.133 10.8837 172.594 12.5581 172.594ZM12.5581 173.763C11.5855 173.763 10.9083 174.81 10.9083 176.558C10.9083 178.319 11.5855 179.378 12.5581 179.378C13.5307 179.378 14.2078 178.319 14.2078 176.558C14.2078 174.81 13.5307 173.763 12.5581 173.763ZM16.9903 171.769H18.283V183.022H16.9903V171.769ZM17.9875 176.152H20.0313V177.223H17.9875V176.152ZM28.8578 171.757H30.1505V183.034H28.8578V171.757ZM24.1547 172.594C25.8414 172.594 27.0603 174.133 27.0603 176.558C27.0603 178.984 25.8414 180.535 24.1547 180.535C22.4803 180.535 21.2615 178.984 21.2615 176.558C21.2615 174.133 22.4803 172.594 24.1547 172.594ZM24.1547 173.763C23.1698 173.763 22.4927 174.81 22.4927 176.558C22.4927 178.319 23.1698 179.378 24.1547 179.378C25.1397 179.378 25.8168 178.319 25.8168 176.558C25.8168 174.81 25.1397 173.763 24.1547 173.763ZM40.1836 171.769H41.4763V183.046H40.1836V171.769ZM32.9197 179.218H33.8554C36.1454 179.218 37.5366 179.156 39.1371 178.861L39.2602 179.932C37.6351 180.239 36.1823 180.301 33.8554 180.301H32.9197V179.218ZM32.9197 172.803H38.2753V173.862H34.2001V179.624H32.9197V172.803Z" fill="black"/>
<path d="M17.5443 684.781H18.837V692.932H17.5443V684.781ZM11.487 694.754H19.1571V695.8H11.487V694.754ZM11.487 692.107H12.7797V695.148H11.487V692.107ZM12.7674 685.532C14.4664 685.532 15.7468 686.69 15.7468 688.339C15.7468 689.965 14.4664 691.146 12.7674 691.146C11.0684 691.146 9.77564 689.965 9.77564 688.339C9.77564 686.69 11.0684 685.532 12.7674 685.532ZM12.7674 686.64C11.7824 686.64 11.0314 687.305 11.0314 688.339C11.0314 689.349 11.7824 690.014 12.7674 690.014C13.7523 690.014 14.491 689.349 14.491 688.339C14.491 687.305 13.7523 686.64 12.7674 686.64ZM20.8798 690.051H31.0493V691.085H20.8798V690.051ZM25.9522 691.897C28.3653 691.897 29.8304 692.648 29.8304 693.954C29.8304 695.259 28.3653 696.01 25.9522 696.01C23.5391 696.01 22.0741 695.259 22.0741 693.954C22.0741 692.648 23.5391 691.897 25.9522 691.897ZM25.9522 692.907C24.3025 692.907 23.3791 693.264 23.3791 693.954C23.3791 694.643 24.3025 695 25.9522 695C27.602 695 28.5254 694.643 28.5254 693.954C28.5254 693.264 27.602 692.907 25.9522 692.907ZM25.1027 685.852H26.2477V686.16C26.2477 687.908 24.4256 689.214 21.8401 689.484L21.3969 688.475C23.6007 688.253 25.1027 687.256 25.1027 686.16V685.852ZM25.6937 685.852H26.8264V686.16C26.8264 687.256 28.3284 688.253 30.5445 688.475L30.089 689.484C27.5158 689.214 25.6937 687.908 25.6937 686.16V685.852ZM21.8155 685.323H30.1382V686.357H21.8155V685.323ZM37.5243 687.859H40.6022V688.906H37.5243V687.859ZM40.2452 684.781H41.5379V693.092H40.2452V684.781ZM34.2124 694.754H41.7964V695.8H34.2124V694.754ZM34.2124 692.279H35.5052V695.32H34.2124V692.279ZM32.7227 685.52H34.0031V687.379H36.6501V685.52H37.9182V691.245H32.7227V685.52ZM34.0031 688.376V690.211H36.6501V688.376H34.0031ZM44.0116 686.308H53.2084V687.342H44.0116V686.308ZM43.5437 693.744H53.7378V694.791H43.5437V693.744ZM47.9759 692.082H49.2564V694.15H47.9759V692.082ZM48.6038 687.982C50.9061 687.982 52.3466 688.783 52.3466 690.149C52.3466 691.516 50.9061 692.316 48.6038 692.316C46.3015 692.316 44.8734 691.516 44.8734 690.149C44.8734 688.783 46.3015 687.982 48.6038 687.982ZM48.6038 688.992C47.0649 688.992 46.1784 689.398 46.1784 690.149C46.1784 690.9 47.0649 691.294 48.6038 691.294C50.1428 691.294 51.0292 690.9 51.0292 690.149C51.0292 689.398 50.1428 688.992 48.6038 688.992ZM47.9759 684.929H49.2564V686.948H47.9759V684.929Z" fill="black"/>
<rect x="9.5" y="489.5" width="350" height="28" rx="2.57792" fill="white" stroke="#C2C2C2"/>
<path d="M17.9849 508V500.78H18.9009V508H17.9849ZM20.7917 508V502.652H21.5205L21.6092 503.43H21.6387C22.1411 502.928 22.6926 502.524 23.4313 502.524C24.5541 502.524 25.0663 503.253 25.0663 504.612V508H24.1602V504.73C24.1602 503.725 23.8548 503.302 23.1457 503.302C22.604 503.302 22.2199 503.587 21.688 504.119V508H20.7917ZM26.8033 508V500.17H27.6996V502.307L27.67 503.41C28.1625 502.928 28.7042 502.524 29.4429 502.524C30.5657 502.524 31.0779 503.253 31.0779 504.612V508H30.1717V504.73C30.1717 503.725 29.8664 503.302 29.1573 503.302C28.6155 503.302 28.2314 503.587 27.6996 504.119V508H26.8033ZM34.0171 508.138C33.1209 508.138 32.4511 507.576 32.4511 506.611C32.4511 505.449 33.4557 504.868 35.7309 504.612C35.7309 503.922 35.5142 503.262 34.6377 503.262C34.0073 503.262 33.4459 503.558 33.0322 503.844L32.6776 503.213C33.1701 502.898 33.9187 502.524 34.7755 502.524C36.0855 502.524 36.6371 503.391 36.6371 504.72V508H35.8984L35.8196 507.37H35.7802C35.2779 507.793 34.6771 508.138 34.0171 508.138ZM34.2634 507.409C34.7854 507.409 35.2188 507.163 35.7309 506.7V505.213C33.9285 505.419 33.3277 505.863 33.3277 506.552C33.3277 507.163 33.7414 507.409 34.2634 507.409ZM37.5578 509.389V508.788H42.7976V509.389H37.5578ZM43.8376 508V500.17H44.7241V505.479H44.7536L47.0288 502.652H48.0335L46.2507 504.809L48.26 508H47.2849L45.7189 505.419L44.7241 506.592V508H43.8376ZM49.2721 508V502.652H50.1684V508H49.2721ZM49.7252 501.549C49.3706 501.549 49.1244 501.322 49.1244 500.948C49.1244 500.603 49.3706 500.377 49.7252 500.377C50.0699 500.377 50.326 500.603 50.326 500.948C50.326 501.322 50.0699 501.549 49.7252 501.549ZM51.9845 508V502.652H52.7134L52.802 503.43H52.8316C53.2945 502.928 53.8559 502.524 54.4961 502.524C55.3136 502.524 55.7568 502.908 55.9637 503.538C56.5251 502.947 57.0865 502.524 57.7365 502.524C58.8298 502.524 59.3617 503.253 59.3617 504.612V508H58.4654V504.73C58.4654 503.725 58.1502 503.302 57.4608 503.302C57.0471 503.302 56.6236 503.578 56.1213 504.119V508H55.225V504.73C55.225 503.725 54.9098 503.302 54.2203 503.302C53.8165 503.302 53.3634 503.578 52.8808 504.119V508H51.9845Z" fill="black"/>
<path d="M14.8353 133.566H18.9289V138.183H14.8353V133.566ZM27.3009 116.238H31.3945V144.739H27.3009V116.238ZM8.24855 139.999L7.75608 136.706C12.927 136.675 19.8215 136.675 25.8235 135.875L26.1005 138.83C19.9139 139.969 13.2963 139.999 8.24855 139.999ZM8.31011 119.377H25.4541V122.578H8.31011V119.377ZM16.8667 123.717C21.0835 123.717 24.0075 125.872 24.0075 129.042C24.0075 132.243 21.0835 134.398 16.8667 134.398C12.7115 134.398 9.78751 132.243 9.78751 129.042C9.78751 125.872 12.7115 123.717 16.8667 123.717ZM16.8667 126.795C15.02 126.795 13.6965 127.595 13.6965 129.042C13.6965 130.519 15.02 131.32 16.8667 131.32C18.775 131.32 20.0986 130.519 20.0986 129.042C20.0986 127.595 18.775 126.795 16.8667 126.795ZM14.8353 116.361H18.9289V121.224H14.8353V116.361ZM43.3345 130.858H47.4281V137.106H43.3345V130.858ZM55.8308 116.238H59.9245V137.814H55.8308V116.238ZM39.3947 140.984H60.5401V144.247H39.3947V140.984ZM39.3947 135.783H43.4884V141.846H39.3947V135.783ZM36.3168 132.089L35.8243 128.826C41.026 128.826 47.9821 128.765 53.9533 127.995L54.1995 130.919C48.136 131.935 41.4569 132.089 36.3168 132.089ZM50.4445 132.797H56.7234V135.598H50.4445V132.797ZM44.9966 117.223C49.1517 117.223 52.0758 119.285 52.0758 122.301C52.0758 125.348 49.1517 127.38 44.9966 127.38C40.8106 127.38 37.8865 125.348 37.8865 122.301C37.8865 119.285 40.8106 117.223 44.9966 117.223ZM44.9966 120.208C43.0882 120.208 41.7647 120.916 41.7647 122.301C41.7647 123.686 43.0882 124.394 44.9966 124.394C46.8741 124.394 48.1976 123.686 48.1976 122.301C48.1976 120.916 46.8741 120.208 44.9966 120.208ZM82.4525 116.207H86.5769V144.709H82.4525V116.207ZM85.4996 127.103H90.5166V130.458H85.4996V127.103ZM74.9731 119.162H78.9744C78.9744 127.718 75.7118 135.044 66.2318 139.815L63.9542 136.706C71.4335 132.828 74.9731 127.595 74.9731 119.87V119.162ZM65.5239 119.162H77.0661V122.455H65.5239V119.162ZM112.121 116.238H116.246V131.566H112.121V116.238ZM97.2857 132.797H101.318V135.444H112.183V132.797H116.246V144.432H97.2857V132.797ZM101.318 138.584V141.169H112.183V138.584H101.318ZM100.733 117.407C105.165 117.407 108.459 120.208 108.459 124.148C108.459 128.088 105.165 130.889 100.733 130.889C96.3007 130.889 92.9766 128.088 92.9766 124.148C92.9766 120.208 96.3007 117.407 100.733 117.407ZM100.733 120.793C98.5476 120.793 96.9779 122.055 96.9779 124.148C96.9779 126.272 98.5476 127.503 100.733 127.503C102.887 127.503 104.457 126.272 104.457 124.148C104.457 122.055 102.887 120.793 100.733 120.793Z" fill="black"/>
<mask id="mask0_610_95" style="mask-type:luminance" maskUnits="userSpaceOnUse" x="3" y="0" width="123" height="123">
<path d="M126 0H3V123H126V0Z" fill="white"/>
</mask>
<g mask="url(#mask0_610_95)">
<path d="M76 83C76 83 79.5768 82.8737 81.5311 81.9208C84.6497 80.3998 86 77 86 77" stroke="#640BFD" stroke-width="10.5643" stroke-linecap="round" stroke-linejoin="round"/>
<path d="M51 84C51 84 48.8279 84.9124 47.3525 87.8571C46.5477 89.4632 46 93 46 93" stroke="#640BFD" stroke-width="10.5643" stroke-linecap="round" stroke-linejoin="round"/>
<path d="M65.9694 55.1698C65.9694 57.9872 65.545 60.9504 62.6704 60.9504C59.7956 60.9504 56.2526 58.6664 56.2526 55.849L48.593 57.7169C48.593 57.7169 47.6282 69.7212 48.1599 77.2774C48.6916 84.8337 51.0185 97 51.0185 97H59.1979C59.1979 94.1826 61.5283 91.8986 64.4031 91.8986C67.2776 91.8986 69.1354 92.5041 70.1276 94.7925L79 93.7737C79 93.7737 75.8922 82.7961 75.535 76.5982C75.0994 69.0433 74.4955 55 74.4955 55L65.9694 55.1698Z" fill="#CCAFFF"/>
<path d="M68.1837 29.4058L52.7504 43.3443L47.8355 55.099L47.3967 61.3353L40.1102 68.0672C40.1102 68.0672 40.4496 69.9657 43.8874 68.3296C48.5194 66.1255 54.3415 68.6966 58.9322 67.521C65.4734 65.8461 71.3532 70.8053 75.1214 69.8119C78.8897 68.8186 81.9947 69.4937 80.9642 68.38C78.2588 65.4554 75.7253 63.3038 75.7253 63.3038L76.3403 56.6426L72.4873 45.0073C73.1193 44.3225 74.9372 37.1619 74.9372 37.1619C74.9372 37.1619 71.644 26.2859 68.1837 29.4058Z" fill="#9055D1"/>
<path d="M47.4404 92.4165L41.0405 72.5918L37.3843 70.2885L37.9138 66.8065L34.8843 63.5868L37.0864 61.0512L32.5352 56.731L31.1575 57.8876L34.4114 60.8596L32.4146 63.9456L34.9544 67.1667L33.9743 70.9784L39.0791 74.2917L45.5443 93.0304L47.4404 92.4165Z" fill="#786B8E"/>
<path d="M70.2333 29.1552C70.2333 29.1552 71.4988 29.6558 72.1898 30.3686C73.8966 32.1291 80.2514 33.9474 80.2514 33.9474C80.2514 33.9474 84.64 35.8335 85.4403 36.8955C86.2406 37.9572 75.0381 37.6297 75.0381 37.6297C75.0381 37.6297 70.0119 39.2628 68.8572 37.2002C65.6182 31.4136 70.2333 29.1552 70.2333 29.1552Z" fill="#9055D1"/>
<path d="M71 75.0602C71 77.9238 63.8576 81 58.0588 81C52.2598 81 50 77.9238 50 75.0602C50 72.1966 54.361 69 60.16 69C65.9591 69 71 72.1966 71 75.0602Z" fill="white"/>
<path d="M55 75.4998C55 76.3282 55.4476 77 56 77C56.5522 77 57 76.3282 57 75.4998C57 74.6714 56.5522 74 56 74C55.4476 74 55 74.6714 55 75.4998Z" fill="#050505"/>
<path d="M65 75.4998C65 76.3282 65.4474 77 65.9998 77C66.5522 77 67 76.3282 67 75.4998C67 74.6714 66.5522 74 65.9998 74C65.4474 74 65 74.6714 65 75.4998Z" fill="#050505"/>
</g>
</svg>
