<svg width="129" height="61" viewBox="0 0 129 61" fill="none" xmlns="http://www.w3.org/2000/svg">
<path d="M11.5827 49.0972C11.2114 49.4688 10.7072 49.6783 10.1809 49.6796C9.65455 49.6809 9.14926 49.4739 8.77617 49.1042C8.40307 48.7345 8.19273 48.2323 8.19141 47.7082C8.1901 47.184 8.39792 46.6808 8.76915 46.3092L33.0272 22.0349C33.3984 21.6633 33.9027 21.4538 34.429 21.4525C34.9553 21.4512 35.4606 21.6582 35.8337 22.0279C36.2068 22.3976 36.4171 22.8998 36.4185 23.4239C36.4198 23.9481 36.212 24.4513 35.8407 24.8229L11.5827 49.0972Z" fill="url(#paint0_linear_380_824)"/>
<path d="M11.5827 49.0972C11.2114 49.4688 10.7072 49.6783 10.1809 49.6796C9.65455 49.6809 9.14926 49.4739 8.77617 49.1042C8.40307 48.7345 8.19273 48.2323 8.19141 47.7082C8.1901 47.184 8.39792 46.6808 8.76915 46.3092L33.0272 22.0349C33.3984 21.6633 33.9027 21.4538 34.429 21.4525C34.9553 21.4512 35.4606 21.6582 35.8337 22.0279C36.2068 22.3976 36.4171 22.8998 36.4185 23.4239C36.4198 23.9481 36.212 24.4513 35.8407 24.8229L11.5827 49.0972Z" fill="url(#paint1_linear_380_824)"/>
<g filter="url(#filter0_ii_380_824)">
<path fill-rule="evenodd" clip-rule="evenodd" d="M40.7244 19.4188C40.6721 19.1624 40.5537 18.9266 40.3824 18.7382C40.2112 18.5498 39.9939 18.4162 39.7553 18.3525C39.1378 18.1725 38.5383 17.9283 37.9656 17.6233C37.843 17.5624 37.7392 17.4654 37.6665 17.3437C37.5938 17.222 37.5552 17.0808 37.5552 16.9365C37.5552 16.7922 37.5938 16.6509 37.6665 16.5293C37.7392 16.4076 37.843 16.3106 37.9656 16.2497C38.5384 15.9452 39.1378 15.7014 39.7553 15.5219C39.9939 15.4582 40.2112 15.3246 40.3824 15.1361C40.5537 14.9477 40.6721 14.712 40.7244 14.4556C40.8731 13.6668 41.1147 12.6926 41.4812 11.741C41.5246 11.6094 41.6053 11.4954 41.712 11.4147C41.8188 11.3341 41.9464 11.2908 42.0773 11.2908C42.2081 11.2908 42.3357 11.3341 42.4425 11.4147C42.5493 11.4954 42.6299 11.6094 42.6734 11.741C43.0398 12.6926 43.2814 13.6668 43.4288 14.4556C43.4812 14.7119 43.5997 14.9476 43.7709 15.136C43.9422 15.3244 44.1593 15.458 44.3979 15.5219C44.9383 15.6734 45.5224 15.9084 46.1796 16.2497C46.7239 16.5329 46.7239 17.34 46.1796 17.6233C45.6095 17.928 45.0128 18.1723 44.3979 18.3525C44.1595 18.4163 43.9425 18.5497 43.7713 18.7378C43.6 18.9259 43.4814 19.1613 43.4288 19.4174C43.257 20.346 43.0037 21.2554 42.672 22.1333C42.6283 22.2645 42.5476 22.378 42.441 22.4582C42.3344 22.5385 42.2071 22.5816 42.0766 22.5816C41.9461 22.5816 41.8188 22.5385 41.7122 22.4582C41.6056 22.378 41.5249 22.2645 41.4812 22.1333C41.1496 21.2554 40.8962 20.3474 40.7244 19.4188Z" fill="url(#paint2_linear_380_824)"/>
</g>
<g filter="url(#filter1_ii_380_824)">
<path fill-rule="evenodd" clip-rule="evenodd" d="M25.2579 18.1089C25.2186 17.9292 25.1295 17.764 25.0007 17.632C24.872 17.5001 24.7087 17.4066 24.5293 17.3623C24.0665 17.2367 23.6173 17.0661 23.1879 16.8531C23.096 16.8104 23.0183 16.7425 22.9638 16.6574C22.9093 16.5722 22.8804 16.4733 22.8804 16.3724C22.8804 16.2714 22.9093 16.1725 22.9638 16.0874C23.0183 16.0022 23.096 15.9343 23.1879 15.8917C23.6821 15.6529 24.123 15.4872 24.5293 15.3811C24.7085 15.3369 24.8717 15.2437 25.0004 15.112C25.1292 14.9802 25.2184 14.8153 25.2579 14.6358C25.3672 14.0828 25.5497 13.4025 25.8241 12.7341C25.8568 12.6422 25.9174 12.5627 25.9974 12.5064C26.0774 12.4501 26.173 12.4199 26.2709 12.4199C26.3689 12.4199 26.4645 12.4501 26.5445 12.5064C26.6245 12.5627 26.6851 12.6422 26.7178 12.7341C26.9922 13.4012 27.1734 14.0828 27.284 14.6358C27.3236 14.8151 27.4126 14.9798 27.5411 15.1115C27.6696 15.2432 27.8324 15.3365 28.0113 15.3811C28.4175 15.4872 28.8544 15.6516 29.3473 15.8917C29.4392 15.9343 29.517 16.0022 29.5714 16.0874C29.6259 16.1725 29.6549 16.2714 29.6549 16.3724C29.6549 16.4733 29.6259 16.5722 29.5714 16.6574C29.517 16.7425 29.4392 16.8104 29.3473 16.8531C28.9198 17.0661 28.4723 17.2366 28.0113 17.3623C27.8322 17.407 27.6693 17.5006 27.5408 17.6325C27.4123 17.7644 27.3233 17.9294 27.284 18.1089C27.1734 18.6619 26.9922 19.3422 26.7178 20.0093C26.6851 20.1012 26.6245 20.1808 26.5445 20.237C26.4645 20.2933 26.3689 20.3235 26.2709 20.3235C26.173 20.3235 26.0774 20.2933 25.9974 20.237C25.9174 20.1808 25.8568 20.1012 25.8241 20.0093C25.5759 19.3949 25.3863 18.7587 25.2579 18.1089Z" fill="url(#paint3_linear_380_824)"/>
</g>
<g filter="url(#filter2_ii_380_824)">
<path fill-rule="evenodd" clip-rule="evenodd" d="M37.6764 33.9152C37.6372 33.7357 37.5483 33.5707 37.4198 33.4388C37.2913 33.307 37.1282 33.2135 36.9491 33.169C36.4858 33.0431 36.0361 32.8722 35.6064 32.6587C35.5149 32.6159 35.4375 32.548 35.3833 32.463C35.3291 32.3781 35.3003 32.2795 35.3003 32.1788C35.3003 32.0782 35.3291 31.9796 35.3833 31.8947C35.4375 31.8097 35.5149 31.7418 35.6064 31.699C36.102 31.4604 36.5415 31.2947 36.9491 31.1887C37.1282 31.1442 37.2913 31.0507 37.4198 30.9188C37.5483 30.787 37.6372 30.6219 37.6764 30.4424C37.787 29.891 37.9695 29.2097 38.2425 28.543C38.275 28.4507 38.3356 28.3707 38.4157 28.3141C38.4959 28.2575 38.5918 28.2271 38.6901 28.2271C38.7884 28.2271 38.8843 28.2575 38.9645 28.3141C39.0447 28.3707 39.1052 28.4507 39.1377 28.543C39.4121 29.2097 39.5932 29.891 39.7038 30.4424C39.7432 30.6219 39.8321 30.7868 39.9606 30.9187C40.0891 31.0505 40.252 31.144 40.4311 31.1887C40.836 31.2947 41.2729 31.4591 41.7658 31.6977C41.8581 31.7402 41.9362 31.8081 41.9909 31.8933C42.0457 31.9786 42.0748 32.0777 42.0748 32.1788C42.0748 32.28 42.0457 32.3791 41.9909 32.4643C41.9362 32.5496 41.8581 32.6175 41.7658 32.66C41.3387 32.8726 40.8916 33.0431 40.4311 33.169C40.252 33.2136 40.0891 33.3072 39.9606 33.439C39.8321 33.5709 39.7432 33.7358 39.7038 33.9152C39.5748 34.5645 39.3852 35.2004 39.1377 35.8147C39.1052 35.907 39.0447 35.987 38.9645 36.0436C38.8843 36.1002 38.7884 36.1306 38.6901 36.1306C38.5918 36.1306 38.4959 36.1002 38.4157 36.0436C38.3356 35.987 38.275 35.907 38.2425 35.8147C37.9944 35.2006 37.8048 34.5647 37.6764 33.9152Z" fill="url(#paint4_linear_380_824)"/>
</g>
<path d="M44.8977 28.2271C45.8331 28.2271 46.5913 27.4688 46.5913 26.5335C46.5913 25.5981 45.8331 24.8398 44.8977 24.8398C43.9624 24.8398 43.2041 25.5981 43.2041 26.5335C43.2041 27.4688 43.9624 28.2271 44.8977 28.2271Z" fill="url(#paint5_radial_380_824)"/>
<path d="M44.8992 28.2271C45.8346 28.2271 46.5928 27.4688 46.5928 26.5335C46.5928 25.5981 45.8346 24.8398 44.8992 24.8398C43.9638 24.8398 43.2056 25.5981 43.2056 26.5335C43.2056 27.4688 43.9638 28.2271 44.8992 28.2271Z" fill="url(#paint6_radial_380_824)"/>
<path d="M31.3513 39.5179C32.2867 39.5179 33.045 38.7596 33.045 37.8242C33.045 36.8889 32.2867 36.1306 31.3513 36.1306C30.416 36.1306 29.6577 36.8889 29.6577 37.8242C29.6577 38.7596 30.416 39.5179 31.3513 39.5179Z" fill="url(#paint7_radial_380_824)"/>
<path d="M31.3513 39.5179C32.2867 39.5179 33.045 38.7596 33.045 37.8242C33.045 36.8889 32.2867 36.1306 31.3513 36.1306C30.416 36.1306 29.6577 36.8889 29.6577 37.8242C29.6577 38.7596 30.416 39.5179 31.3513 39.5179Z" fill="url(#paint8_radial_380_824)"/>
<path d="M22.3186 28.2271C23.254 28.2271 24.0122 27.4688 24.0122 26.5335C24.0122 25.5981 23.254 24.8398 22.3186 24.8398C21.3833 24.8398 20.625 25.5981 20.625 26.5335C20.625 27.4688 21.3833 28.2271 22.3186 28.2271Z" fill="url(#paint9_radial_380_824)"/>
<path d="M22.3186 28.2271C23.254 28.2271 24.0122 27.4688 24.0122 26.5335C24.0122 25.5981 23.254 24.8398 22.3186 24.8398C21.3833 24.8398 20.625 25.5981 20.625 26.5335C20.625 27.4688 21.3833 28.2271 22.3186 28.2271Z" fill="url(#paint10_radial_380_824)"/>
<path d="M30.7868 13.5489C31.4104 13.5489 31.9159 13.0434 31.9159 12.4199C31.9159 11.7963 31.4104 11.2908 30.7868 11.2908C30.1632 11.2908 29.6577 11.7963 29.6577 12.4199C29.6577 13.0434 30.1632 13.5489 30.7868 13.5489Z" fill="url(#paint11_radial_380_824)"/>
<path d="M30.7868 13.5489C31.4104 13.5489 31.9159 13.0434 31.9159 12.4199C31.9159 11.7963 31.4104 11.2908 30.7868 11.2908C30.1632 11.2908 29.6577 11.7963 29.6577 12.4199C29.6577 13.0434 30.1632 13.5489 30.7868 13.5489Z" fill="url(#paint12_radial_380_824)"/>
<g filter="url(#filter3_f_380_824)">
<path d="M31.9159 25.9689L10.4634 47.4214" stroke="url(#paint13_linear_380_824)" stroke-width="0.396565"/>
</g>
<path d="M30.7866 24.3856L33.1355 22.0216C33.4964 21.6585 33.9865 21.4538 34.4982 21.4525C35.0098 21.4512 35.5009 21.6535 35.8636 22.0148C36.2263 22.3761 36.4307 22.8668 36.432 23.3791C36.4333 23.8913 36.2313 24.3831 35.8704 24.7462L33.5324 27.0979L30.7866 24.3856Z" fill="#CFC9D8"/>
<path d="M30.7866 24.3856L33.1355 22.0216C33.4964 21.6585 33.9865 21.4538 34.4982 21.4525C35.0098 21.4512 35.5009 21.6535 35.8636 22.0148C36.2263 22.3761 36.4307 22.8668 36.432 23.3791C36.4333 23.8913 36.2313 24.3831 35.8704 24.7462L33.5324 27.0979L30.7866 24.3856Z" fill="url(#paint14_linear_380_824)"/>
<path d="M30.7866 24.3856L33.1355 22.0216C33.4964 21.6585 33.9865 21.4538 34.4982 21.4525C35.0098 21.4512 35.5009 21.6535 35.8636 22.0148C36.2263 22.3761 36.4307 22.8668 36.432 23.3791C36.4333 23.8913 36.2313 24.3831 35.8704 24.7462L33.5324 27.0979L30.7866 24.3856Z" fill="url(#paint15_linear_380_824)"/>
<path d="M30.7866 24.3856L33.1355 22.0216C33.4964 21.6585 33.9865 21.4538 34.4982 21.4525C35.0098 21.4512 35.5009 21.6535 35.8636 22.0148C36.2263 22.3761 36.4307 22.8668 36.432 23.3791C36.4333 23.8913 36.2313 24.3831 35.8704 24.7462L33.5324 27.0979L30.7866 24.3856Z" fill="url(#paint16_radial_380_824)"/>
<g filter="url(#filter4_i_380_824)">
<path d="M8.77391 49.1105C9.53409 49.8704 10.7672 49.8691 11.5273 49.1077L13.8505 46.7743L11.0916 44.0342L8.77116 46.3662C8.40814 46.7308 8.20456 47.2245 8.20508 47.7389C8.20559 48.2534 8.41016 48.7466 8.77391 49.1105Z" fill="#CFC6DD"/>
<path d="M8.77391 49.1105C9.53409 49.8704 10.7672 49.8691 11.5273 49.1077L13.8505 46.7743L11.0916 44.0342L8.77116 46.3662C8.40814 46.7308 8.20456 47.2245 8.20508 47.7389C8.20559 48.2534 8.41016 48.7466 8.77391 49.1105Z" fill="url(#paint17_linear_380_824)"/>
</g>
<path d="M8.77391 49.1105C9.53409 49.8704 10.7672 49.8691 11.5273 49.1077L13.8505 46.7743L11.0916 44.0342L8.77116 46.3662C8.40814 46.7308 8.20456 47.2245 8.20508 47.7389C8.20559 48.2534 8.41016 48.7466 8.77391 49.1105Z" fill="url(#paint18_linear_380_824)"/>
<path d="M8.77391 49.1105C9.53409 49.8704 10.7672 49.8691 11.5273 49.1077L13.8505 46.7743L11.0916 44.0342L8.77116 46.3662C8.40814 46.7308 8.20456 47.2245 8.20508 47.7389C8.20559 48.2534 8.41016 48.7466 8.77391 49.1105Z" fill="url(#paint19_radial_380_824)"/>
<path d="M86.4458 39.8213V43.2045H55.7367V39.8213H62.8377V31.3075C60.1609 29.7832 58.5437 27.3852 58.5623 24.3924C58.5251 19.0388 63.8044 15.5069 71.0169 15.5069C78.2666 15.5069 83.5459 19.0388 83.5459 24.3924C83.5459 27.3295 81.9844 29.6903 79.3819 31.2332V39.8213H86.4458ZM71.0169 18.7785C65.9979 18.7785 62.5775 20.8977 62.6147 24.3924C62.5775 27.85 65.9979 30.0063 71.0169 30.0063C76.0359 30.0063 79.4935 27.85 79.4935 24.3924C79.4935 20.8977 76.0359 18.7785 71.0169 18.7785ZM66.9273 39.8213H75.1808V32.7946C73.8982 33.0921 72.504 33.2408 71.0169 33.2408C69.5669 33.2408 68.1914 33.0921 66.9273 32.8318V39.8213ZM119.72 18.3696V21.7156H115.147V25.5821H119.72V29.0397H115.147V33.5382H111.02V13.6852H115.147V18.3696H119.72ZM115.147 34.9882V47.2941H111.02V38.3342H92.766V34.9882H115.147ZM98.0825 15.6184C103.25 15.5812 107.117 18.9644 107.154 23.686C107.117 28.482 103.25 31.828 98.0825 31.828C92.8776 31.828 88.9739 28.482 89.011 23.686C88.9739 18.9644 92.8776 15.5812 98.0825 15.6184ZM98.0825 19.1131C95.1826 19.1503 93.0263 20.8977 93.0634 23.686C93.0263 26.5487 95.1826 28.3333 98.0825 28.2961C100.945 28.3333 103.102 26.5487 103.102 23.686C103.102 20.8977 100.945 19.1503 98.0825 19.1131Z" fill="black"/>
<defs>
<filter id="filter0_ii_380_824" x="37.4362" y="11.1718" width="9.27065" height="11.5287" filterUnits="userSpaceOnUse" color-interpolation-filters="sRGB">
<feFlood flood-opacity="0" result="BackgroundImageFix"/>
<feBlend mode="normal" in="SourceGraphic" in2="BackgroundImageFix" result="shape"/>
<feColorMatrix in="SourceAlpha" type="matrix" values="0 0 0 0 0 0 0 0 0 0 0 0 0 0 0 0 0 0 127 0" result="hardAlpha"/>
<feOffset dx="0.11897" dy="-0.11897"/>
<feGaussianBlur stdDeviation="0.297424"/>
<feComposite in2="hardAlpha" operator="arithmetic" k2="-1" k3="1"/>
<feColorMatrix type="matrix" values="0 0 0 0 0.94902 0 0 0 0 0.513726 0 0 0 0 0.392157 0 0 0 1 0"/>
<feBlend mode="normal" in2="shape" result="effect1_innerShadow_380_824"/>
<feColorMatrix in="SourceAlpha" type="matrix" values="0 0 0 0 0 0 0 0 0 0 0 0 0 0 0 0 0 0 127 0" result="hardAlpha"/>
<feOffset dx="-0.11897" dy="0.11897"/>
<feGaussianBlur stdDeviation="0.237939"/>
<feComposite in2="hardAlpha" operator="arithmetic" k2="-1" k3="1"/>
<feColorMatrix type="matrix" values="0 0 0 0 1 0 0 0 0 0.823529 0 0 0 0 0.407843 0 0 0 1 0"/>
<feBlend mode="normal" in2="effect1_innerShadow_380_824" result="effect2_innerShadow_380_824"/>
</filter>
<filter id="filter1_ii_380_824" x="22.7614" y="12.301" width="7.01235" height="8.1415" filterUnits="userSpaceOnUse" color-interpolation-filters="sRGB">
<feFlood flood-opacity="0" result="BackgroundImageFix"/>
<feBlend mode="normal" in="SourceGraphic" in2="BackgroundImageFix" result="shape"/>
<feColorMatrix in="SourceAlpha" type="matrix" values="0 0 0 0 0 0 0 0 0 0 0 0 0 0 0 0 0 0 127 0" result="hardAlpha"/>
<feOffset dx="0.11897" dy="-0.11897"/>
<feGaussianBlur stdDeviation="0.297424"/>
<feComposite in2="hardAlpha" operator="arithmetic" k2="-1" k3="1"/>
<feColorMatrix type="matrix" values="0 0 0 0 0.94902 0 0 0 0 0.513726 0 0 0 0 0.392157 0 0 0 1 0"/>
<feBlend mode="normal" in2="shape" result="effect1_innerShadow_380_824"/>
<feColorMatrix in="SourceAlpha" type="matrix" values="0 0 0 0 0 0 0 0 0 0 0 0 0 0 0 0 0 0 127 0" result="hardAlpha"/>
<feOffset dx="-0.11897" dy="0.11897"/>
<feGaussianBlur stdDeviation="0.237939"/>
<feComposite in2="hardAlpha" operator="arithmetic" k2="-1" k3="1"/>
<feColorMatrix type="matrix" values="0 0 0 0 1 0 0 0 0 0.823529 0 0 0 0 0.407843 0 0 0 1 0"/>
<feBlend mode="normal" in2="effect1_innerShadow_380_824" result="effect2_innerShadow_380_824"/>
</filter>
<filter id="filter2_ii_380_824" x="35.1813" y="28.1081" width="7.01235" height="8.1415" filterUnits="userSpaceOnUse" color-interpolation-filters="sRGB">
<feFlood flood-opacity="0" result="BackgroundImageFix"/>
<feBlend mode="normal" in="SourceGraphic" in2="BackgroundImageFix" result="shape"/>
<feColorMatrix in="SourceAlpha" type="matrix" values="0 0 0 0 0 0 0 0 0 0 0 0 0 0 0 0 0 0 127 0" result="hardAlpha"/>
<feOffset dx="0.11897" dy="-0.11897"/>
<feGaussianBlur stdDeviation="0.297424"/>
<feComposite in2="hardAlpha" operator="arithmetic" k2="-1" k3="1"/>
<feColorMatrix type="matrix" values="0 0 0 0 0.94902 0 0 0 0 0.513726 0 0 0 0 0.392157 0 0 0 1 0"/>
<feBlend mode="normal" in2="shape" result="effect1_innerShadow_380_824"/>
<feColorMatrix in="SourceAlpha" type="matrix" values="0 0 0 0 0 0 0 0 0 0 0 0 0 0 0 0 0 0 127 0" result="hardAlpha"/>
<feOffset dx="-0.11897" dy="0.11897"/>
<feGaussianBlur stdDeviation="0.237939"/>
<feComposite in2="hardAlpha" operator="arithmetic" k2="-1" k3="1"/>
<feColorMatrix type="matrix" values="0 0 0 0 1 0 0 0 0 0.823529 0 0 0 0 0.407843 0 0 0 1 0"/>
<feBlend mode="normal" in2="effect1_innerShadow_380_824" result="effect2_innerShadow_380_824"/>
</filter>
<filter id="filter3_f_380_824" x="9.92668" y="25.432" width="22.526" height="22.5262" filterUnits="userSpaceOnUse" color-interpolation-filters="sRGB">
<feFlood flood-opacity="0" result="BackgroundImageFix"/>
<feBlend mode="normal" in="SourceGraphic" in2="BackgroundImageFix" result="shape"/>
<feGaussianBlur stdDeviation="0.198283" result="effect1_foregroundBlur_380_824"/>
</filter>
<filter id="filter4_i_380_824" x="8.12577" y="43.6376" width="5.72482" height="6.04195" filterUnits="userSpaceOnUse" color-interpolation-filters="sRGB">
<feFlood flood-opacity="0" result="BackgroundImageFix"/>
<feBlend mode="normal" in="SourceGraphic" in2="BackgroundImageFix" result="shape"/>
<feColorMatrix in="SourceAlpha" type="matrix" values="0 0 0 0 0 0 0 0 0 0 0 0 0 0 0 0 0 0 127 0" result="hardAlpha"/>
<feOffset dx="-0.0793131" dy="-0.396565"/>
<feGaussianBlur stdDeviation="0.396565"/>
<feComposite in2="hardAlpha" operator="arithmetic" k2="-1" k3="1"/>
<feColorMatrix type="matrix" values="0 0 0 0 0.698039 0 0 0 0 0.619608 0 0 0 0 0.792157 0 0 0 1 0"/>
<feBlend mode="normal" in2="shape" result="effect1_innerShadow_380_824"/>
</filter>
<linearGradient id="paint0_linear_380_824" x1="32.0618" y1="26.1756" x2="12.4122" y2="46.3454" gradientUnits="userSpaceOnUse">
<stop stop-color="#60105F"/>
<stop offset="1" stop-color="#54155E"/>
</linearGradient>
<linearGradient id="paint1_linear_380_824" x1="12.7895" y1="41.6137" x2="14.8425" y2="43.6527" gradientUnits="userSpaceOnUse">
<stop stop-color="#523253"/>
<stop offset="1" stop-color="#523253" stop-opacity="0"/>
</linearGradient>
<linearGradient id="paint2_linear_380_824" x1="45.3193" y1="14.2814" x2="39.7175" y2="19.5374" gradientUnits="userSpaceOnUse">
<stop stop-color="#FFD459"/>
<stop offset="1" stop-color="#FFA271"/>
</linearGradient>
<linearGradient id="paint3_linear_380_824" x1="28.7026" y1="14.5125" x2="24.7733" y2="18.4632" gradientUnits="userSpaceOnUse">
<stop stop-color="#FFD465"/>
<stop offset="1" stop-color="#FFAF36"/>
</linearGradient>
<linearGradient id="paint4_linear_380_824" x1="41.1211" y1="30.3205" x2="37.1937" y2="34.2712" gradientUnits="userSpaceOnUse">
<stop stop-color="#FFD465"/>
<stop offset="1" stop-color="#FFAF36"/>
</linearGradient>
<radialGradient id="paint5_radial_380_824" cx="0" cy="0" r="1" gradientUnits="userSpaceOnUse" gradientTransform="translate(45.6477 25.868) rotate(127.823) scale(2.55644 2.39103)">
<stop stop-color="#FFD463"/>
<stop offset="1" stop-color="#E68F2B"/>
</radialGradient>
<radialGradient id="paint6_radial_380_824" cx="0" cy="0" r="1" gradientUnits="userSpaceOnUse" gradientTransform="translate(44.8992 25.4153) rotate(90) scale(2.81182 2.45115)">
<stop offset="0.797" stop-color="#E37A42" stop-opacity="0"/>
<stop offset="1" stop-color="#E37A42"/>
</radialGradient>
<radialGradient id="paint7_radial_380_824" cx="0" cy="0" r="1" gradientUnits="userSpaceOnUse" gradientTransform="translate(32.1027 37.1574) rotate(127.823) scale(2.55644 2.39103)">
<stop stop-color="#FFD463"/>
<stop offset="1" stop-color="#E68F2B"/>
</radialGradient>
<radialGradient id="paint8_radial_380_824" cx="0" cy="0" r="1" gradientUnits="userSpaceOnUse" gradientTransform="translate(31.3513 36.7061) rotate(90) scale(2.81182 2.45115)">
<stop offset="0.797" stop-color="#E37A42" stop-opacity="0"/>
<stop offset="1" stop-color="#E37A42"/>
</radialGradient>
<radialGradient id="paint9_radial_380_824" cx="0" cy="0" r="1" gradientUnits="userSpaceOnUse" gradientTransform="translate(23.0687 25.8685) rotate(127.823) scale(2.55683 2.39139)">
<stop stop-color="#FFD463"/>
<stop offset="1" stop-color="#E68F2B"/>
</radialGradient>
<radialGradient id="paint10_radial_380_824" cx="0" cy="0" r="1" gradientUnits="userSpaceOnUse" gradientTransform="translate(22.3186 25.4148) rotate(90) scale(2.81224 2.45151)">
<stop offset="0.797" stop-color="#E37A42" stop-opacity="0"/>
<stop offset="1" stop-color="#E37A42"/>
</radialGradient>
<radialGradient id="paint11_radial_380_824" cx="0" cy="0" r="1" gradientUnits="userSpaceOnUse" gradientTransform="translate(31.2867 11.9755) rotate(127.823) scale(1.70421 1.59393)">
<stop stop-color="#FFD463"/>
<stop offset="1" stop-color="#E68F2B"/>
</radialGradient>
<radialGradient id="paint12_radial_380_824" cx="0" cy="0" r="1" gradientUnits="userSpaceOnUse" gradientTransform="translate(30.7868 11.6751) rotate(90) scale(1.87444 1.63401)">
<stop offset="0.869" stop-color="#E37A42" stop-opacity="0"/>
<stop offset="1" stop-color="#E37A42"/>
</radialGradient>
<linearGradient id="paint13_linear_380_824" x1="30.8105" y1="27.5109" x2="10.5476" y2="47.5054" gradientUnits="userSpaceOnUse">
<stop stop-color="#692167"/>
<stop offset="1" stop-color="#5B2460"/>
</linearGradient>
<linearGradient id="paint14_linear_380_824" x1="31.6692" y1="23.3368" x2="33.0375" y2="24.6298" gradientUnits="userSpaceOnUse">
<stop stop-color="#C1BFC3"/>
<stop offset="1" stop-color="#C1BFC3" stop-opacity="0"/>
</linearGradient>
<linearGradient id="paint15_linear_380_824" x1="35.1816" y1="25.877" x2="34.328" y2="24.9821" gradientUnits="userSpaceOnUse">
<stop stop-color="#B0A1BF"/>
<stop offset="1" stop-color="#B0A1BF" stop-opacity="0"/>
</linearGradient>
<radialGradient id="paint16_radial_380_824" cx="0" cy="0" r="1" gradientUnits="userSpaceOnUse" gradientTransform="translate(35.6931 22.0995) rotate(133.904) scale(1.62895 1.96791)">
<stop offset="0.21" stop-color="#ECE8F2"/>
<stop offset="1" stop-color="#ECE8F2" stop-opacity="0"/>
</radialGradient>
<linearGradient id="paint17_linear_380_824" x1="9.66056" y1="45.2078" x2="11.0265" y2="46.5728" gradientUnits="userSpaceOnUse">
<stop stop-color="#A8A6AD"/>
<stop offset="1" stop-color="#A8A6AD" stop-opacity="0"/>
</linearGradient>
<linearGradient id="paint18_linear_380_824" x1="8.73405" y1="49.5434" x2="9.80861" y2="48.2114" gradientUnits="userSpaceOnUse">
<stop stop-color="#968FA1"/>
<stop offset="1" stop-color="#968FA1" stop-opacity="0"/>
</linearGradient>
<radialGradient id="paint19_radial_380_824" cx="0" cy="0" r="1" gradientUnits="userSpaceOnUse" gradientTransform="translate(11.027 44.2609) rotate(98.4753) scale(6.66467 6.80581)">
<stop offset="0.661" stop-color="#8F6EAF" stop-opacity="0"/>
<stop offset="0.918" stop-color="#8F6EAF"/>
</radialGradient>
</defs>
</svg>
