<svg width="520" height="440" viewBox="0 0 520 440" fill="none" xmlns="http://www.w3.org/2000/svg">
<g clip-path="url(#clip0_411_897)">
<path d="M294.246 41.8145C300.609 45.045 306.571 48.6288 311.977 52.4466C330.876 65.7856 346.079 85.201 364.65 98.5797C382.186 111.212 403.602 114.284 423.669 116.393C458.647 120.074 531.6 155.371 518.429 220.794C513.636 244.603 496.736 260.774 488.083 282.332C478.879 305.267 479.846 333.872 465.191 353.755C458.744 362.497 449.845 368.271 440.708 372.645C379.905 401.743 311.624 400.392 247.149 397.183C196.262 394.652 114.529 408.031 69.8308 375.36C47.6393 359.137 59.1791 314.792 43.8235 290.976C30.9192 270.963 13.3567 257.82 4.72992 232.767C-9.94971 190.137 10.9751 134.663 47.6164 119.53C70.512 110.075 94.7679 105.742 117.398 95.3576C140.782 84.6241 149.792 68.5469 167.623 49.5213C199.86 15.1282 254.726 21.7271 294.246 41.8145Z" fill="#F3D2FF"/>
<path d="M247.735 277.625C247.735 277.625 235.269 245.378 238.712 213.536C238.712 213.537 264.291 247.817 247.735 277.625ZM398.578 199.053C398.578 199.053 407.795 258.925 405.883 260.047C405.883 260.047 375.015 212.083 398.578 199.053Z" fill="#C874FF"/>
<path d="M397.977 206.377L397.14 205.87C397.273 206.614 399.434 209.111 401.408 210.179C402.246 210.64 403.212 210.934 404.251 210.891C404.696 210.876 405.136 210.801 405.561 210.667C405.922 210.298 406.363 209.434 406.778 208.397C406.785 208.387 406.785 208.373 406.792 208.365C406.892 208.103 406.989 207.84 407.085 207.576C407.346 206.863 407.571 206.138 407.761 205.403C407.784 205.327 407.797 205.252 407.822 205.185C408.077 204.147 408.213 203.252 408.123 202.786C408.097 202.67 408.04 202.564 407.959 202.478C407.816 202.304 407.577 202.146 407.278 201.995C406.837 201.785 406.252 201.611 405.632 201.46L405.624 201.459C405.191 201.354 404.742 201.263 404.3 201.195C404.265 201.186 404.23 201.178 404.195 201.172C403.821 201.111 403.462 201.059 403.132 201.011C402.952 200.99 402.788 200.974 402.631 200.951C402.077 200.89 401.68 200.859 401.604 200.859C401.276 200.868 397.779 205.196 397.977 206.377Z" fill="#EBBA7F"/>
<path d="M400.661 182.67C400.678 182.586 400.678 182.554 400.678 182.554C401.159 183.772 406.742 189.465 407.09 189.815L407.107 189.831L410.463 181.935L409.665 190.482V190.499H409.682C410.148 190.383 418.155 188.43 418.818 188.229H418.836C419.656 187.039 420.206 185.683 420.447 184.256C420.7 182.76 420.615 181.225 420.198 179.765C419.167 176.21 416.196 173.356 412.325 172.687C408.287 171.985 404.4 173.838 402.292 177.077C401.541 178.216 401.037 179.502 400.812 180.849C400.712 181.469 400.661 182.069 400.661 182.67Z" fill="#FFB155"/>
<path d="M385.765 218.701L388.393 216.345L391.354 213.707L398.402 207.406C398.402 207.406 401.914 206.844 402.636 202.47C402.682 202.173 402.719 201.875 402.746 201.552C402.797 201.649 402.858 201.741 402.926 201.827C403.207 202.21 403.593 202.501 404.037 202.667L404.058 202.67L404.085 202.674L404.111 202.677L404.132 202.678C404.146 202.68 404.146 202.68 404.158 202.695C404.537 202.851 404.943 202.93 405.353 202.929C406.175 202.957 407.001 202.754 407.537 202.468C407.833 202.304 408.058 202.105 408.131 201.901C408.206 201.696 408.064 201.427 407.76 201.151C407.007 200.441 405.27 199.611 403.448 199.349C402.382 199.169 401.276 199.209 400.332 199.57C397.145 200.8 397.362 203.001 397.362 203.001L390.515 208.784L390.332 208.938L390.207 209.035L390.205 209.049L386.678 212.021L386.677 212.035C386.664 212.133 386.556 212.824 386.39 213.973C386.288 214.715 386.15 215.641 386.014 216.743C385.928 217.348 385.849 218.006 385.765 218.701Z" fill="#FFD9AC"/>
<path d="M291.559 157.954C291.923 157.224 292.38 156.543 292.917 155.93C293.086 156.08 293.264 156.231 293.439 156.382C293.546 156.487 293.663 156.578 293.772 156.675C293.785 156.682 293.797 156.692 293.807 156.703C293.84 156.737 293.877 156.767 293.917 156.793C293.943 156.819 293.968 156.846 293.999 156.863C294.045 156.9 294.09 156.938 294.133 156.979C294.248 157.078 294.371 157.176 294.489 157.273C294.597 157.364 294.706 157.455 294.816 157.544C294.859 157.572 294.898 157.608 294.939 157.642L295.351 157.969C295.367 157.981 295.382 157.993 295.397 158.005L295.404 158.013C295.557 158.131 295.7 158.24 295.845 158.359C295.947 158.431 296.051 158.513 296.148 158.586C296.265 158.676 296.38 158.759 296.491 158.849C296.602 158.932 296.713 159.015 296.83 159.096C297.061 159.272 297.299 159.445 297.525 159.61L297.836 159.832C297.948 159.912 298.062 159.989 298.177 160.064C298.349 160.195 298.531 160.315 298.706 160.429C298.876 160.556 299.051 160.669 299.232 160.783C299.392 160.895 299.56 161.008 299.722 161.11C299.756 161.131 299.791 161.15 299.826 161.178C300.155 161.386 300.489 161.596 300.819 161.798C301.165 162.018 301.515 162.232 301.868 162.439C302.024 162.527 302.185 162.623 302.333 162.711C302.382 162.732 302.426 162.76 302.466 162.78C302.541 162.829 302.619 162.875 302.698 162.916C302.733 162.936 302.768 162.956 302.797 162.976C302.93 163.046 303.064 163.123 303.2 163.201C303.335 163.271 303.467 163.349 303.602 163.42C303.868 163.567 304.138 163.716 304.407 163.856C304.612 163.966 304.818 164.068 305.022 164.178C305.12 164.227 305.221 164.271 305.314 164.321C305.482 164.411 305.662 164.493 305.831 164.576L306.249 164.789C306.393 164.853 306.533 164.924 306.677 164.995L306.692 164.996C306.869 165.081 307.054 165.171 307.239 165.257C307.788 165.512 308.341 165.759 308.897 165.998L309.005 166.043L309.369 166.204C309.491 166.256 309.61 166.302 309.734 166.356C310.191 166.55 310.652 166.739 311.111 166.918C311.255 166.974 311.407 167.033 311.548 167.096L311.557 167.097C311.894 167.224 312.232 167.357 312.571 167.483C312.743 167.551 312.921 167.619 313.096 167.679C313.235 167.728 313.378 167.783 313.515 167.831L313.524 167.832C316.429 168.893 319.293 169.775 322.066 170.622C322.161 170.656 322.254 170.685 322.342 170.71L322.35 170.712C325.022 171.531 327.607 172.315 330.093 173.202C330.618 173.39 331.145 173.586 331.663 173.79C331.974 173.906 332.276 174.028 332.57 174.14C332.762 174.225 332.962 174.312 333.17 174.399C333.198 174.408 333.225 174.421 333.248 174.439C333.314 174.464 333.379 174.493 333.442 174.525C333.698 174.641 333.957 174.765 334.204 174.88C334.34 174.95 334.467 175.012 334.595 175.074L334.667 175.105L334.673 175.108C334.775 175.158 334.879 175.216 334.972 175.259C335.18 175.346 335.385 175.441 335.578 175.534C335.617 175.547 335.655 175.565 335.691 175.586C335.805 175.637 335.918 175.698 336.033 175.751C336.117 175.799 336.21 175.841 336.294 175.89C336.364 175.929 336.442 175.976 336.52 176.018C336.585 176.048 336.647 176.087 336.709 176.125C336.815 176.192 336.918 176.25 337.017 176.316C337.108 176.365 337.193 176.421 337.277 176.477C337.358 176.531 337.439 176.588 337.519 176.645C337.559 176.671 337.597 176.698 337.635 176.727C337.713 176.776 337.781 176.829 337.851 176.883L338.114 177.078C338.202 177.15 338.277 177.212 338.366 177.283C338.395 177.299 338.421 177.321 338.441 177.347C338.456 177.357 338.469 177.372 338.482 177.382C338.542 177.425 338.599 177.473 338.652 177.525C338.674 177.535 338.693 177.551 338.707 177.57C338.803 177.643 338.892 177.723 338.971 177.801L339.027 177.845C339.114 177.932 339.21 178.013 339.296 178.099C339.594 178.373 339.881 178.659 340.172 178.939C340.272 179.042 340.372 179.139 340.471 179.243C340.627 179.392 340.773 179.546 340.929 179.696C341.021 179.783 341.108 179.876 341.203 179.965C341.297 180.053 341.391 180.14 341.487 180.236C341.641 180.378 341.805 180.519 341.968 180.67C342.138 180.813 342.309 180.964 342.487 181.108C342.658 181.252 342.834 181.391 343.014 181.524C343.417 181.826 343.831 182.114 344.255 182.387C344.269 182.396 344.275 182.405 344.29 182.414C346.191 184.015 347.993 185.631 348.455 186.638C348.345 186.792 348.22 186.951 348.079 187.107C347.436 187.843 346.473 188.646 345.03 189.258C342.446 190.36 338.359 190.877 331.906 189.47C330.817 189.232 329.736 188.962 328.664 188.661C328.206 188.527 327.733 188.391 327.253 188.245C327.116 188.199 326.98 188.149 326.832 188.109C326.682 188.059 326.534 188.017 326.381 187.967C326.152 187.892 325.926 187.817 325.695 187.736C325.512 187.683 325.323 187.62 325.145 187.552C325.015 187.506 324.884 187.466 324.747 187.418C324.559 187.348 324.362 187.285 324.168 187.216C323.959 187.144 323.751 187.065 323.54 186.991C323.475 186.968 323.417 186.945 323.352 186.923C320.469 185.863 317.266 184.514 313.714 182.825C309.264 180.968 305.478 178.982 302.349 176.945C301.974 176.699 301.603 176.455 301.241 176.212L301.076 176.099C301.076 176.093 301.061 176.09 301.063 176.083C300.881 175.961 300.715 175.842 300.542 175.722C300.53 175.712 300.519 175.712 300.507 175.701C300.342 175.583 300.182 175.464 300.025 175.345C299.935 175.28 299.852 175.225 299.768 175.161L299.515 174.969C299.349 174.841 299.184 174.715 299.027 174.588C298.834 174.442 298.656 174.299 298.473 174.153C298.114 173.863 297.761 173.565 297.415 173.26C292.674 169.121 290.464 164.919 290.684 161.203C290.752 160.071 291.049 158.965 291.559 157.954ZM335.144 397.505C335.144 397.505 337.016 401.022 338.241 402.415C339.466 403.812 350.444 408.221 350.47 412.363C350.496 416.859 336.276 413.693 333.17 413.531C330.069 413.366 329.833 410.966 328.525 408.424C327.224 405.881 325.903 406.309 325.658 404.259C325.415 402.206 326.925 397.505 326.925 397.505H335.144ZM287.899 397.094C287.899 397.094 284.076 401.387 280.195 402.287C276.309 403.184 270.505 404.541 270.473 407.004C270.445 409.469 284.736 410.88 289.181 408.396C295.811 404.691 296.484 405.808 297.221 403.959C297.956 402.106 296.339 397.154 296.383 396.565C296.445 395.838 287.899 397.094 287.899 397.094Z" fill="#C874FF"/>
<path d="M288.329 395.044C288.329 395.044 287.822 397.056 287.899 397.094C287.977 397.14 296.648 398.177 296.384 396.566C296.173 395.257 295.869 393.834 295.869 393.834L288.329 395.044ZM327.031 396.153C327.031 396.153 326.666 398.068 326.739 398.115C326.809 398.161 335.531 399.728 335.482 398.133C335.447 396.87 334.679 395.396 334.679 395.396L327.031 396.153Z" fill="#C874FF"/>
<path d="M315.023 201.286C317.689 201.648 322.12 201.279 325.151 199.098C325.151 199.098 325.159 198.685 325.219 197.857C325.355 195.992 325.756 192.019 326.918 185.897C327.361 183.535 313.258 192.125 313.258 192.125C313.258 192.125 313.302 192.953 313.324 194.072C313.338 194.659 313.356 195.329 313.348 196.005C313.348 196.239 313.338 196.473 313.338 196.712C313.324 197.336 313.297 197.932 313.251 198.442C313.228 198.608 313.185 198.827 313.124 199.052C313.011 199.503 312.847 199.976 312.777 200.144C312.57 200.632 313.512 201.075 315.023 201.286ZM231.018 214.508C231.018 214.508 221.726 215.597 221.204 216.194C220.682 216.793 220.807 217.3 221.679 217.234C222.557 217.168 230.706 216.443 230.706 216.443C230.706 216.443 220.055 219.602 219.515 219.993C219.197 220.221 219.377 221.21 219.856 221.219C220.328 221.228 231.105 218.715 231.105 218.715C231.105 218.715 221.171 221.684 220.821 222.151C220.517 222.561 220.912 223.443 221.668 223.274C222.424 223.106 231.839 220.884 231.839 220.884C231.839 220.884 224.772 223.513 224.724 224.099C224.695 224.454 224.814 225.316 226.613 224.579C228.409 223.843 232.863 222.564 232.863 222.564L231.018 214.508Z" fill="#F1CB9E"/>
<path d="M242.002 214.947C242.002 214.947 238.91 215.109 237.965 213.537C237.16 212.199 235.194 210.987 234.59 210.613C233.784 210.112 231.813 207.687 231.242 208.66C230.671 209.635 234.311 212.803 234.952 213.61C235.594 214.417 231.135 214.124 230.322 214.71C229.505 215.299 229.951 222.714 233.01 222.561C236.07 222.409 239.097 220.212 239.648 220.294C240.196 220.377 241.882 220.273 241.882 220.273L242.002 214.947ZM305.829 170.387C305.829 170.387 302.728 176.163 304.265 177.062C305.533 177.804 302.775 183.467 302.415 184.394C302.054 185.322 304.716 185.992 305.282 186.59C305.843 187.183 307.52 194.517 309.71 194.739C311.898 194.961 321.77 191.512 324.456 188.701C327.145 185.892 329.35 173.208 327.554 167.86C325.762 162.508 311.296 160.302 305.829 170.387Z" fill="#F1CB9E"/>
<path d="M304.663 172.908C304.663 172.908 301.324 163.334 306.799 161.475C313.773 159.105 324.133 164.271 325.33 164.581C326.522 164.889 333.296 165.357 329.877 177.314C326.941 187.579 326.529 188.012 326.529 188.012C326.529 188.012 324.335 182.066 323.095 181.159C321.153 179.744 316.897 180.083 316.897 180.083C316.897 180.083 318.926 174.675 315.758 173.909C312.592 173.144 312.204 177.728 304.663 172.908Z" fill="#3B0B70"/>
<path d="M320.273 176.986C320.552 176.243 321.454 173.055 324.179 174.927C326.901 176.799 322.482 182.811 322.007 182.887C321.532 182.966 317.923 183.228 320.273 176.986Z" fill="#EEBE86"/>
<path d="M313.346 196.004C313.346 196.24 313.343 196.475 313.337 196.71C321.408 193.988 322.968 189.891 322.968 189.891C320.455 191.679 313.326 194.068 313.326 194.068C313.346 194.713 313.353 195.358 313.346 196.004Z" fill="#9055D1"/>
<path d="M401.454 252.028C400.795 254.246 400.996 257.624 401.317 261.241C405.172 261.655 405.884 260.047 405.884 260.047C404.971 258.821 403.699 254.534 402.352 248.899C402.058 249.959 401.75 251.005 401.454 252.028Z" fill="#C874FF"/>
<path d="M243.993 225.258C250.009 243.846 246.836 267.389 247.809 271.298C249.008 276.114 247.734 277.625 247.734 277.625C253.318 278.89 257.091 276.964 260.797 273.758C261.125 273.481 261.444 273.192 261.753 272.893C266.627 268.245 270.032 261.528 272.615 257.587C274.051 255.4 276.709 252.782 279.688 250.209C280.386 249.606 281.092 249.014 281.807 248.433C288.01 243.363 294.725 238.91 294.725 238.91L293.678 251.238C293.678 251.238 288.392 286.628 285.038 330.607C284.149 351.751 283.002 370.811 282.488 382.16C282.479 382.199 282.479 382.237 282.479 382.274C282.412 385.848 282.375 389.412 282.366 392.956C282.391 393.01 282.424 393.061 282.464 393.105C282.464 394.485 282.472 395.814 282.488 395.814C286.684 394.632 292.801 395.383 292.981 395.393C292.996 395.398 293.012 395.414 293.026 395.428C294.412 396.338 311.14 397.031 316.043 397.123C320.375 397.198 328.676 396.083 331.334 395.745C331.716 395.693 331.986 395.662 332.105 395.647C332.702 395.586 336.161 395.737 339.358 395.805H339.582C341.431 395.834 343.167 395.834 344.186 395.744C346.97 395.488 348.026 388.63 348.026 388.63C348.504 390.056 350.747 394.323 351.355 395.467C351.453 395.647 351.503 395.744 351.503 395.744C355.204 395.616 357.884 395.322 358.556 394.757C359.177 394.222 358.586 388.116 357.352 379.248V379.239C357.323 373.711 354.015 333.162 351.102 298.358C349.343 277.306 347.725 258.35 347.068 250.512L349.801 237.205C349.801 237.205 351.656 238.409 354.246 240.086C355.06 240.613 355.953 241.184 356.871 241.787C358.778 243.025 360.682 244.266 362.585 245.511C363.61 246.18 365.167 247.023 367.091 247.969C375.189 251.963 389.612 257.823 396.32 260.028C397.929 255.1 396.385 246.915 398.25 244.608C399.065 243.6 399.635 241.327 400.047 238.387C399.049 233.496 398.128 228.588 397.285 223.667C396.469 218.906 395.825 214.687 395.496 211.791C395.399 210.895 395.325 210.128 395.279 209.504C395.19 208.187 395.204 207.021 395.294 206.006C395.607 202.388 396.858 200.552 397.72 199.704C398.213 199.213 398.58 199.049 398.58 199.049C398.58 199.049 398.093 198.673 397.211 198.59C395.774 198.455 393.258 199.056 389.988 203.17C387.51 206.285 383.319 210.467 379.411 214.123C375.557 217.733 371.978 220.817 370.615 221.839C370.407 222.005 370.242 222.111 370.153 222.163C361.276 216.68 352.009 209.768 344.569 205.178C341.995 203.592 339.643 202.283 337.593 201.402C335.303 200.426 326.321 197.746 326.321 197.746L325.222 197.852C325.161 198.679 325.153 199.093 325.153 199.093C322.122 201.273 317.691 201.643 315.025 201.281C313.513 201.071 312.571 200.626 312.779 200.138C312.917 199.782 313.033 199.418 313.126 199.047L312.093 199.144L311.921 199.16C305.641 200.387 299.51 204.169 293.059 208.126C280.491 215.828 272.153 226.495 269.693 226.661C267.344 225.229 264.973 223.835 262.581 222.477C261.318 221.763 260.046 221.066 258.765 220.387C241.376 211.112 238.225 213.505 238.225 213.505C240.736 216.962 242.607 220.978 243.993 225.258Z" fill="#8A2AF4"/>
<path d="M292.973 395.425C292.99 395.425 293.012 395.425 293.026 395.431C293.012 395.416 292.997 395.4 292.981 395.396C292.982 395.401 292.973 395.417 292.973 395.425Z" fill="url(#paint0_linear_411_897)"/>
<path d="M406.281 212.611C406.281 212.611 401.721 269.329 397.023 279.102C397.327 279.102 395.078 281.607 395.078 281.607L385.786 329.593C385.786 329.593 382.292 331.737 380.547 327.721C380.799 327.972 389.09 281.097 390.091 278.842C391.092 276.585 393.226 275.708 394.164 270.382C395.098 265.058 401.938 214.097 402.126 212.124C402.318 210.149 406.281 212.611 406.281 212.611Z" fill="#3B0B70"/>
<path d="M292.916 155.93C293.459 156.547 294.016 157.151 294.585 157.743C294.73 157.882 294.875 158.03 295.017 158.177C295.191 158.35 295.371 158.525 295.552 158.701L295.581 158.735C295.748 158.892 295.916 159.05 296.077 159.209C297.125 160.195 298.218 161.134 299.351 162.021C299.806 162.369 300.266 162.711 300.73 163.048C300.973 163.222 301.219 163.399 301.466 163.566C301.723 163.734 301.979 163.912 302.243 164.09C302.515 164.27 302.788 164.44 303.06 164.611C303.185 164.688 303.326 164.782 303.451 164.859C303.593 164.938 303.717 165.021 303.859 165.1C304.125 165.262 304.392 165.419 304.652 165.574L305.457 166.016C305.498 166.044 305.535 166.057 305.568 166.084C307.491 167.119 309.473 168.038 311.505 168.837C311.771 168.938 312.045 169.05 312.326 169.154C319.373 171.828 326.287 173.075 332.306 175.46C332.846 175.672 333.359 175.905 333.856 176.157C334.056 176.251 334.247 176.351 334.437 176.459C334.8 176.612 335.156 176.78 335.506 176.961C338.796 178.692 345.747 184.273 348.459 186.643C347.997 185.635 346.194 184.019 344.294 182.418C344.28 182.409 344.273 182.401 344.259 182.391C342.894 181.247 341.483 180.119 340.476 179.247C340.253 179.052 340.051 178.866 339.874 178.701C339.382 178.243 338.924 177.806 338.486 177.385C338.473 177.375 338.46 177.36 338.445 177.35C335.324 174.358 333.612 172.494 333.439 171.774C333.119 170.475 336.2 165.394 336.344 165.161C336.368 165.194 336.547 165.514 336.84 165.992C337.84 167.642 340.082 171.281 341.297 172.588C342.739 174.122 342.546 173.583 343.262 174.312C343.342 174.388 343.445 174.434 343.555 174.44C348.49 169.193 340.686 151.516 335.797 146.992C335.6 146.816 335.415 146.663 335.226 146.541C325.273 140.47 318.422 149.899 313.429 156.093C312.11 157.729 310.933 159.134 309.85 159.981C304.663 164.041 292.916 155.93 292.916 155.93Z" fill="#8A2AF4"/>
<path d="M402.738 207.794C402.472 208.678 402.272 210.198 402.123 212.118C402.97 212.586 403.934 212.886 404.964 212.836C405.578 213.37 405.679 213.904 406.409 213.753C406.577 212.685 407.49 211.466 407.655 210.415V210.365C407.722 210.082 407.756 209.796 407.804 209.53C407.937 208.778 408.053 208.06 408.187 207.326C408.187 207.259 408.203 207.192 408.219 207.126C408.369 206.207 408.535 205.306 408.685 204.421C408.701 204.238 408.751 204.053 408.767 203.886C408.849 203.503 408.9 203.118 408.967 202.751L409.166 201.616C409.465 199.964 409.747 198.444 409.981 197.076C410.063 196.626 410.146 196.191 410.212 195.791C410.279 195.49 410.329 195.206 410.38 194.939C410.495 194.288 410.595 193.703 410.695 193.186C413.202 192.669 416.958 191.365 418.867 188.211C418.867 188.211 418.851 188.211 418.835 188.228H418.817C418.154 188.429 410.147 190.382 409.681 190.498H409.664V190.481L410.462 181.934L407.106 189.83L407.089 189.814C406.741 189.464 401.158 183.772 400.677 182.553C400.677 182.553 400.677 182.586 400.66 182.669V182.719C400.593 183.687 400.527 188.762 405.611 192.184C405.562 192.5 405.511 192.835 405.461 193.186C405.395 193.703 405.311 194.271 405.212 194.872C405.146 195.389 405.062 195.923 404.98 196.474C404.813 197.46 404.647 198.478 404.481 199.496C404.299 200.513 404.133 201.532 403.951 202.501L403.85 202.952C403.486 204.839 403.103 206.559 402.738 207.794Z" fill="#3B0B70"/>
<path d="M410.427 207.182C410.117 208.658 408.318 208.183 406.57 207.487C405.159 206.925 403.693 206.386 403.768 205.275C403.935 202.794 410.959 204.652 410.427 207.182Z" fill="#FFD9AC"/>
<path d="M409.611 208.861C408.812 211.622 403.283 208.403 403.703 207.039C404.118 205.674 410.336 206.367 409.611 208.861Z" fill="#FFD9AC"/>
<path d="M408.711 211.148C408.021 213.527 403.26 210.754 403.622 209.578C403.979 208.402 409.334 209 408.711 211.148ZM411.053 204.82C410.251 207.582 404.724 204.363 405.145 202.998C405.561 201.633 411.779 202.328 411.053 204.82Z" fill="#FFD9AC"/>
<path d="M156.787 271.022C155.658 271.048 177.73 275.062 171.667 280.719C165.602 286.377 133.094 281.738 130.397 290.881C127.696 300.028 150.156 303.7 151.166 306.559C152.18 309.415 99.6112 303.822 109.055 324.871C115.326 338.854 119.74 338.301 131.336 339.114C142.93 339.927 194.44 334.807 193.535 325.665C192.629 316.518 202.111 297.628 173.45 298.74C162.693 299.159 150.202 293.761 158.92 292.564C166.89 291.465 185.194 290.992 182.997 283.652C180.796 276.31 172.032 270.689 156.787 271.022ZM111.775 301.808C111.775 302.209 111.934 302.594 112.216 302.877C112.498 303.161 112.881 303.321 113.28 303.321C113.68 303.321 114.063 303.161 114.345 302.877C114.627 302.594 114.786 302.209 114.786 301.808C114.786 301.406 114.627 301.022 114.345 300.738C114.063 300.454 113.68 300.295 113.28 300.295C112.881 300.295 112.498 300.454 112.216 300.738C111.934 301.022 111.775 301.406 111.775 301.808ZM134.192 267.875C134.192 268.347 134.284 268.815 134.464 269.251C134.644 269.687 134.907 270.083 135.239 270.416C135.571 270.75 135.965 271.015 136.398 271.196C136.832 271.376 137.297 271.47 137.767 271.47C138.236 271.47 138.701 271.377 139.135 271.197C139.569 271.016 139.963 270.752 140.295 270.418C140.627 270.084 140.891 269.688 141.071 269.252C141.251 268.817 141.343 268.349 141.343 267.878C141.344 266.925 140.967 266.011 140.297 265.336C139.626 264.662 138.717 264.284 137.769 264.283C136.82 264.283 135.911 264.661 135.24 265.335C134.569 266.009 134.192 266.922 134.192 267.875Z" fill="#8A2AF4"/>
<path d="M189.624 260.93C189.624 261.559 189.872 262.162 190.315 262.606C190.757 263.051 191.357 263.301 191.982 263.301C192.607 263.301 193.207 263.051 193.65 262.607C194.092 262.163 194.341 261.56 194.341 260.932C194.341 260.62 194.28 260.312 194.161 260.025C194.043 259.737 193.869 259.476 193.65 259.256C193.431 259.036 193.172 258.861 192.885 258.742C192.599 258.623 192.293 258.561 191.983 258.561C191.673 258.561 191.367 258.622 191.081 258.741C190.794 258.86 190.534 259.035 190.315 259.255C190.096 259.475 189.923 259.736 189.804 260.024C189.685 260.311 189.624 260.619 189.624 260.93ZM168.639 250.84L164.538 248.793L165.204 244.242L161.334 252.082L163.461 256.159L164.127 251.609L168.639 250.84Z" fill="#C874FF"/>
<path d="M162.002 247.531L157.897 245.487L160.024 249.564L156.819 252.855L161.334 252.082L165.204 244.242L162.002 247.531ZM121.92 279.41L119.574 278.243L119.956 275.64L117.743 280.123L118.958 282.454L119.339 279.853L121.92 279.41ZM118.124 277.52L115.778 276.35L116.993 278.681L115.16 280.563L117.743 280.123L119.956 275.64L118.124 277.52Z" fill="#C874FF"/>
<path d="M209.043 292.886L206.7 291.718L207.083 289.115L204.866 293.599L206.083 295.929L206.464 293.325L209.043 292.886ZM205.247 290.994L202.903 289.827L204.119 292.158L202.284 294.038L204.866 293.599L207.083 289.115L205.247 290.994Z" fill="#8A2AF4"/>
<path d="M99.4105 343.349C99.4105 375.327 125.195 401.248 157.016 401.248C188.836 401.248 214.63 375.327 214.63 343.349C214.63 335.009 212.863 327.093 209.692 319.928C210.489 319.279 210.863 318.557 210.863 317.75C210.863 314.742 205.578 312.872 193.183 311.5C183.493 310.425 170.653 309.832 157.016 309.832C143.387 309.832 130.54 310.424 120.851 311.5C108.46 312.872 103.172 314.743 103.172 317.75C103.172 318.557 103.549 319.279 104.343 319.928C101.082 327.301 99.4017 335.281 99.4105 343.349Z" fill="#C874FF"/>
<path d="M195.04 386.831L198.821 404.982C198.821 404.982 196.938 407.376 191.849 406.03L185.146 393.878C188.68 391.883 191.996 389.521 195.04 386.831ZM118.953 386.793C121.996 389.489 125.313 391.856 128.849 393.854L122.132 406.03C117.042 407.376 115.16 404.982 115.16 404.982L118.95 386.795L118.953 386.793Z" fill="#C874FF"/>
</g>
<defs>
<linearGradient id="paint0_linear_411_897" x1="293" y1="395.396" x2="293" y2="395.431" gradientUnits="userSpaceOnUse">
<stop stop-color="#130027"/>
<stop offset="1" stop-color="#370074"/>
</linearGradient>
<clipPath id="clip0_411_897">
<rect width="520" height="440" fill="white" transform="matrix(-1 0 0 1 520 0)"/>
</clipPath>
</defs>
</svg>
