<svg width="521" height="62" viewBox="0 0 521 62" fill="none" xmlns="http://www.w3.org/2000/svg">
<path d="M11.3796 49.4223C11.0114 49.7909 10.5112 49.9987 9.98909 50C9.467 50.0013 8.96578 49.796 8.59568 49.4293C8.22559 49.0625 8.01694 48.5644 8.01563 48.0444C8.01433 47.5245 8.22047 47.0253 8.58872 46.6568L32.6516 22.5777C33.0199 22.2091 33.5201 22.0013 34.0422 22C34.5643 21.9987 35.0655 22.204 35.4356 22.5707C35.8057 22.9375 36.0143 23.4356 36.0156 23.9556C36.0169 24.4755 35.8108 24.9747 35.4425 25.3432L11.3796 49.4223Z" fill="url(#paint0_linear_380_1159)"/>
<path d="M11.3767 49.4223C11.0084 49.7909 10.5082 49.9987 9.98616 50C9.46407 50.0013 8.96285 49.796 8.59275 49.4293C8.22266 49.0625 8.01401 48.5644 8.0127 48.0444C8.0114 47.5245 8.21754 47.0253 8.58579 46.6568L32.6487 22.5777C33.017 22.2091 33.5171 22.0013 34.0392 22C34.5613 21.9987 35.0625 22.204 35.4326 22.5707C35.8027 22.9375 36.0114 23.4356 36.0127 23.9556C36.014 24.4755 35.8078 24.9747 35.4396 25.3432L11.3767 49.4223Z" fill="url(#paint1_linear_380_1159)"/>
<g filter="url(#filter0_ii_380_1159)">
<path fill-rule="evenodd" clip-rule="evenodd" d="M40.1695 19.9187C40.1174 19.6688 39.9994 19.4392 39.8287 19.2556C39.6581 19.0721 39.4417 18.9419 39.2038 18.8799C38.5886 18.7045 37.9913 18.4665 37.4207 18.1694C37.2985 18.11 37.1951 18.0156 37.1227 17.897C37.0502 17.7785 37.0117 17.6409 37.0117 17.5003C37.0117 17.3597 37.0502 17.2221 37.1227 17.1035C37.1951 16.985 37.2985 16.8905 37.4207 16.8312C37.9914 16.5345 38.5886 16.297 39.2038 16.1221C39.4417 16.06 39.6581 15.9299 39.8287 15.7463C39.9994 15.5628 40.1174 15.3331 40.1695 15.0833C40.3177 14.3149 40.5584 13.3657 40.9235 12.4387C40.9668 12.3104 41.0472 12.1993 41.1536 12.1208C41.2599 12.0422 41.3871 12 41.5175 12C41.6478 12 41.775 12.0422 41.8813 12.1208C41.9877 12.1993 42.0681 12.3104 42.1114 12.4387C42.4765 13.3657 42.7172 14.3149 42.8641 15.0833C42.9163 15.333 43.0344 15.5626 43.205 15.7461C43.3756 15.9297 43.592 16.0599 43.8297 16.1221C44.3681 16.2697 44.9502 16.4987 45.605 16.8312C46.1473 17.1071 46.1473 17.8935 45.605 18.1694C45.037 18.4663 44.4424 18.7042 43.8297 18.8799C43.5922 18.942 43.3759 19.072 43.2053 19.2552C43.0347 19.4385 42.9165 19.6678 42.8641 19.9173C42.693 20.822 42.4405 21.7079 42.1101 22.5633C42.0665 22.6911 41.9861 22.8016 41.8799 22.8798C41.7736 22.958 41.6468 23 41.5168 23C41.3868 23 41.2599 22.958 41.1537 22.8798C41.0475 22.8016 40.9671 22.6911 40.9235 22.5633C40.5931 21.7079 40.3407 20.8234 40.1695 19.9187Z" fill="url(#paint2_linear_380_1159)"/>
</g>
<g filter="url(#filter1_ii_380_1159)">
<path fill-rule="evenodd" clip-rule="evenodd" d="M24.4684 18.7584C24.4278 18.5765 24.3357 18.4092 24.2027 18.2757C24.0696 18.1421 23.9009 18.0476 23.7155 18.0027C23.2374 17.8755 22.7731 17.7029 22.3295 17.4873C22.2346 17.4441 22.1542 17.3753 22.0979 17.2891C22.0416 17.2029 22.0117 17.1029 22.0117 17.0007C22.0117 16.8985 22.0416 16.7984 22.0979 16.7122C22.1542 16.626 22.2346 16.5573 22.3295 16.5141C22.8402 16.2725 23.2957 16.1047 23.7155 15.9973C23.9007 15.9525 24.0693 15.8582 24.2024 15.7249C24.3354 15.5916 24.4276 15.4246 24.4684 15.2429C24.5813 14.6832 24.7699 13.9946 25.0534 13.318C25.0872 13.225 25.1498 13.1445 25.2325 13.0875C25.3152 13.0306 25.4139 13 25.5152 13C25.6164 13 25.7151 13.0306 25.7978 13.0875C25.8805 13.1445 25.9431 13.225 25.9769 13.318C26.2605 13.9932 26.4477 14.6832 26.5619 15.2429C26.6028 15.4244 26.6948 15.5911 26.8276 15.7244C26.9603 15.8577 27.1286 15.9522 27.3134 15.9973C27.7332 16.1047 28.1846 16.2711 28.6939 16.5141C28.7889 16.5573 28.8692 16.626 28.9255 16.7122C28.9818 16.7984 29.0117 16.8985 29.0117 17.0007C29.0117 17.1029 28.9818 17.2029 28.9255 17.2891C28.8692 17.3753 28.7889 17.4441 28.6939 17.4873C28.2522 17.7028 27.7898 17.8755 27.3134 18.0027C27.1284 18.0479 26.96 18.1426 26.8273 18.2762C26.6945 18.4097 26.6026 18.5767 26.5619 18.7584C26.4477 19.3182 26.2605 20.0068 25.9769 20.682C25.9431 20.775 25.8805 20.8555 25.7978 20.9125C25.7151 20.9694 25.6164 21 25.5152 21C25.4139 21 25.3152 20.9694 25.2325 20.9125C25.1498 20.8555 25.0872 20.775 25.0534 20.682C24.7969 20.0601 24.6011 19.4161 24.4684 18.7584Z" fill="url(#paint3_linear_380_1159)"/>
</g>
<g filter="url(#filter2_ii_380_1159)">
<path fill-rule="evenodd" clip-rule="evenodd" d="M37.4669 33.7576C37.4264 33.5759 37.3346 33.4089 37.2018 33.2754C37.069 33.1419 36.9005 33.0473 36.7154 33.0022C36.2367 32.8748 35.772 32.7018 35.3281 32.4857C35.2335 32.4423 35.1535 32.3737 35.0975 32.2877C35.0415 32.2016 35.0117 32.1019 35.0117 32C35.0117 31.8981 35.0415 31.7984 35.0975 31.7123C35.1535 31.6263 35.2335 31.5577 35.3281 31.5143C35.8401 31.2728 36.2943 31.1051 36.7154 30.9978C36.9005 30.9527 37.069 30.8581 37.2018 30.7246C37.3346 30.5911 37.4264 30.4241 37.4669 30.2424C37.5812 29.6843 37.7698 28.9947 38.0519 28.3198C38.0855 28.2263 38.148 28.1454 38.2309 28.0881C38.3137 28.0308 38.4128 28 38.5144 28C38.616 28 38.715 28.0308 38.7979 28.0881C38.8807 28.1454 38.9433 28.2263 38.9768 28.3198C39.2604 28.9947 39.4476 29.6843 39.5618 30.2424C39.6025 30.424 39.6944 30.591 39.8272 30.7245C39.9599 30.8579 40.1283 30.9526 40.3133 30.9978C40.7317 31.1051 41.1832 31.2715 41.6924 31.513C41.7878 31.556 41.8685 31.6247 41.9251 31.711C41.9817 31.7973 42.0117 31.8976 42.0117 32C42.0117 32.1024 41.9817 32.2027 41.9251 32.289C41.8685 32.3753 41.7878 32.444 41.6924 32.487C41.2511 32.7022 40.7892 32.8748 40.3133 33.0022C40.1283 33.0474 39.9599 33.1421 39.8272 33.2755C39.6944 33.409 39.6025 33.576 39.5618 33.7576C39.4285 34.4148 39.2326 35.0584 38.9768 35.6802C38.9433 35.7737 38.8807 35.8546 38.7979 35.9119C38.715 35.9692 38.616 36 38.5144 36C38.4128 36 38.3137 35.9692 38.2309 35.9119C38.148 35.8546 38.0855 35.7737 38.0519 35.6802C37.7955 35.0586 37.5996 34.4149 37.4669 33.7576Z" fill="url(#paint4_linear_380_1159)"/>
</g>
<path d="M44.5117 28C45.3401 28 46.0117 27.3284 46.0117 26.5C46.0117 25.6716 45.3401 25 44.5117 25C43.6833 25 43.0117 25.6716 43.0117 26.5C43.0117 27.3284 43.6833 28 44.5117 28Z" fill="url(#paint5_radial_380_1159)"/>
<path d="M44.5117 28C45.3401 28 46.0117 27.3284 46.0117 26.5C46.0117 25.6716 45.3401 25 44.5117 25C43.6833 25 43.0117 25.6716 43.0117 26.5C43.0117 27.3284 43.6833 28 44.5117 28Z" fill="url(#paint6_radial_380_1159)"/>
<path d="M30.5059 39C31.3343 39 32.0059 38.3284 32.0059 37.5C32.0059 36.6716 31.3343 36 30.5059 36C29.6774 36 29.0059 36.6716 29.0059 37.5C29.0059 38.3284 29.6774 39 30.5059 39Z" fill="url(#paint7_radial_380_1159)"/>
<path d="M30.5059 39C31.3343 39 32.0059 38.3284 32.0059 37.5C32.0059 36.6716 31.3343 36 30.5059 36C29.6774 36 29.0059 36.6716 29.0059 37.5C29.0059 38.3284 29.6774 39 30.5059 39Z" fill="url(#paint8_radial_380_1159)"/>
<path d="M21.5059 29C22.3343 29 23.0059 28.3284 23.0059 27.5C23.0059 26.6716 22.3343 26 21.5059 26C20.6774 26 20.0059 26.6716 20.0059 27.5C20.0059 28.3284 20.6774 29 21.5059 29Z" fill="url(#paint9_radial_380_1159)"/>
<path d="M21.5059 29C22.3343 29 23.0059 28.3284 23.0059 27.5C23.0059 26.6716 22.3343 26 21.5059 26C20.6774 26 20.0059 26.6716 20.0059 27.5C20.0059 28.3284 20.6774 29 21.5059 29Z" fill="url(#paint10_radial_380_1159)"/>
<path d="M31.5059 15C32.3343 15 33.0059 14.3284 33.0059 13.5C33.0059 12.6716 32.3343 12 31.5059 12C30.6774 12 30.0059 12.6716 30.0059 13.5C30.0059 14.3284 30.6774 15 31.5059 15Z" fill="url(#paint11_radial_380_1159)"/>
<path d="M31.5059 15C32.3343 15 33.0059 14.3284 33.0059 13.5C33.0059 12.6716 32.3343 12 31.5059 12C30.6774 12 30.0059 12.6716 30.0059 13.5C30.0059 14.3284 30.6774 15 31.5059 15Z" fill="url(#paint12_radial_380_1159)"/>
<g filter="url(#filter3_f_380_1159)">
<path d="M32.0059 26L11.0059 47" stroke="url(#paint13_linear_380_1159)" stroke-width="0.399399"/>
</g>
<path d="M30.0059 25.1174L32.5023 22.6049C32.8858 22.2189 33.4068 22.0014 33.9505 22C34.4943 21.9986 35.0163 22.2136 35.4017 22.5976C35.7872 22.9816 36.0045 23.5032 36.0059 24.0476C36.0072 24.592 35.7925 25.1146 35.409 25.5006L32.9242 28L30.0059 25.1174Z" fill="#CFC9D8"/>
<path d="M30.0059 25.1174L32.5023 22.6049C32.8858 22.2189 33.4068 22.0014 33.9505 22C34.4943 21.9986 35.0163 22.2136 35.4017 22.5976C35.7872 22.9816 36.0045 23.5032 36.0059 24.0476C36.0072 24.592 35.7925 25.1146 35.409 25.5006L32.9242 28L30.0059 25.1174Z" fill="url(#paint14_linear_380_1159)"/>
<path d="M30.0059 25.1174L32.5023 22.6049C32.8858 22.2189 33.4068 22.0014 33.9505 22C34.4943 21.9986 35.0163 22.2136 35.4017 22.5976C35.7872 22.9816 36.0045 23.5032 36.0059 24.0476C36.0072 24.592 35.7925 25.1146 35.409 25.5006L32.9242 28L30.0059 25.1174Z" fill="url(#paint15_linear_380_1159)"/>
<path d="M30.0059 25.1174L32.5023 22.6049C32.8858 22.2189 33.4068 22.0014 33.9505 22C34.4943 21.9986 35.0163 22.2136 35.4017 22.5976C35.7872 22.9816 36.0045 23.5032 36.0059 24.0476C36.0072 24.592 35.7925 25.1146 35.409 25.5006L32.9242 28L30.0059 25.1174Z" fill="url(#paint16_radial_380_1159)"/>
<g filter="url(#filter4_i_380_1159)">
<path d="M8.60749 49.3952C9.41542 50.2028 10.7259 50.2014 11.5339 49.3922L14.0029 46.9123L11.0707 44L8.60457 46.4785C8.21874 46.866 8.00238 47.3907 8.00293 47.9374C8.00348 48.4842 8.22089 49.0084 8.60749 49.3952Z" fill="#CFC6DD"/>
<path d="M8.60554 49.3952C9.41347 50.2028 10.724 50.2014 11.5319 49.3922L14.001 46.9123L11.0688 44L8.60262 46.4785C8.21679 46.866 8.00043 47.3907 8.00098 47.9374C8.00153 48.4842 8.21894 49.0084 8.60554 49.3952Z" fill="url(#paint17_linear_380_1159)"/>
</g>
<path d="M8.60456 49.3952C9.41249 50.2028 10.723 50.2014 11.5309 49.3922L14 46.9123L11.0678 44L8.60164 46.4785C8.21581 46.866 7.99945 47.3907 8 47.9374C8.00055 48.4842 8.21796 49.0084 8.60456 49.3952Z" fill="url(#paint18_linear_380_1159)"/>
<path d="M8.60456 49.3952C9.41249 50.2028 10.723 50.2014 11.5309 49.3922L14 46.9123L11.0678 44L8.60164 46.4785C8.21581 46.866 7.99945 47.3907 8 47.9374C8.00055 48.4842 8.21796 49.0084 8.60456 49.3952Z" fill="url(#paint19_radial_380_1159)"/>
<path d="M75.1633 16.8049V18.6771C75.1633 21.3356 75.1633 25.211 74.1149 30.8463C75.4254 30.7527 76.7172 30.6403 77.9716 30.5093L78.2711 33.5797C75.0322 34.029 71.7185 34.3098 68.4609 34.4783V46.4229H64.2672V34.6655C61.3278 34.7779 58.5008 34.7966 55.8798 34.7779L55.3556 31.4079C59.7927 31.3892 64.885 31.3331 69.9586 31.0709C70.2956 29.4234 70.539 27.8882 70.7075 26.5028L58.0515 27.6261L57.4524 24.1439L71.007 23.5073C71.0819 22.253 71.1006 21.1484 71.1194 20.1748H58.2387V16.8049H75.1633ZM84.2995 14.4834V48.3325H80.1059V14.4834H84.2995ZM119.646 40.6565V44.1014H88.7179V40.6565H119.646ZM106.316 21.4105C106.316 26.3905 111.371 30.8837 118.411 31.9696L116.763 35.2646C111.034 34.2537 106.354 31.202 104.182 26.9521C101.992 31.2582 97.3487 34.4034 91.7134 35.4519L90.0659 32.0819C96.9181 31.0335 101.936 26.3905 101.936 21.4105V20.8863H91.3015V17.5538H116.988V20.8863H106.316V21.4105ZM141.514 20.7739C141.514 24.4434 143.648 28.1129 148.104 29.7979L145.894 32.9806C142.88 31.8198 140.783 29.6668 139.566 27.027C138.331 30.06 136.122 32.6436 132.901 33.9916L130.655 30.8088C135.298 28.7494 137.47 24.5183 137.507 20.7739V16.5802H141.514V20.7739ZM159.898 14.5208V35.2646H155.929V26.4654H152.559V34.2162H148.665V15.1574H152.559V23.058H155.929V14.5208H159.898ZM148.478 35.8263C155.555 35.8263 160.048 38.1478 160.086 42.0419C160.048 45.9361 155.555 48.295 148.478 48.295C141.326 48.295 136.87 45.9361 136.87 42.0419C136.87 38.1478 141.326 35.8263 148.478 35.8263ZM148.478 38.9716C143.798 38.9716 141.027 40.0574 141.027 42.0419C141.027 44.0639 143.798 45.1123 148.478 45.1123C153.121 45.1123 155.892 44.0639 155.892 42.0419C155.892 40.0574 153.121 38.9716 148.478 38.9716ZM176.486 19.3511C176.448 23.9566 179.144 28.1503 184.461 29.8353L182.215 33.0929C178.527 31.8011 175.943 29.3485 174.501 26.1284C173.004 29.8166 170.177 32.7185 166.077 34.1413L163.867 30.7714C169.484 28.9367 172.292 24.406 172.292 19.5383V16.3181H176.486V19.3511ZM192.437 14.4834V34.4034H188.281V24.4434H181.541V21.036H188.281V14.4834H192.437ZM180.979 35.3021C188.168 35.3021 192.549 37.6985 192.549 41.8173C192.549 45.9361 188.168 48.295 180.979 48.295C173.827 48.295 169.447 45.9361 169.484 41.8173C169.447 37.6985 173.827 35.3021 180.979 35.3021ZM180.979 38.5222C176.261 38.5222 173.603 39.683 173.603 41.8173C173.603 43.8767 176.261 45.0374 180.979 45.0374C185.697 45.0374 188.393 43.8767 188.393 41.8173C188.393 39.683 185.697 38.5222 180.979 38.5222ZM222.017 35.377C229.019 35.377 233.325 37.7359 233.363 41.8173C233.325 45.9361 229.019 48.3325 222.017 48.3325C214.941 48.3325 210.56 45.9361 210.56 41.8173C210.56 37.7359 214.941 35.377 222.017 35.377ZM222.017 38.6346C217.374 38.6346 214.716 39.7204 214.716 41.8173C214.716 43.9141 217.374 45.0374 222.017 45.0374C226.66 45.0374 229.244 43.9141 229.244 41.8173C229.244 39.7204 226.66 38.6346 222.017 38.6346ZM233.026 14.4834V22.5712H237.744V26.0535H233.026V34.5532H228.87V14.4834H233.026ZM211.608 16.6177V21.1858H219.509V16.6177H223.628V32.4189H207.489V16.6177H211.608ZM211.608 29.1239H219.509V24.4434H211.608V29.1239ZM252.085 19.3136C252.085 23.7694 254.856 27.9631 260.247 29.6481L258.188 32.9431C254.275 31.6326 251.486 29.0677 249.988 25.7539C248.434 29.3111 245.607 32.1381 241.601 33.5048L239.504 30.2472C244.97 28.375 247.779 23.9192 247.779 19.3136V16.0935H252.085V19.3136ZM267.661 36.2756V48.3325H263.468V39.6081H244.559V36.2756H267.661ZM267.661 14.4834V34.7404H263.468V14.4834H267.661ZM287.993 15.0076C295.707 15.0076 300.162 17.067 300.2 20.8114C300.162 24.5932 295.707 26.6151 287.993 26.6526C280.28 26.6151 275.787 24.5932 275.787 20.8114C275.787 17.067 280.28 15.0076 287.993 15.0076ZM287.993 18.078C282.826 18.078 280.13 19.0515 280.168 20.8114C280.13 22.6836 282.826 23.5448 287.993 23.5448C293.235 23.5448 295.894 22.6836 295.894 20.8114C295.894 19.0515 293.235 18.078 287.993 18.078ZM303.457 28.4499V31.7824H272.604V28.4499H303.457ZM299.601 34.0664V42.3415H280.355V44.8502H300.537V48.0329H276.273V39.3834H295.519V37.1368H276.236V34.0664H299.601ZM327.159 20.4744C327.159 24.9676 329.855 29.3485 335.097 31.1458L332.813 34.4034C329.163 33.018 326.542 30.3782 325.137 27.0645C323.658 30.7714 320.906 33.7107 316.937 35.1898L314.728 31.8947C320.157 30.06 322.928 25.3795 322.966 20.4369V16.5802H327.159V20.4744ZM343.185 14.5208V39.6456H339.029V25.3795H332.289V21.9721H339.029V14.5208H343.185ZM343.934 44.2886V47.6585H320.869V36.9122H325.1V44.2886H343.934ZM362.544 16.8423V20.1748H353.258V23.4699H362.207V26.6526H353.258V30.2097C357.395 30.1723 360.26 30.0038 363.555 29.386L364.004 32.7559C360.035 33.5048 356.74 33.6171 351.498 33.6171H349.251V16.8423H362.544ZM376.922 14.5208V35.1149H372.953V26.3156H369.433V34.8528H365.539V15.1574H369.433V22.9831H372.953V14.5208H376.922ZM376.922 36.6126V48.3325H372.766V39.9825H353.744V36.6126H376.922ZM397.628 19.8753V23.2078H381.041V19.8753H387.331V15.4569H391.45V19.8753H397.628ZM389.391 25.0051C393.697 25.0051 396.767 28.2627 396.767 32.8682C396.767 37.5487 393.697 40.8437 389.391 40.8437C385.122 40.8437 381.977 37.5487 382.014 32.8682C381.977 28.2627 385.122 25.0051 389.391 25.0051ZM389.391 28.4499C387.182 28.4499 385.646 30.2097 385.684 32.8682C385.646 35.6016 387.182 37.324 389.391 37.2866C391.562 37.324 393.098 35.6016 393.098 32.8682C393.098 30.2097 391.562 28.4499 389.391 28.4499ZM410.209 14.4834V48.3325H406.24V31.7824H402.945V46.7973H399.051V15.1948H402.945V28.4124H406.24V14.4834H410.209ZM445.107 33.355V36.7249H431.665V48.295H427.546V36.7249H414.253V33.355H445.107ZM442.261 16.393V19.6881H432.114C432.357 23.395 436.813 26.9521 443.497 27.8133L441.999 31.0709C436.233 30.2659 431.74 27.6261 429.68 23.9566C427.621 27.6261 423.128 30.2659 417.436 31.0709L415.863 27.8133C422.51 26.9521 426.966 23.395 427.284 19.6881H417.099V16.393H442.261ZM457.95 23.3575C457.95 28.8243 459.86 34.5158 464.428 37.3989L462.144 40.5816C459.092 38.7469 457.108 35.5829 456.003 31.8573C454.767 35.9573 452.596 39.4209 449.413 41.368L446.829 38.2601C451.735 35.2646 453.944 29.3111 453.944 23.5448V17.4789H457.95V23.3575ZM476.597 14.4834V48.3325H472.591V14.4834H476.597ZM469.558 15.0825V46.685H465.626V29.5732H460.796V26.1284H465.626V15.0825H469.558ZM511.457 40.8063V44.2137H480.529V40.8063H487.68V32.2317C484.985 30.6965 483.356 28.2814 483.374 25.2672C483.337 19.8753 488.654 16.3181 495.918 16.3181C503.22 16.3181 508.537 19.8753 508.537 25.2672C508.537 28.2252 506.964 30.6029 504.343 32.1568V40.8063H511.457ZM495.918 19.6132C490.863 19.6132 487.418 21.7475 487.456 25.2672C487.418 28.7494 490.863 30.9212 495.918 30.9212C500.973 30.9212 504.455 28.7494 504.455 25.2672C504.455 21.7475 500.973 19.6132 495.918 19.6132ZM491.799 40.8063H500.112V33.7294C498.82 34.029 497.416 34.1788 495.918 34.1788C494.458 34.1788 493.072 34.029 491.799 33.7669V40.8063Z" fill="black"/>
<defs>
<filter id="filter0_ii_380_1159" x="36.8919" y="11.8802" width="9.23964" height="11.2396" filterUnits="userSpaceOnUse" color-interpolation-filters="sRGB">
<feFlood flood-opacity="0" result="BackgroundImageFix"/>
<feBlend mode="normal" in="SourceGraphic" in2="BackgroundImageFix" result="shape"/>
<feColorMatrix in="SourceAlpha" type="matrix" values="0 0 0 0 0 0 0 0 0 0 0 0 0 0 0 0 0 0 127 0" result="hardAlpha"/>
<feOffset dx="0.11982" dy="-0.11982"/>
<feGaussianBlur stdDeviation="0.29955"/>
<feComposite in2="hardAlpha" operator="arithmetic" k2="-1" k3="1"/>
<feColorMatrix type="matrix" values="0 0 0 0 0.94902 0 0 0 0 0.513726 0 0 0 0 0.392157 0 0 0 1 0"/>
<feBlend mode="normal" in2="shape" result="effect1_innerShadow_380_1159"/>
<feColorMatrix in="SourceAlpha" type="matrix" values="0 0 0 0 0 0 0 0 0 0 0 0 0 0 0 0 0 0 127 0" result="hardAlpha"/>
<feOffset dx="-0.11982" dy="0.11982"/>
<feGaussianBlur stdDeviation="0.23964"/>
<feComposite in2="hardAlpha" operator="arithmetic" k2="-1" k3="1"/>
<feColorMatrix type="matrix" values="0 0 0 0 1 0 0 0 0 0.823529 0 0 0 0 0.407843 0 0 0 1 0"/>
<feBlend mode="normal" in2="effect1_innerShadow_380_1159" result="effect2_innerShadow_380_1159"/>
</filter>
<filter id="filter1_ii_380_1159" x="21.8919" y="12.8802" width="7.23964" height="8.23964" filterUnits="userSpaceOnUse" color-interpolation-filters="sRGB">
<feFlood flood-opacity="0" result="BackgroundImageFix"/>
<feBlend mode="normal" in="SourceGraphic" in2="BackgroundImageFix" result="shape"/>
<feColorMatrix in="SourceAlpha" type="matrix" values="0 0 0 0 0 0 0 0 0 0 0 0 0 0 0 0 0 0 127 0" result="hardAlpha"/>
<feOffset dx="0.11982" dy="-0.11982"/>
<feGaussianBlur stdDeviation="0.29955"/>
<feComposite in2="hardAlpha" operator="arithmetic" k2="-1" k3="1"/>
<feColorMatrix type="matrix" values="0 0 0 0 0.94902 0 0 0 0 0.513726 0 0 0 0 0.392157 0 0 0 1 0"/>
<feBlend mode="normal" in2="shape" result="effect1_innerShadow_380_1159"/>
<feColorMatrix in="SourceAlpha" type="matrix" values="0 0 0 0 0 0 0 0 0 0 0 0 0 0 0 0 0 0 127 0" result="hardAlpha"/>
<feOffset dx="-0.11982" dy="0.11982"/>
<feGaussianBlur stdDeviation="0.23964"/>
<feComposite in2="hardAlpha" operator="arithmetic" k2="-1" k3="1"/>
<feColorMatrix type="matrix" values="0 0 0 0 1 0 0 0 0 0.823529 0 0 0 0 0.407843 0 0 0 1 0"/>
<feBlend mode="normal" in2="effect1_innerShadow_380_1159" result="effect2_innerShadow_380_1159"/>
</filter>
<filter id="filter2_ii_380_1159" x="34.8919" y="27.8802" width="7.23964" height="8.23964" filterUnits="userSpaceOnUse" color-interpolation-filters="sRGB">
<feFlood flood-opacity="0" result="BackgroundImageFix"/>
<feBlend mode="normal" in="SourceGraphic" in2="BackgroundImageFix" result="shape"/>
<feColorMatrix in="SourceAlpha" type="matrix" values="0 0 0 0 0 0 0 0 0 0 0 0 0 0 0 0 0 0 127 0" result="hardAlpha"/>
<feOffset dx="0.11982" dy="-0.11982"/>
<feGaussianBlur stdDeviation="0.29955"/>
<feComposite in2="hardAlpha" operator="arithmetic" k2="-1" k3="1"/>
<feColorMatrix type="matrix" values="0 0 0 0 0.94902 0 0 0 0 0.513726 0 0 0 0 0.392157 0 0 0 1 0"/>
<feBlend mode="normal" in2="shape" result="effect1_innerShadow_380_1159"/>
<feColorMatrix in="SourceAlpha" type="matrix" values="0 0 0 0 0 0 0 0 0 0 0 0 0 0 0 0 0 0 127 0" result="hardAlpha"/>
<feOffset dx="-0.11982" dy="0.11982"/>
<feGaussianBlur stdDeviation="0.23964"/>
<feComposite in2="hardAlpha" operator="arithmetic" k2="-1" k3="1"/>
<feColorMatrix type="matrix" values="0 0 0 0 1 0 0 0 0 0.823529 0 0 0 0 0.407843 0 0 0 1 0"/>
<feBlend mode="normal" in2="effect1_innerShadow_380_1159" result="effect2_innerShadow_380_1159"/>
</filter>
<filter id="filter3_f_380_1159" x="10.4649" y="25.4595" width="22.082" height="22.081" filterUnits="userSpaceOnUse" color-interpolation-filters="sRGB">
<feFlood flood-opacity="0" result="BackgroundImageFix"/>
<feBlend mode="normal" in="SourceGraphic" in2="BackgroundImageFix" result="shape"/>
<feGaussianBlur stdDeviation="0.1997" result="effect1_foregroundBlur_380_1159"/>
</filter>
<filter id="filter4_i_380_1159" x="7.9211" y="43.6006" width="6.08183" height="6.3994" filterUnits="userSpaceOnUse" color-interpolation-filters="sRGB">
<feFlood flood-opacity="0" result="BackgroundImageFix"/>
<feBlend mode="normal" in="SourceGraphic" in2="BackgroundImageFix" result="shape"/>
<feColorMatrix in="SourceAlpha" type="matrix" values="0 0 0 0 0 0 0 0 0 0 0 0 0 0 0 0 0 0 127 0" result="hardAlpha"/>
<feOffset dx="-0.0798799" dy="-0.399399"/>
<feGaussianBlur stdDeviation="0.399399"/>
<feComposite in2="hardAlpha" operator="arithmetic" k2="-1" k3="1"/>
<feColorMatrix type="matrix" values="0 0 0 0 0.698039 0 0 0 0 0.619608 0 0 0 0 0.792157 0 0 0 1 0"/>
<feBlend mode="normal" in2="shape" result="effect1_innerShadow_380_1159"/>
</filter>
<linearGradient id="paint0_linear_380_1159" x1="31.694" y1="26.6851" x2="12.2025" y2="46.6926" gradientUnits="userSpaceOnUse">
<stop stop-color="#60105F"/>
<stop offset="1" stop-color="#54155E"/>
</linearGradient>
<linearGradient id="paint1_linear_380_1159" x1="12.5738" y1="41.999" x2="14.6102" y2="44.0216" gradientUnits="userSpaceOnUse">
<stop stop-color="#523253"/>
<stop offset="1" stop-color="#523253" stop-opacity="0"/>
</linearGradient>
<linearGradient id="paint2_linear_380_1159" x1="44.7478" y1="14.9136" x2="39.2838" y2="20.1567" gradientUnits="userSpaceOnUse">
<stop stop-color="#FFD459"/>
<stop offset="1" stop-color="#FFA271"/>
</linearGradient>
<linearGradient id="paint3_linear_380_1159" x1="28.0277" y1="15.1181" x2="24.0518" y2="19.199" gradientUnits="userSpaceOnUse">
<stop stop-color="#FFD465"/>
<stop offset="1" stop-color="#FFAF36"/>
</linearGradient>
<linearGradient id="paint4_linear_380_1159" x1="41.0263" y1="30.119" x2="37.0523" y2="34.1999" gradientUnits="userSpaceOnUse">
<stop stop-color="#FFD465"/>
<stop offset="1" stop-color="#FFAF36"/>
</linearGradient>
<radialGradient id="paint5_radial_380_1159" cx="0" cy="0" r="1" gradientUnits="userSpaceOnUse" gradientTransform="translate(45.176 25.9106) rotate(127.823) scale(2.26418 2.11767)">
<stop stop-color="#FFD463"/>
<stop offset="1" stop-color="#E68F2B"/>
</radialGradient>
<radialGradient id="paint6_radial_380_1159" cx="0" cy="0" r="1" gradientUnits="userSpaceOnUse" gradientTransform="translate(44.5117 25.5097) rotate(90) scale(2.49036 2.17092)">
<stop offset="0.797" stop-color="#E37A42" stop-opacity="0"/>
<stop offset="1" stop-color="#E37A42"/>
</radialGradient>
<radialGradient id="paint7_radial_380_1159" cx="0" cy="0" r="1" gradientUnits="userSpaceOnUse" gradientTransform="translate(31.1713 36.9094) rotate(127.823) scale(2.26418 2.11767)">
<stop stop-color="#FFD463"/>
<stop offset="1" stop-color="#E68F2B"/>
</radialGradient>
<radialGradient id="paint8_radial_380_1159" cx="0" cy="0" r="1" gradientUnits="userSpaceOnUse" gradientTransform="translate(30.5059 36.5097) rotate(90) scale(2.49036 2.17092)">
<stop offset="0.797" stop-color="#E37A42" stop-opacity="0"/>
<stop offset="1" stop-color="#E37A42"/>
</radialGradient>
<radialGradient id="paint9_radial_380_1159" cx="0" cy="0" r="1" gradientUnits="userSpaceOnUse" gradientTransform="translate(22.1702 26.911) rotate(127.823) scale(2.26452 2.11799)">
<stop stop-color="#FFD463"/>
<stop offset="1" stop-color="#E68F2B"/>
</radialGradient>
<radialGradient id="paint10_radial_380_1159" cx="0" cy="0" r="1" gradientUnits="userSpaceOnUse" gradientTransform="translate(21.5059 26.5092) rotate(90) scale(2.49073 2.17124)">
<stop offset="0.797" stop-color="#E37A42" stop-opacity="0"/>
<stop offset="1" stop-color="#E37A42"/>
</radialGradient>
<radialGradient id="paint11_radial_380_1159" cx="0" cy="0" r="1" gradientUnits="userSpaceOnUse" gradientTransform="translate(32.17 12.9096) rotate(127.823) scale(2.26406 2.11756)">
<stop stop-color="#FFD463"/>
<stop offset="1" stop-color="#E68F2B"/>
</radialGradient>
<radialGradient id="paint12_radial_380_1159" cx="0" cy="0" r="1" gradientUnits="userSpaceOnUse" gradientTransform="translate(31.5059 12.5105) rotate(90) scale(2.49021 2.1708)">
<stop offset="0.869" stop-color="#E37A42" stop-opacity="0"/>
<stop offset="1" stop-color="#E37A42"/>
</radialGradient>
<linearGradient id="paint13_linear_380_1159" x1="30.9237" y1="27.5095" x2="11.0883" y2="47.0822" gradientUnits="userSpaceOnUse">
<stop stop-color="#692167"/>
<stop offset="1" stop-color="#5B2460"/>
</linearGradient>
<linearGradient id="paint14_linear_380_1159" x1="30.9438" y1="24.0026" x2="32.3981" y2="25.3769" gradientUnits="userSpaceOnUse">
<stop stop-color="#C1BFC3"/>
<stop offset="1" stop-color="#C1BFC3" stop-opacity="0"/>
</linearGradient>
<linearGradient id="paint15_linear_380_1159" x1="34.6769" y1="26.7024" x2="33.7696" y2="25.7513" gradientUnits="userSpaceOnUse">
<stop stop-color="#B0A1BF"/>
<stop offset="1" stop-color="#B0A1BF" stop-opacity="0"/>
</linearGradient>
<radialGradient id="paint16_radial_380_1159" cx="0" cy="0" r="1" gradientUnits="userSpaceOnUse" gradientTransform="translate(35.2205 22.6876) rotate(133.904) scale(1.73127 2.09152)">
<stop offset="0.21" stop-color="#ECE8F2"/>
<stop offset="1" stop-color="#ECE8F2" stop-opacity="0"/>
</radialGradient>
<linearGradient id="paint17_linear_380_1159" x1="9.54788" y1="45.2473" x2="10.9996" y2="46.698" gradientUnits="userSpaceOnUse">
<stop stop-color="#A8A6AD"/>
<stop offset="1" stop-color="#A8A6AD" stop-opacity="0"/>
</linearGradient>
<linearGradient id="paint18_linear_380_1159" x1="8.5622" y1="49.8552" x2="9.70425" y2="48.4396" gradientUnits="userSpaceOnUse">
<stop stop-color="#968FA1"/>
<stop offset="1" stop-color="#968FA1" stop-opacity="0"/>
</linearGradient>
<radialGradient id="paint19_radial_380_1159" cx="0" cy="0" r="1" gradientUnits="userSpaceOnUse" gradientTransform="translate(10.9991 44.241) rotate(98.4753) scale(7.08328 7.23328)">
<stop offset="0.661" stop-color="#8F6EAF" stop-opacity="0"/>
<stop offset="0.918" stop-color="#8F6EAF"/>
</radialGradient>
</defs>
</svg>
