<svg width="303" height="622" viewBox="0 0 303 622" fill="none" xmlns="http://www.w3.org/2000/svg">
<g filter="url(#filter0_d_610_94)">
<path d="M293 43.0798L285.588 83.0327L278.176 81.9529L280.294 42L293 43.0798ZM286.647 90.5913C286.647 91.3157 287.004 92.1875 286.647 92.7509C286.331 93.2741 285.044 93.4685 284.529 93.8307C284.015 94.193 284.143 94.7496 283.471 94.9105C282.797 95.0715 281.986 94.9105 281.353 94.9105C280.719 94.9105 279.987 95.1118 279.235 94.9105C278.522 94.7496 277.752 94.2333 277.118 93.8307C276.524 93.4283 276.454 93.3143 276.059 92.7509C275.662 92.1874 275 91.3963 275 90.5913C275 89.7462 275.662 89.0354 276.059 88.4317C276.454 87.828 276.524 86.6343 277.118 86.2721C277.752 85.8697 278.483 86.4331 279.235 86.2721C279.988 86.0709 280.64 85.1923 281.353 85.1923C282.026 85.1923 282.837 85.9903 283.471 86.2721C284.145 86.5135 284.055 86.9092 284.529 87.3519C285.045 87.7945 286.37 87.7878 286.647 88.4317C286.963 89.0757 286.647 89.8668 286.647 90.5913Z" fill="black"/>
</g>
<g filter="url(#filter1_d_610_94)">
<path d="M282 102.727L260.222 106L261.311 100.545C260.116 100.832 258.192 101.513 256.956 101.636C255.72 101.759 254.925 101.636 253.689 101.636C251.259 101.636 248.538 101.119 246.067 100.545C243.636 100.013 241.511 99.5931 239.533 98.3636C237.597 97.1341 236.413 94.8763 235.178 92.9091C233.941 90.9419 233 89.1915 233 86.3636C233 84.0686 233.099 81.6215 234.089 79.8182C235.077 77.9739 236.837 76.725 238.444 75.4545C240.05 74.1432 241.87 72.8784 243.889 72.1818C245.948 71.4851 248.28 71.0909 250.422 71.0909C252.523 71.0909 254.854 71.731 256.956 72.1818C259.097 72.5916 260.546 72.4121 262.4 73.2727L263.489 52.5455L249.333 46L275.467 48.1818L268.933 99.4545L282 102.727ZM262.4 79.8182C261.205 78.9984 259.816 78.0051 258.044 77.6364C256.274 77.2675 254.041 76.5455 252.6 76.5455C251.117 76.5455 249.521 77.1446 248.244 77.6364C247.009 78.1283 245.884 78.9166 244.978 79.8182C244.113 80.7198 244.382 81.8204 243.889 83.0909C243.394 84.3205 242.8 85.9792 242.8 87.4545C242.8 89.053 243.106 90.6295 243.889 91.8182C244.671 92.9656 245.92 93.2213 247.156 94C248.392 94.7377 248.939 95.854 250.422 96.1818C251.905 96.5507 253.419 96.1818 254.778 96.1818C256.838 96.1818 259.293 95.9105 261.311 95.0909L262.4 79.8182Z" fill="black"/>
</g>
<g filter="url(#filter2_d_610_94)">
<path d="M233.909 65.6C233.909 67.2565 233.836 68.852 232.811 69.9429C231.788 70.9933 230.141 71.0286 228.42 71.0286C227.15 71.0286 225.824 71.473 225.127 71.0286C224.431 70.5438 224.521 69.4228 224.029 68.8571C223.579 68.2511 222.326 68.2159 221.834 67.7714C221.383 67.2866 220.498 66.6857 219.638 66.6857C218.122 66.6857 217.246 66.8017 216.345 67.7714C215.444 68.7007 214.6 70.8214 214.15 72.1143C214.11 72.1951 214.19 72.5131 214.15 73.2C214.15 73.8869 214.19 74.3209 214.15 75.3714C214.108 76.4219 214.191 77.3761 214.15 78.6286C214.11 79.8811 214.19 80.7545 214.15 81.8857C214.108 83.0171 214.191 84.254 214.15 85.1429C214.108 85.9914 214.15 87.0315 214.15 87.3143L228.42 92.7429L193.293 96C195.423 94.6666 197.749 92.9501 199.879 91.6571C202.01 90.3238 204.335 89.693 206.466 88.4L204.27 66.6857L190 63.4286L215.248 58L214.15 63.4286C215.87 62.2569 217.836 60.9796 219.638 60.1714C221.482 59.3229 224.012 59.0857 226.225 59.0857C226.962 59.0857 227.641 58.9241 228.42 59.0857C229.198 59.2473 229.92 59.8482 230.616 60.1714C231.313 60.4946 232.279 60.6915 232.811 61.2571C233.343 61.7824 233.663 62.6609 233.909 63.4286C234.114 64.1559 233.909 64.9535 233.909 65.6Z" fill="black"/>
</g>
<g filter="url(#filter3_d_610_94)">
<path d="M199 95.9091L179.5 97V93.7273C178.195 93.8897 177.557 93.6867 176.25 93.7273C174.945 93.7273 173.223 93.7273 171.917 93.7273C170.733 93.7273 170.096 94.0116 168.667 93.7273C167.238 93.4431 165.557 93.2455 164.333 92.6364C163.108 91.9867 161.9 90.3789 161.083 89.3636C160.267 88.3484 160 87.5529 160 86.0909C160 84.4665 160.308 82.8644 161.083 81.7273C161.859 80.5903 163.15 80.2357 164.333 79.5455C165.558 78.8551 167.197 77.6886 168.667 77.3636C170.136 77.0388 170.529 77.3636 171.917 77.3636C173.631 77.3636 175.7 77.2012 177.333 77.3636C178.966 77.5261 181.076 77.2419 182.75 77.3636C182.832 76.8358 182.71 76.8007 182.75 76.2727C182.791 75.7042 182.75 74.6594 182.75 74.0909C182.75 72.9945 182.954 71.8741 182.75 70.8182C182.587 69.7624 182.156 69.4486 181.667 68.6364C181.217 67.7836 180.358 66.9418 179.5 66.4545C178.684 65.9673 177.557 65.3636 176.25 65.3636C175.025 65.3636 174.021 66.0485 173 66.4545C172.021 66.8201 170.525 67.7024 169.75 68.6364C170.322 69.0831 171.712 69.1588 171.917 69.7273C172.12 70.2552 171.917 71.2187 171.917 71.9091C171.304 74.7517 169.479 76.2727 166.5 76.2727C165.153 76.2727 164.108 76.1158 163.25 75.1818C162.394 74.2071 162.167 72.1177 162.167 70.8182C162.167 69.0314 162.231 67.754 163.25 66.4545C164.271 65.155 165.03 64.0346 166.5 63.1818C168.01 62.329 170.203 62.497 171.917 62.0909C173.672 61.6848 174.78 61 176.25 61C180.943 61 184.471 62.1205 187.083 64.2727C189.737 66.4251 191.417 70.3087 191.417 75.1818C191.417 75.7098 191.458 75.7448 191.417 76.2727C191.417 76.8007 191.458 77.9267 191.417 78.4545L190.333 91.5455C191.884 92.2358 193.197 92.9964 194.667 93.7273C196.135 94.4582 197.49 95.2187 199 95.9091ZM181.667 81.7273C180.605 81.6055 179.479 81.8492 178.417 81.7273C177.356 81.5648 176.229 80.6364 175.167 80.6364C174.473 80.6364 173.695 81.5648 173 81.7273C172.347 81.8492 172.488 81.4023 171.917 81.7273C171.386 82.0521 170.076 83.3405 169.75 83.9091C169.424 84.437 169.75 84.1879 169.75 85C169.75 85.6092 169.464 86.6944 169.75 87.1818C170.036 87.6284 170.384 87.9479 170.833 88.2727C171.324 88.5976 172.47 89.2012 173 89.3636C173.572 89.5261 173.553 89.3636 174.083 89.3636C175.145 89.3636 176.273 89.4854 177.333 89.3636C178.436 89.2418 179.563 88.3945 180.583 88.2727L181.667 81.7273Z" fill="black"/>
</g>
<g filter="url(#filter4_d_610_94)">
<path d="M162 62L141.324 89.4194L151.118 90.5161L157.647 76.2581L158.735 96L125 93.8065L145.676 67.4839L133.706 68.5806L129.353 81.7419L125 63.0968L162 62Z" fill="black"/>
</g>
<g filter="url(#filter5_d_610_94)">
<path d="M119.556 52.5217C119.556 53.4216 118.839 53.8777 118.481 54.6957C118.164 55.4728 118.003 56.256 117.407 56.8696C116.852 57.4421 116.053 58.6753 115.259 59.0435C114.505 59.3707 113.985 59.0435 113.111 59.0435C112.238 59.0435 110.643 59.3707 109.889 59.0435C109.135 58.6753 108.336 57.4421 107.741 56.8696C107.185 56.256 107.024 55.4728 106.667 54.6957C106.349 53.8777 106.667 53.4216 106.667 52.5217C106.667 51.622 106.349 51.1249 106.667 50.3478C107.024 49.5707 107.185 48.7466 107.741 48.1739C108.336 47.5605 109.135 47.4141 109.889 47.087C110.643 46.7188 112.238 46 113.111 46C113.985 46 114.505 46.7188 115.259 47.087C116.053 47.4141 116.852 47.5605 117.407 48.1739C118.003 48.7466 118.164 49.5707 118.481 50.3478C118.839 51.1249 119.556 51.622 119.556 52.5217ZM126 96H99.1481L108.815 89.4783V68.8261L97 63.3913H118.481L117.407 89.4783L126 96Z" fill="black"/>
</g>
<g filter="url(#filter6_d_610_94)">
<path d="M104 94.7097L87.6667 98V92.5161C87.2191 93.091 86.1805 93.1612 85.4889 93.6129C84.7973 94.0235 84.1247 94.4222 83.3111 94.7097C82.5382 94.956 81.9469 95.6832 81.1333 95.8065C80.3196 95.9296 79.6878 95.8065 78.9556 95.8065C73.8705 95.8065 70.3042 94.98 68.0667 92.5161C65.8293 90.0524 64.8 85.4202 64.8 80.4516C64.8 78.5216 64.7594 76.8155 64.8 74.9677C64.8407 73.1199 64.7593 71.3728 64.8 69.4839C63.2134 68.5394 60.9827 68.1938 59.3556 67.2903C57.7283 66.387 56.5866 64.9444 55 64H74.6C74.3153 66.9566 73.9179 70.5859 73.5111 73.871C73.1449 77.1149 73.5111 79.7297 73.5111 82.6452C73.5111 85.2321 73.4609 86.9382 74.6 88.129C75.7391 89.3198 77.4815 90.3226 80.0444 90.3226C81.3461 90.3226 83.0982 89.965 84.4 89.2258C85.7017 88.4867 86.8937 86.962 87.6667 85.9355L88.7556 70.5806L77.8667 65.0968H98.5556L94.2 91.4194L104 94.7097Z" fill="black"/>
</g>
<g filter="url(#filter7_d_610_94)">
<path d="M68 102L27.0196 114L38.8824 104.182L36.7255 93.2727C33.6939 93.3139 30.884 93.004 28.098 92.1818C25.3122 91.3185 22.7204 90.5946 20.549 88.9091C18.3778 87.1825 16.4679 84.8712 15.1569 82.3636C13.8869 79.8559 13 76.9252 13 73.6364C13 70.1421 13.8458 67.4168 15.1569 64.9091C16.5088 62.4014 18.3367 59.9258 20.549 58.3636C22.7613 56.8014 25.2303 55.831 28.098 55.0909C31.0068 54.351 33.5709 54 36.7255 54C39.6342 54 42.69 54.1865 45.3529 55.0909C48.0159 55.9542 50.8535 57.7691 52.902 59.4545C54.9504 61.099 56.0275 62.4425 57.2157 64.9091C58.4447 67.3346 59.3725 70.512 59.3725 73.6364C59.3725 75.8975 58.9906 78.2496 58.2941 80.1818C57.6387 82.1139 56.2879 84.0742 55.0588 85.6364C53.8298 87.1984 52.4658 87.7169 50.7451 88.9091C49.0654 90.0602 47.4424 91.4829 45.3529 92.1818C45.9265 93.4974 46.7724 94.2213 47.5098 95.4545C48.2472 96.7291 48.9293 98.5848 49.6667 99.8182L68 102ZM47.5098 73.6364C47.5098 72.0331 48.0014 70.8761 47.5098 69.2727C47.0181 67.6695 46.2952 66.1835 45.3529 64.9091C44.4516 63.6347 43.5106 62.4175 42.1176 61.6364C40.7657 60.8141 38.4871 60.5455 36.7255 60.5455C34.8409 60.5455 32.9311 60.9375 31.3333 61.6364C29.7765 62.2941 29.2452 62.6259 28.098 63.8182C26.951 65.0104 25.5182 66.5784 24.8627 68.1818C24.2073 69.7851 23.7843 71.7865 23.7843 73.6364C23.7843 75.363 24.4531 76.2734 24.8627 78C25.3134 79.6855 26.1184 82.0979 27.0196 83.4545C27.9619 84.8112 28.8621 85.864 30.2549 86.7273C31.6479 87.5494 33.6806 87.8182 35.6471 87.8182C37.8593 87.8182 39.4414 87.4262 41.0392 86.7273C42.6369 86.0284 44.3287 84.6878 45.3529 83.4545C46.418 82.18 47.0182 80.7765 47.5098 79.0909C48.0424 77.3643 47.5098 75.6919 47.5098 73.6364Z" fill="black"/>
</g>
<path d="M45.5296 12.2827C45.9869 12.5794 46.3891 12.8675 46.6087 13.3692C46.8283 13.8708 47.7786 13.915 47.6877 14.4556L45.5296 26.4065C45.3697 27.3548 45.2077 28.7605 45.5296 29.6659L50.9249 43.7897C53.368 44.2768 54.635 44.1008 56.3202 44.8762C57.3363 45.3437 58.7799 46.2932 59.5573 47.0491C60.3375 47.8078 60.6364 48.794 60.6364 50.3084C60.6364 52.6824 59.747 53.8983 58.4783 54.6542C57.0262 55.5193 54.1306 56.2925 52.0039 56.8271C47.7062 57.9106 42.1093 59 35.8182 59C29.5271 59 23.9301 57.9106 19.6324 56.8271C17.5058 56.2925 15.6891 55.5193 14.2372 54.6542C12.9684 53.8983 11 52.6824 11 50.3084C11 48.7967 11.2961 47.8078 12.0791 47.0491C12.8564 46.2932 14.3001 45.3409 15.3162 44.8762C17.0042 44.1008 19.3447 44.2797 21.7905 43.7897L28.2648 24.2336C29.0602 21.9943 30.6274 20.1346 32.581 18.8014L43.3715 12.2827C43.8215 11.9757 43.9073 11.2027 44.4506 11.1963C44.994 11.1898 45.0725 11.9865 45.5296 12.2827ZM55.2411 17.715C55.7131 16.7267 56.0119 17.1802 56.3202 17.715C57.5125 20.2191 59.4396 22.6684 61.7154 24.2336C62.4456 24.6816 63.433 24.8946 62.7945 25.3201L61.7154 26.4065C59.3691 27.8593 57.6293 29.3964 56.3202 31.8388V32.9252C56.0148 33.4599 55.7131 33.9134 55.2411 32.9252C54.0488 30.4211 52.1217 27.9718 49.8458 26.4065L48.7668 25.3201C48.2588 25.6589 48.3808 25.0401 48.7668 25.3201V24.2336C51.3305 22.6463 53.939 20.4497 55.2411 17.715ZM23.9486 10.1098V11.1963C24.8204 12.82 26.6324 13.4225 28.2648 14.4556V15.5421C28.5369 15.3544 28.7784 15.8249 28.2648 15.5421C26.5983 16.4416 24.9714 18.2851 23.9486 19.8878V20.9743C23.7348 21.299 23.0639 21.2934 22.8696 20.9743V19.8878C21.9636 18.2297 21.2307 17.622 19.6324 16.6285L18.5534 15.5421C18.0398 15.2594 18.2813 15.7296 18.5534 15.5421C20.2199 14.6425 21.8468 12.7991 22.8696 11.1963C23.236 10.516 23.6987 9.70109 23.9486 10.1098Z" fill="black"/>
<path d="M51 42.9925C36.8783 46.6282 25.7826 44.5074 22 42.9925L23.0741 41C35.6828 45.5446 46.3535 42.082 49.9259 41L51 42.9925Z" fill="white"/>
<path fill-rule="evenodd" clip-rule="evenodd" d="M21.0714 40C33.2356 44.2889 45.4429 41.0328 48.9286 40L50 43.0477H48.9286C34.9701 46.563 24.9081 44.5506 21.0714 43.0477H20L21.0714 40ZM22.1429 42.0318H21.0714C25.0498 43.3888 36.1511 45.1112 48.9286 42.0318L47.8571 41.0159C43.8518 42.1818 33.8555 45.9451 22.1429 42.0318Z" fill="white"/>
<path d="M31.65 346.674H42.297V347.571H31.65V346.674ZM36.408 344.152H37.487V347.051H36.408V344.152ZM32.937 338.133H40.984V341.695H34.042V344.048H32.976V340.824H39.918V339.004H32.937V338.133ZM32.976 343.593H41.257V344.477H32.976V343.593ZM44.753 338.51H52.319V339.381H44.753V338.51ZM43.609 346.401H54.23V347.298H43.609V346.401ZM51.747 338.51H52.8V339.68C52.8 341.188 52.8 342.865 52.358 345.4L51.279 345.296C51.747 342.891 51.747 341.136 51.747 339.68V338.51ZM64.109 337.275H65.201V345.855H64.109V337.275ZM57.648 347.87H65.552V348.754H57.648V347.87ZM57.648 344.971H58.714V348.169H57.648V344.971ZM58.896 338.081C60.651 338.081 61.951 339.277 61.951 340.98C61.951 342.67 60.651 343.879 58.896 343.879C57.141 343.879 55.828 342.67 55.828 340.98C55.828 339.277 57.141 338.081 58.896 338.081ZM58.896 339.017C57.752 339.017 56.881 339.823 56.881 340.98C56.881 342.124 57.752 342.93 58.896 342.93C60.04 342.93 60.911 342.124 60.911 340.98C60.911 339.823 60.04 339.017 58.896 339.017ZM73.4686 344.529H74.5736V349.014H73.4686V344.529ZM77.5116 344.529H78.6166V349.014H77.5116V344.529ZM70.7386 343.944H81.3986V344.841H70.7386V343.944ZM76.0426 337.73C78.4996 337.73 80.1506 338.718 80.1506 340.291C80.1506 341.851 78.4996 342.852 76.0426 342.852C73.5986 342.852 71.9346 341.851 71.9346 340.291C71.9346 338.718 73.5986 337.73 76.0426 337.73ZM76.0426 338.601C74.2486 338.601 73.0266 339.264 73.0266 340.291C73.0266 341.318 74.2486 341.981 76.0426 341.981C77.8366 341.981 79.0456 341.318 79.0456 340.291C79.0456 339.264 77.8366 338.601 76.0426 338.601ZM85.8175 338.939H86.6885V340.85C86.6885 343.333 85.1935 345.829 83.3215 346.752L82.6975 345.894C84.4005 345.088 85.8175 342.878 85.8175 340.85V338.939ZM86.0255 338.939H86.8965V340.85C86.8965 342.839 88.3135 344.867 90.0425 345.608L89.4315 346.466C87.5335 345.582 86.0255 343.294 86.0255 340.85V338.939ZM83.0875 338.458H89.6525V339.368H83.0875V338.458ZM91.2385 337.262H92.3175V349.014H91.2385V337.262Z" fill="black"/>
<path d="M232.178 337.249H233.257V349.027H232.178V337.249ZM224.313 338.25H225.379V341.357H228.772V338.25H229.851V346.193H224.313V338.25ZM225.379 342.215V345.309H228.772V342.215H225.379ZM236.22 337.912H241.693V342.722H236.22V337.912ZM240.653 338.77H237.26V341.851H240.653V338.77ZM244.15 337.262H245.229V343.307H244.15V337.262ZM237.624 343.892H245.229V346.739H238.703V348.39H237.65V345.933H244.163V344.75H237.624V343.892ZM237.65 348.026H245.632V348.884H237.65V348.026ZM253.106 340.577H256.486V341.461H253.106V340.577ZM256.148 337.275H257.227V345.972H256.148V337.275ZM249.674 347.87H257.513V348.754H249.674V347.87ZM249.674 345.127H250.753V348.325H249.674V345.127ZM248.14 338.042H249.206V340.122H252.391V338.042H253.444V343.97H248.14V338.042ZM249.206 340.967V343.086H252.391V340.967H249.206ZM260.047 338.978H269.589V339.862H260.047V338.978ZM259.527 346.752H270.174V347.649H259.527V346.752ZM264.298 344.893H265.364V347.103H264.298V344.893ZM264.818 340.655C267.197 340.655 268.666 341.474 268.666 342.891C268.666 344.308 267.197 345.127 264.818 345.127C262.452 345.127 260.983 344.308 260.983 342.891C260.983 341.474 262.452 340.655 264.818 340.655ZM264.818 341.5C263.115 341.5 262.062 342.02 262.062 342.891C262.062 343.762 263.115 344.269 264.818 344.269C266.534 344.269 267.574 343.762 267.574 342.891C267.574 342.02 266.534 341.5 264.818 341.5ZM264.298 337.457H265.364V339.524H264.298V337.457ZM277.636 339.199H278.52V339.706C278.52 341.708 277.194 343.333 275.218 343.957L274.711 343.112C276.453 342.579 277.636 341.24 277.636 339.706V339.199ZM277.831 339.199H278.715V339.706C278.715 341.11 279.859 342.384 281.588 342.891L281.081 343.723C279.118 343.138 277.831 341.578 277.831 339.706V339.199ZM275.036 338.627H281.302V339.498H275.036V338.627ZM277.636 337.21H278.715V338.991H277.636V337.21ZM282.745 337.262H283.824V344.087H282.745V337.262ZM283.525 340.161H285.566V341.058H283.525V340.161ZM279.612 345.062H280.535V345.374C280.535 347.22 278.585 348.585 276.284 348.975L275.868 348.143C277.896 347.831 279.612 346.687 279.612 345.374V345.062ZM279.82 345.062H280.743V345.374C280.743 346.661 282.485 347.831 284.474 348.156L284.071 348.988C281.77 348.598 279.82 347.181 279.82 345.374V345.062ZM276.323 344.724H284.032V345.595H276.323V344.724ZM295.224 337.262H296.303V349.014H295.224V337.262ZM291.779 338.523H292.845C292.845 341.929 291.311 344.906 287.385 346.83L286.813 345.959C290.206 344.321 291.779 341.825 291.779 338.705V338.523ZM287.346 338.523H292.247V339.407H287.346V338.523Z" fill="black"/>
<rect x="1" y="544" width="300" height="40" rx="5" fill="#F9E100"/>
<path d="M103.995 559.752H105.129C105.129 563.406 103.897 566.766 99.3609 569.02L98.7309 568.124C102.735 566.15 103.995 563.322 103.995 559.878V559.752ZM99.4169 559.752H104.681V560.69H99.4169V559.752ZM103.813 562.888V563.784L98.9689 564.26L98.7869 563.224L103.813 562.888ZM107.173 558.422H108.349V571.092H107.173V558.422ZM108.027 563.56H110.365V564.526H108.027V563.56ZM116.874 559.752H118.008C118.008 563.406 116.776 566.766 112.24 569.02L111.61 568.124C115.614 566.15 116.874 563.322 116.874 559.878V559.752ZM112.296 559.752H117.56V560.69H112.296V559.752ZM116.692 562.888V563.784L111.848 564.26L111.666 563.224L116.692 562.888ZM120.052 558.422H121.228V571.092H120.052V558.422ZM120.906 563.56H123.244V564.526H120.906V563.56ZM129.501 565.59H130.663V568.74H129.501V565.59ZM130.089 559.262C132.763 559.262 134.681 560.564 134.681 562.58C134.681 564.596 132.763 565.898 130.089 565.898C127.415 565.898 125.483 564.596 125.483 562.58C125.483 560.564 127.415 559.262 130.089 559.262ZM130.089 560.186C128.073 560.186 126.603 561.138 126.603 562.58C126.603 564.022 128.073 564.974 130.089 564.974C132.091 564.974 133.561 564.022 133.561 562.58C133.561 561.138 132.091 560.186 130.089 560.186ZM124.377 568.516H135.843V569.482H124.377V568.516ZM137.256 568.572H148.722V569.538H137.256V568.572ZM142.38 565.856H143.542V568.978H142.38V565.856ZM138.642 559.374H147.308V563.21H139.832V565.744H138.684V562.272H146.16V560.312H138.642V559.374ZM138.684 565.254H147.602V566.206H138.684V565.254ZM156.597 559.528H157.549V561.796C157.549 564.708 155.981 567.41 153.909 568.46L153.195 567.508C155.071 566.612 156.597 564.19 156.597 561.796V559.528ZM156.793 559.528H157.745V561.796C157.745 564.106 159.257 566.43 161.133 567.298L160.433 568.222C158.375 567.214 156.793 564.61 156.793 561.796V559.528ZM162.449 558.422H163.611V571.106H162.449V558.422ZM169.252 559.738H170.204V560.76C170.204 563.084 168.804 565.016 166.69 565.772L166.074 564.862C167.992 564.19 169.252 562.566 169.252 560.76V559.738ZM169.462 559.738H170.414V560.746C170.414 562.426 171.632 563.98 173.494 564.61L172.892 565.52C170.806 564.792 169.462 562.93 169.462 560.746V559.738ZM166.438 559.318H173.2V560.27H166.438V559.318ZM174.796 558.436H175.958V566.052H174.796V558.436ZM175.636 561.768H177.834V562.734H175.636V561.768ZM167.74 566.724H175.958V571.092H174.796V567.69H167.74V566.724ZM187.591 558.436H188.753V571.092H187.591V558.436ZM188.473 563.63H190.825V564.61H188.473V563.63ZM178.953 560.452H186.415V561.404H178.953V560.452ZM182.733 562.454C184.525 562.454 185.813 563.658 185.813 565.366C185.813 567.074 184.525 568.278 182.733 568.278C180.955 568.278 179.653 567.074 179.653 565.366C179.653 563.658 180.955 562.454 182.733 562.454ZM182.733 563.42C181.585 563.42 180.759 564.218 180.759 565.366C180.759 566.5 181.585 567.312 182.733 567.312C183.881 567.312 184.707 566.5 184.707 565.366C184.707 564.218 183.881 563.42 182.733 563.42ZM182.131 558.59H183.293V560.886H182.131V558.59ZM201.114 558.436H202.276V571.092H201.114V558.436ZM197.404 559.794H198.552C198.552 563.462 196.9 566.668 192.672 568.74L192.056 567.802C195.71 566.038 197.404 563.35 197.404 559.99V559.794ZM192.63 559.794H197.908V560.746H192.63V559.794Z" fill="black"/>
<rect x="1" y="484" width="300" height="40" rx="5" fill="#2DB400"/>
<rect x="3" y="486" width="298" height="38" rx="5" fill="#2DB400"/>
<path d="M100.221 500.794H101.369V508.214H100.221V500.794ZM100.221 507.878H101.033C102.503 507.878 103.875 507.808 105.471 507.486L105.625 508.48C103.973 508.816 102.559 508.886 101.033 508.886H100.221V507.878ZM109.251 499.436H110.371V512.092H109.251V499.436ZM103.735 503.678H106.899V504.644H103.735V503.678ZM106.577 499.73H107.669V511.448H106.577V499.73ZM121.682 499.422H122.844V512.106H121.682V499.422ZM116.166 500.402C118.042 500.402 119.386 502.124 119.386 504.812C119.386 507.514 118.042 509.236 116.166 509.236C114.304 509.236 112.96 507.514 112.96 504.812C112.96 502.124 114.304 500.402 116.166 500.402ZM116.166 501.452C114.934 501.452 114.066 502.768 114.066 504.812C114.066 506.87 114.934 508.214 116.166 508.214C117.412 508.214 118.266 506.87 118.266 504.812C118.266 502.768 117.412 501.452 116.166 501.452ZM134.645 499.422H135.793V512.106H134.645V499.422ZM131.299 504.126H134.981V505.078H131.299V504.126ZM125.881 500.43H127.029V503.72H130.543V500.43H131.691V508.928H125.881V500.43ZM127.029 504.644V507.962H130.543V504.644H127.029ZM138.256 509.572H149.722V510.538H138.256V509.572ZM143.38 506.856H144.542V509.978H143.38V506.856ZM139.642 500.374H148.308V504.21H140.832V506.744H139.684V503.272H147.16V501.312H139.642V500.374ZM139.684 506.254H148.602V507.206H139.684V506.254ZM157.597 500.528H158.549V502.796C158.549 505.708 156.981 508.41 154.909 509.46L154.195 508.508C156.071 507.612 157.597 505.19 157.597 502.796V500.528ZM157.793 500.528H158.745V502.796C158.745 505.106 160.257 507.43 162.133 508.298L161.433 509.222C159.375 508.214 157.793 505.61 157.793 502.796V500.528ZM163.449 499.422H164.611V512.106H163.449V499.422ZM170.252 500.738H171.204V501.76C171.204 504.084 169.804 506.016 167.69 506.772L167.074 505.862C168.992 505.19 170.252 503.566 170.252 501.76V500.738ZM170.462 500.738H171.414V501.746C171.414 503.426 172.632 504.98 174.494 505.61L173.892 506.52C171.806 505.792 170.462 503.93 170.462 501.746V500.738ZM167.438 500.318H174.2V501.27H167.438V500.318ZM175.796 499.436H176.958V507.052H175.796V499.436ZM176.636 502.768H178.834V503.734H176.636V502.768ZM168.74 507.724H176.958V512.092H175.796V508.69H168.74V507.724ZM188.591 499.436H189.753V512.092H188.591V499.436ZM189.473 504.63H191.825V505.61H189.473V504.63ZM179.953 501.452H187.415V502.404H179.953V501.452ZM183.733 503.454C185.525 503.454 186.813 504.658 186.813 506.366C186.813 508.074 185.525 509.278 183.733 509.278C181.955 509.278 180.653 508.074 180.653 506.366C180.653 504.658 181.955 503.454 183.733 503.454ZM183.733 504.42C182.585 504.42 181.759 505.218 181.759 506.366C181.759 507.5 182.585 508.312 183.733 508.312C184.881 508.312 185.707 507.5 185.707 506.366C185.707 505.218 184.881 504.42 183.733 504.42ZM183.131 499.59H184.293V501.886H183.131V499.59ZM202.114 499.436H203.276V512.092H202.114V499.436ZM198.404 500.794H199.552C199.552 504.462 197.9 507.668 193.672 509.74L193.056 508.802C196.71 507.038 198.404 504.35 198.404 500.99V500.794ZM193.63 500.794H198.908V501.746H193.63V500.794Z" fill="white"/>
<rect y="390" width="128" height="2" fill="#9D9D9D"/>
<rect x="172" y="390" width="128" height="2" fill="#9D9D9D"/>
<path d="M150.23 389.985V390.798H146.143V385.821H150.091V386.634H147.146V389.985H150.23ZM151.056 393.756V394.581H140.722V393.756H145.355V391.369H146.333V393.756H151.056ZM145.457 385.821V386.646H142.613V389.973C143.565 389.966 144.511 389.89 145.559 389.655L145.647 390.493C144.416 390.772 143.375 390.811 142.245 390.798H141.623V385.821H145.457ZM161.085 388.17V388.97H153.354V385.161H154.344V388.17H161.085ZM162.278 390.506V391.318H151.944V390.506H162.278ZM161.148 394.924V395.749H153.29V392.474H154.28V394.924H161.148Z" fill="black"/>
<path d="M148.657 614.438H150.386V616.388H148.657V614.438ZM153.922 607.119H155.651V619.157H153.922V607.119ZM145.875 617.155L145.667 615.764C147.851 615.751 150.763 615.751 153.298 615.413L153.415 616.661C150.802 617.142 148.007 617.155 145.875 617.155ZM145.901 608.445H153.142V609.797H145.901V608.445ZM149.515 610.278C151.296 610.278 152.531 611.188 152.531 612.527C152.531 613.879 151.296 614.789 149.515 614.789C147.76 614.789 146.525 613.879 146.525 612.527C146.525 611.188 147.76 610.278 149.515 610.278ZM149.515 611.578C148.735 611.578 148.176 611.916 148.176 612.527C148.176 613.151 148.735 613.489 149.515 613.489C150.321 613.489 150.88 613.151 150.88 612.527C150.88 611.916 150.321 611.578 149.515 611.578ZM148.657 607.171H150.386V609.225H148.657V607.171ZM160.694 613.294H162.423V615.933H160.694V613.294ZM165.972 607.119H167.701V616.232H165.972V607.119ZM159.03 617.571H167.961V618.949H159.03V617.571ZM159.03 615.374H160.759V617.935H159.03V615.374ZM157.73 613.814L157.522 612.436C159.719 612.436 162.657 612.41 165.179 612.085L165.283 613.32C162.722 613.749 159.901 613.814 157.73 613.814ZM163.697 614.113H166.349V615.296H163.697V614.113ZM161.396 607.535C163.151 607.535 164.386 608.406 164.386 609.68C164.386 610.967 163.151 611.825 161.396 611.825C159.628 611.825 158.393 610.967 158.393 609.68C158.393 608.406 159.628 607.535 161.396 607.535ZM161.396 608.796C160.59 608.796 160.031 609.095 160.031 609.68C160.031 610.265 160.59 610.564 161.396 610.564C162.189 610.564 162.748 610.265 162.748 609.68C162.748 609.095 162.189 608.796 161.396 608.796ZM177.216 607.106H178.958V619.144H177.216V607.106ZM178.503 611.708H180.622V613.125H178.503V611.708ZM174.057 608.354H175.747C175.747 611.968 174.369 615.062 170.365 617.077L169.403 615.764C172.562 614.126 174.057 611.916 174.057 608.653V608.354ZM170.066 608.354H174.941V609.745H170.066V608.354ZM189.747 607.119H191.489V613.593H189.747V607.119ZM183.481 614.113H185.184V615.231H189.773V614.113H191.489V619.027H183.481V614.113ZM185.184 616.557V617.649H189.773V616.557H185.184ZM184.937 607.613C186.809 607.613 188.2 608.796 188.2 610.46C188.2 612.124 186.809 613.307 184.937 613.307C183.065 613.307 181.661 612.124 181.661 610.46C181.661 608.796 183.065 607.613 184.937 607.613ZM184.937 609.043C184.014 609.043 183.351 609.576 183.351 610.46C183.351 611.357 184.014 611.877 184.937 611.877C185.847 611.877 186.51 611.357 186.51 610.46C186.51 609.576 185.847 609.043 184.937 609.043Z" fill="#9055D1"/>
<path d="M145.082 619.95H192.919V620.6H145.082V619.95Z" fill="#9055D1"/>
<path d="M7.98924 608.159C9.71824 608.159 10.9402 609.758 10.9402 612.254C10.9402 614.763 9.71824 616.362 7.98924 616.362C6.26024 616.362 5.03824 614.763 5.03824 612.254C5.03824 609.758 6.26024 608.159 7.98924 608.159ZM7.98924 609.134C6.84524 609.134 6.06524 610.356 6.06524 612.254C6.06524 614.165 6.84524 615.413 7.98924 615.413C9.12024 615.413 9.91324 614.165 9.91324 612.254C9.91324 610.356 9.12024 609.134 7.98924 609.134ZM12.8122 607.262H13.9042V619.014H12.8122V607.262ZM13.6442 611.955H15.8282V612.865H13.6442V611.955ZM19.9482 608.471H20.8452V609.407C20.8452 611.565 19.5192 613.372 17.5432 614.074L16.9842 613.229C18.7522 612.605 19.9482 611.071 19.9482 609.407V608.471ZM20.1562 608.471H21.0532V609.407C21.0532 610.993 22.2752 612.423 24.0172 613.008L23.4582 613.853C21.5082 613.19 20.1562 611.461 20.1562 609.407V608.471ZM25.3692 607.262H26.4612V614.373H25.3692V607.262ZM18.6092 614.997H26.4612V619.014H25.3692V615.881H18.6092V614.997ZM17.2702 608.081H23.7052V608.952H17.2702V608.081ZM35.0354 614.308H36.1274V616.245H35.0354V614.308ZM40.1834 607.262H41.2624V619.014H40.1834V607.262ZM31.9024 616.778L31.7594 615.881C33.9824 615.868 36.9074 615.842 39.4424 615.517L39.5204 616.31C36.9074 616.752 34.0734 616.778 31.9024 616.778ZM32.0064 608.692H39.1434V609.563H32.0064V608.692ZM35.5684 610.239C37.2584 610.239 38.4024 611.097 38.4024 612.41C38.4024 613.736 37.2584 614.581 35.5684 614.581C33.8914 614.581 32.7474 613.736 32.7474 612.41C32.7474 611.097 33.8914 610.239 35.5684 610.239ZM35.5684 611.071C34.5154 611.071 33.7744 611.604 33.7744 612.41C33.7744 613.216 34.5154 613.749 35.5684 613.749C36.6344 613.749 37.3754 613.216 37.3754 612.41C37.3754 611.604 36.6344 611.071 35.5684 611.071ZM35.0354 607.262H36.1144V609.173H35.0354V607.262ZM46.9814 613.177H48.0604V615.79H46.9814V613.177ZM52.1944 607.262H53.2734V616.206H52.1944V607.262ZM45.2524 617.87H53.5594V618.754H45.2524V617.87ZM45.2524 615.335H46.3314V618.117H45.2524V615.335ZM43.7314 613.58L43.5884 612.696C45.7594 612.696 48.6714 612.67 51.1674 612.345L51.2454 613.138C48.7104 613.541 45.8634 613.58 43.7314 613.58ZM49.8024 614.204H52.4674V614.997H49.8024V614.204ZM47.4104 607.743C49.1264 607.743 50.2964 608.549 50.2964 609.784C50.2964 611.032 49.1264 611.838 47.4104 611.838C45.6814 611.838 44.5114 611.032 44.5114 609.784C44.5114 608.549 45.6814 607.743 47.4104 607.743ZM47.4104 608.549C46.3054 608.549 45.5384 609.03 45.5384 609.784C45.5384 610.538 46.3054 611.019 47.4104 611.019C48.5024 611.019 49.2694 610.538 49.2694 609.784C49.2694 609.03 48.5024 608.549 47.4104 608.549ZM64.1404 607.249H65.2194V619.027H64.1404V607.249ZM59.0184 608.159C60.7604 608.159 62.0084 609.758 62.0084 612.254C62.0084 614.763 60.7604 616.362 59.0184 616.362C57.2894 616.362 56.0414 614.763 56.0414 612.254C56.0414 609.758 57.2894 608.159 59.0184 608.159ZM59.0184 609.134C57.8744 609.134 57.0684 610.356 57.0684 612.254C57.0684 614.165 57.8744 615.413 59.0184 615.413C60.1754 615.413 60.9684 614.165 60.9684 612.254C60.9684 610.356 60.1754 609.134 59.0184 609.134ZM73.5986 608.159C75.3276 608.159 76.5496 609.758 76.5496 612.254C76.5496 614.763 75.3276 616.362 73.5986 616.362C71.8696 616.362 70.6476 614.763 70.6476 612.254C70.6476 609.758 71.8696 608.159 73.5986 608.159ZM73.5986 609.134C72.4546 609.134 71.6746 610.356 71.6746 612.254C71.6746 614.165 72.4546 615.413 73.5986 615.413C74.7296 615.413 75.5226 614.165 75.5226 612.254C75.5226 610.356 74.7296 609.134 73.5986 609.134ZM78.4216 607.262H79.5136V619.014H78.4216V607.262ZM79.2536 611.955H81.4376V612.865H79.2536V611.955ZM90.9786 607.262H92.0576V619.014H90.9786V607.262ZM83.1786 608.406H84.2446V615.686H83.1786V608.406ZM83.1786 615.049H84.1406C85.9216 615.049 87.7806 614.919 89.7696 614.503L89.8996 615.426C87.8586 615.842 85.9996 615.985 84.1406 615.985H83.1786V615.049ZM102.938 607.275H104.03V615.881H102.938V607.275ZM96.4766 617.87H104.381V618.754H96.4766V617.87ZM96.4766 615.088H97.5426V618.286H96.4766V615.088ZM97.4516 607.912H98.3486V609.108C98.3486 611.396 97.0486 613.398 95.0726 614.204L94.5136 613.333C96.2816 612.644 97.4516 610.928 97.4516 609.108V607.912ZM97.6466 607.912H98.5306V609.108C98.5306 610.876 99.7136 612.475 101.469 613.112L100.897 613.983C98.9466 613.229 97.6466 611.344 97.6466 609.108V607.912ZM114.299 607.249H115.391V619.014H114.299V607.249ZM115.092 612.02H117.263V612.917H115.092V612.02ZM111.296 608.523H112.349C112.349 611.864 110.815 614.88 107.019 616.791L106.421 615.959C109.671 614.308 111.296 611.799 111.296 608.692V608.523ZM106.967 608.523H111.855V609.407H106.967V608.523ZM120.915 613.307H121.981V616.83H120.915V613.307ZM125.257 613.307H126.336V616.83H125.257V613.307ZM118.315 616.622H128.962V617.519H118.315V616.622ZM123.619 608.003C126.102 608.003 127.883 609.186 127.883 611.032C127.883 612.865 126.102 614.048 123.619 614.048C121.123 614.048 119.342 612.865 119.342 611.032C119.342 609.186 121.123 608.003 123.619 608.003ZM123.619 608.861C121.734 608.861 120.382 609.719 120.382 611.032C120.382 612.332 121.734 613.19 123.619 613.19C125.504 613.19 126.843 612.332 126.843 611.032C126.843 609.719 125.504 608.861 123.619 608.861ZM131.938 615.127C131.626 612.865 133.94 612.033 133.94 610.499C133.94 609.719 133.459 609.082 132.536 609.082C131.886 609.082 131.301 609.394 130.846 609.914L130.17 609.29C130.781 608.614 131.6 608.094 132.653 608.094C134.135 608.094 135.097 608.991 135.097 610.421C135.097 612.332 132.744 613.086 132.991 615.127H131.938ZM132.497 618.182C132.016 618.182 131.639 617.805 131.639 617.272C131.639 616.726 132.016 616.362 132.497 616.362C132.965 616.362 133.355 616.726 133.355 617.272C133.355 617.805 132.965 618.182 132.497 618.182Z" fill="black"/>
<rect x="2" y="218" width="298" height="38" rx="4" fill="white" stroke="#C2C2C2" stroke-width="2"/>
<path d="M13.88 241.774C12.942 241.774 12.116 241.004 12.116 239.898C12.116 238.764 12.942 237.994 13.88 237.994C14.79 237.994 15.616 238.764 15.616 239.898C15.616 241.004 14.79 241.774 13.88 241.774ZM18.6378 241.774C17.6998 241.774 16.8738 241.004 16.8738 239.898C16.8738 238.764 17.6998 237.994 18.6378 237.994C19.5478 237.994 20.3738 238.764 20.3738 239.898C20.3738 241.004 19.5478 241.774 18.6378 241.774ZM23.3956 241.774C22.4576 241.774 21.6316 241.004 21.6316 239.898C21.6316 238.764 22.4576 237.994 23.3956 237.994C24.3056 237.994 25.1316 238.764 25.1316 239.898C25.1316 241.004 24.3056 241.774 23.3956 241.774ZM28.1534 241.774C27.2154 241.774 26.3894 241.004 26.3894 239.898C26.3894 238.764 27.2154 237.994 28.1534 237.994C29.0634 237.994 29.8894 238.764 29.8894 239.898C29.8894 241.004 29.0634 241.774 28.1534 241.774ZM32.9113 241.774C31.9733 241.774 31.1473 241.004 31.1473 239.898C31.1473 238.764 31.9733 237.994 32.9113 237.994C33.8213 237.994 34.6472 238.764 34.6472 239.898C34.6472 241.004 33.8213 241.774 32.9113 241.774ZM37.6691 241.774C36.7311 241.774 35.9051 241.004 35.9051 239.898C35.9051 238.764 36.7311 237.994 37.6691 237.994C38.5791 237.994 39.4051 238.764 39.4051 239.898C39.4051 241.004 38.5791 241.774 37.6691 241.774ZM42.4269 241.774C41.4889 241.774 40.6629 241.004 40.6629 239.898C40.6629 238.764 41.4889 237.994 42.4269 237.994C43.3369 237.994 44.1629 238.764 44.1629 239.898C44.1629 241.004 43.3369 241.774 42.4269 241.774ZM47.1847 241.774C46.2467 241.774 45.4207 241.004 45.4207 239.898C45.4207 238.764 46.2467 237.994 47.1847 237.994C48.0947 237.994 48.9207 238.764 48.9207 239.898C48.9207 241.004 48.0947 241.774 47.1847 241.774ZM51.9425 241.774C51.0045 241.774 50.1785 241.004 50.1785 239.898C50.1785 238.764 51.0045 237.994 51.9425 237.994C52.8525 237.994 53.6785 238.764 53.6785 239.898C53.6785 241.004 52.8525 241.774 51.9425 241.774ZM56.7003 241.774C55.7623 241.774 54.9363 241.004 54.9363 239.898C54.9363 238.764 55.7623 237.994 56.7003 237.994C57.6103 237.994 58.4363 238.764 58.4363 239.898C58.4363 241.004 57.6103 241.774 56.7003 241.774Z" fill="black"/>
<path d="M279.316 234.75L282.75 238.173V238C282.75 237.138 282.408 236.311 281.798 235.702C281.189 235.092 280.362 234.75 279.5 234.75H279.316ZM274.657 235.617L276.337 237.296C276.282 237.523 276.25 237.751 276.25 238C276.25 238.862 276.592 239.689 277.202 240.298C277.811 240.908 278.638 241.25 279.5 241.25C279.738 241.25 279.977 241.218 280.204 241.163L281.883 242.842C281.157 243.2 280.356 243.417 279.5 243.417C278.063 243.417 276.686 242.846 275.67 241.83C274.654 240.814 274.083 239.437 274.083 238C274.083 237.144 274.3 236.343 274.657 235.617ZM268.667 229.626L271.137 232.096L271.624 232.583C269.837 233.992 268.428 235.833 267.583 238C269.457 242.756 274.083 246.125 279.5 246.125C281.179 246.125 282.782 245.8 284.245 245.215L284.711 245.67L287.874 248.833L289.25 247.458L270.042 228.25M279.5 232.583C280.937 232.583 282.314 233.154 283.33 234.17C284.346 235.186 284.917 236.563 284.917 238C284.917 238.693 284.776 239.365 284.527 239.972L287.701 243.146C289.326 241.792 290.626 240.015 291.417 238C289.542 233.244 284.917 229.875 279.5 229.875C277.983 229.875 276.532 230.146 275.167 230.633L277.517 232.963C278.135 232.724 278.796 232.583 279.5 232.583Z" fill="#808080"/>
<rect x="2" y="425" width="298" height="38" rx="9" fill="white" stroke="#C2C2C2" stroke-width="2"/>
<path d="M100.536 451.196C97.8485 451.196 95.9165 449.208 95.9165 445.876C95.9165 442.572 97.9045 440.556 100.62 440.556C102.034 440.556 102.972 441.2 103.574 441.816L102.86 442.656C102.342 442.124 101.684 441.69 100.648 441.69C98.5765 441.69 97.2465 443.286 97.2465 445.848C97.2465 448.438 98.4645 450.048 100.662 450.048C101.404 450.048 102.118 449.824 102.51 449.46V446.772H100.34V445.694H103.714V450.006C103.042 450.692 101.922 451.196 100.536 451.196ZM108.999 451.196C107.123 451.196 105.471 449.726 105.471 447.22C105.471 444.672 107.123 443.216 108.999 443.216C110.861 443.216 112.513 444.672 112.513 447.22C112.513 449.726 110.861 451.196 108.999 451.196ZM108.999 450.132C110.315 450.132 111.197 448.956 111.197 447.22C111.197 445.456 110.315 444.28 108.999 444.28C107.669 444.28 106.787 445.456 106.787 447.22C106.787 448.956 107.669 450.132 108.999 450.132ZM117.489 451.196C115.613 451.196 113.961 449.726 113.961 447.22C113.961 444.672 115.613 443.216 117.489 443.216C119.351 443.216 121.003 444.672 121.003 447.22C121.003 449.726 119.351 451.196 117.489 451.196ZM117.489 450.132C118.805 450.132 119.687 448.956 119.687 447.22C119.687 445.456 118.805 444.28 117.489 444.28C116.159 444.28 115.277 445.456 115.277 447.22C115.277 448.956 116.159 450.132 117.489 450.132ZM125.587 454.5C123.725 454.5 122.437 453.772 122.437 452.47C122.437 451.826 122.857 451.196 123.557 450.748V450.692C123.165 450.44 122.871 450.034 122.871 449.432C122.871 448.802 123.319 448.312 123.725 448.032V447.976C123.221 447.57 122.717 446.842 122.717 445.932C122.717 444.252 124.033 443.216 125.573 443.216C126.007 443.216 126.385 443.3 126.651 443.398H129.297V444.392H127.743C128.107 444.742 128.359 445.302 128.359 445.96C128.359 447.584 127.127 448.592 125.573 448.592C125.209 448.592 124.789 448.508 124.439 448.34C124.173 448.564 123.949 448.83 123.949 449.236C123.949 449.726 124.271 450.076 125.293 450.076H126.777C128.541 450.076 129.423 450.622 129.423 451.882C129.423 453.296 127.925 454.5 125.587 454.5ZM125.573 447.738C126.455 447.738 127.197 447.024 127.197 445.932C127.197 444.812 126.469 444.14 125.573 444.14C124.677 444.14 123.949 444.798 123.949 445.932C123.949 447.024 124.691 447.738 125.573 447.738ZM125.755 453.632C127.225 453.632 128.177 452.862 128.177 452.078C128.177 451.364 127.631 451.126 126.637 451.126H125.321C125.027 451.126 124.677 451.098 124.327 451C123.781 451.392 123.557 451.854 123.557 452.288C123.557 453.114 124.383 453.632 125.755 453.632ZM132.272 451.196C131.306 451.196 130.928 450.58 130.928 449.488V439.87H132.202V449.572C132.202 449.978 132.37 450.132 132.566 450.132C132.622 450.132 132.678 450.132 132.832 450.104L133 451.084C132.818 451.14 132.622 451.196 132.272 451.196ZM137.972 451.196C135.942 451.196 134.332 449.712 134.332 447.22C134.332 444.742 135.998 443.216 137.748 443.216C139.68 443.216 140.772 444.602 140.772 446.786C140.772 447.052 140.758 447.318 140.716 447.514H135.592C135.69 449.124 136.67 450.174 138.126 450.174C138.854 450.174 139.456 449.936 140.016 449.558L140.478 450.412C139.806 450.846 139.008 451.196 137.972 451.196ZM135.578 446.59H139.652C139.652 445.064 138.966 444.238 137.762 444.238C136.698 444.238 135.746 445.092 135.578 446.59ZM142.07 449.572H153.536V450.538H142.07V449.572ZM147.194 446.856H148.356V449.978H147.194V446.856ZM143.456 440.374H152.122V444.21H144.646V446.744H143.498V443.272H150.974V441.312H143.456V440.374ZM143.498 446.254H152.416V447.206H143.498V446.254ZM161.412 440.528H162.364V442.796C162.364 445.708 160.796 448.41 158.724 449.46L158.01 448.508C159.886 447.612 161.412 445.19 161.412 442.796V440.528ZM161.608 440.528H162.56V442.796C162.56 445.106 164.072 447.43 165.948 448.298L165.248 449.222C163.19 448.214 161.608 445.61 161.608 442.796V440.528ZM167.264 439.422H168.426V452.106H167.264V439.422ZM174.067 440.738H175.019V441.76C175.019 444.084 173.619 446.016 171.505 446.772L170.889 445.862C172.807 445.19 174.067 443.566 174.067 441.76V440.738ZM174.277 440.738H175.229V441.746C175.229 443.426 176.447 444.98 178.309 445.61L177.707 446.52C175.621 445.792 174.277 443.93 174.277 441.746V440.738ZM171.253 440.318H178.015V441.27H171.253V440.318ZM179.611 439.436H180.773V447.052H179.611V439.436ZM180.451 442.768H182.649V443.734H180.451V442.768ZM172.555 447.724H180.773V452.092H179.611V448.69H172.555V447.724ZM192.406 439.436H193.568V452.092H192.406V439.436ZM193.288 444.63H195.64V445.61H193.288V444.63ZM183.768 441.452H191.23V442.404H183.768V441.452ZM187.548 443.454C189.34 443.454 190.628 444.658 190.628 446.366C190.628 448.074 189.34 449.278 187.548 449.278C185.77 449.278 184.468 448.074 184.468 446.366C184.468 444.658 185.77 443.454 187.548 443.454ZM187.548 444.42C186.4 444.42 185.574 445.218 185.574 446.366C185.574 447.5 186.4 448.312 187.548 448.312C188.696 448.312 189.522 447.5 189.522 446.366C189.522 445.218 188.696 444.42 187.548 444.42ZM186.946 439.59H188.108V441.886H186.946V439.59ZM205.929 439.436H207.091V452.092H205.929V439.436ZM202.219 440.794H203.367C203.367 444.462 201.715 447.668 197.487 449.74L196.871 448.802C200.525 447.038 202.219 444.35 202.219 440.99V440.794ZM197.445 440.794H202.723V441.746H197.445V440.794Z" fill="#808080"/>
<rect x="1" y="277" width="300" height="40" rx="5" fill="#9055D1"/>
<path d="M144.125 298.372H145.287V299.996H144.125V298.372ZM149.459 292.45H150.621V300.934H149.459V292.45ZM150.131 296.272H152.469V297.238H150.131V296.272ZM140.891 300.57L140.737 299.618C143.005 299.618 146.085 299.618 148.703 299.24L148.801 300.066C146.099 300.542 143.103 300.556 140.891 300.57ZM142.305 301.564H150.621V305.092H149.459V302.488H142.305V301.564ZM141.059 293.584H148.325V294.452H141.059V293.584ZM144.699 294.942C146.477 294.942 147.639 295.656 147.639 296.818C147.639 297.98 146.477 298.694 144.699 298.694C142.907 298.694 141.745 297.98 141.745 296.818C141.745 295.656 142.907 294.942 144.699 294.942ZM144.699 295.74C143.565 295.74 142.837 296.146 142.837 296.818C142.837 297.462 143.565 297.882 144.699 297.882C145.819 297.882 146.547 297.462 146.547 296.818C146.547 296.146 145.819 295.74 144.699 295.74ZM144.125 292.338H145.287V294.004H144.125V292.338ZM162.898 292.45H164.074V301.69H162.898V292.45ZM155.94 303.86H164.452V304.812H155.94V303.86ZM155.94 300.738H157.088V304.182H155.94V300.738ZM157.284 293.318C159.174 293.318 160.574 294.606 160.574 296.44C160.574 298.26 159.174 299.562 157.284 299.562C155.394 299.562 153.98 298.26 153.98 296.44C153.98 294.606 155.394 293.318 157.284 293.318ZM157.284 294.326C156.052 294.326 155.114 295.194 155.114 296.44C155.114 297.672 156.052 298.54 157.284 298.54C158.516 298.54 159.454 297.672 159.454 296.44C159.454 295.194 158.516 294.326 157.284 294.326Z" fill="white"/>
<rect x="2" y="158" width="298" height="37.9997" rx="4" fill="white" stroke="#C2C2C2" stroke-width="2"/>
<path d="M13.288 184V172.87H14.548V180.416H14.59L17.824 176.398H19.252L16.718 179.464L19.574 184H18.188L15.962 180.332L14.548 181.998V184H13.288ZM21.0126 184V176.398H22.2866V184H21.0126ZM21.6566 174.83C21.1526 174.83 20.8026 174.508 20.8026 173.976C20.8026 173.486 21.1526 173.164 21.6566 173.164C22.1466 173.164 22.5106 173.486 22.5106 173.976C22.5106 174.508 22.1466 174.83 21.6566 174.83ZM24.8681 184V172.87H26.1421V175.908L26.1001 177.476C26.8001 176.79 27.5701 176.216 28.6201 176.216C30.2161 176.216 30.9441 177.252 30.9441 179.184V184H29.6561V179.352C29.6561 177.924 29.2221 177.322 28.2141 177.322C27.4441 177.322 26.8981 177.728 26.1421 178.484V184H24.8681ZM33.316 184V182.936H35.598V175.586H33.764V174.76C34.688 174.592 35.346 174.354 35.892 174.032H36.872V182.936H38.944V184H33.316ZM40.4656 184V183.258C43.4756 180.262 45.1556 178.456 45.1556 176.818C45.1556 175.684 44.5536 174.872 43.2796 174.872C42.4396 174.872 41.7116 175.404 41.1376 176.076L40.3956 175.348C41.2356 174.438 42.1316 173.85 43.4336 173.85C45.2676 173.85 46.4156 174.998 46.4156 176.776C46.4156 178.652 44.6936 180.514 42.3276 183.006C42.8596 182.95 43.4896 182.908 44.0076 182.908H46.9056V184H40.4656ZM51.2972 184.196C49.6872 184.196 48.6932 183.524 48.0212 182.782L48.6652 181.942C49.2672 182.572 50.0372 183.132 51.2132 183.132C52.4312 183.132 53.2992 182.418 53.2992 181.298C53.2992 180.108 52.4732 179.31 50.1072 179.31V178.33C52.2212 178.33 52.9352 177.504 52.9352 176.454C52.9352 175.488 52.2772 174.872 51.2132 174.872C50.3872 174.872 49.6592 175.306 49.0852 175.894L48.3992 175.082C49.1692 174.368 50.0792 173.85 51.2552 173.85C52.9772 173.85 54.2372 174.76 54.2372 176.37C54.2372 177.574 53.5092 178.344 52.4172 178.75V178.806C53.6212 179.086 54.6012 179.982 54.6012 181.34C54.6012 183.118 53.1312 184.196 51.2972 184.196ZM60.1269 184V177.308C60.1269 176.79 60.1689 175.922 60.2109 175.404H60.1409C59.8889 175.866 59.6089 176.314 59.3289 176.804L56.9909 180.234H62.7029V181.242H55.6469V180.402L59.9169 174.032H61.3309V184H60.1269Z" fill="black"/>
<path d="M9.66659 336.417H18.3333C19.3291 336.417 20.3152 336.613 21.2353 336.994C22.1553 337.375 22.9913 337.933 23.6955 338.638C24.3997 339.342 24.9582 340.178 25.3393 341.098C25.7204 342.018 25.9166 343.004 25.9166 344C25.9166 344.996 25.7204 345.982 25.3393 346.902C24.9582 347.822 24.3997 348.658 23.6955 349.362C22.9913 350.066 22.1553 350.625 21.2353 351.006C20.3152 351.387 19.3291 351.583 18.3333 351.583H9.66659C8.67073 351.583 7.68462 351.387 6.76457 351.006C5.84452 350.625 5.00854 350.066 4.30436 349.362C3.60018 348.658 3.0416 347.822 2.6605 346.902C2.2794 345.982 2.08325 344.996 2.08325 344C2.08325 343.004 2.2794 342.018 2.6605 341.098C3.0416 340.178 3.60018 339.342 4.30436 338.638C5.00854 337.933 5.84452 337.375 6.76457 336.994C7.68462 336.613 8.67073 336.417 9.66659 336.417ZM18.3333 347.25C19.1952 347.25 20.0219 346.907 20.6314 346.298C21.2408 345.688 21.5833 344.862 21.5833 344C21.5833 343.138 21.2408 342.311 20.6314 341.702C20.0219 341.092 19.1952 340.75 18.3333 340.75C17.4713 340.75 16.6446 341.092 16.0352 341.702C15.4257 342.311 15.0833 343.138 15.0833 344C15.0833 344.862 15.4257 345.688 16.0352 346.298C16.6446 346.907 17.4713 347.25 18.3333 347.25Z" fill="black"/>
<path d="M24.9988 555.25C31.3094 555.25 36.4242 559.261 36.4242 564.209C36.4242 569.157 31.3094 573.168 24.9999 573.168C24.3717 573.168 23.744 573.128 23.1209 573.047L18.3249 576.203C17.7798 576.493 17.5872 576.462 17.8114 575.751L18.7819 571.725C15.6484 570.127 13.5757 567.358 13.5757 564.209C13.5757 559.262 18.6894 555.25 24.9999 555.25M31.428 564.073L33.0274 562.514C33.1196 562.417 33.1711 562.289 33.171 562.155C33.1708 562.021 33.119 561.892 33.0265 561.796C32.934 561.7 32.808 561.644 32.675 561.639C32.542 561.635 32.4125 561.682 32.3136 561.772L30.2159 563.814V562.126C30.2159 561.989 30.1618 561.858 30.0655 561.761C29.9692 561.664 29.8386 561.61 29.7024 561.61C29.5662 561.61 29.4355 561.664 29.3392 561.761C29.2429 561.858 29.1888 561.989 29.1888 562.126V564.925C29.1696 565.005 29.1696 565.089 29.1888 565.168V566.744C29.1888 566.881 29.2429 567.012 29.3392 567.109C29.4355 567.206 29.5662 567.26 29.7024 567.26C29.8386 567.26 29.9692 567.206 30.0655 567.109C30.1618 567.012 30.2159 566.881 30.2159 566.744V565.252L30.6805 564.799L32.2342 567.025C32.273 567.08 32.3223 567.128 32.3792 567.164C32.4362 567.201 32.4998 567.225 32.5662 567.237C32.6327 567.249 32.7008 567.247 32.7667 567.232C32.8326 567.217 32.8949 567.19 32.9501 567.151C33.0053 567.112 33.0524 567.062 33.0886 567.005C33.1247 566.947 33.1493 566.884 33.1609 566.817C33.1726 566.75 33.171 566.681 33.1563 566.615C33.1416 566.549 33.114 566.486 33.0752 566.43L31.428 564.073ZM28.2096 566.179H26.6211V562.143C26.615 562.01 26.5583 561.885 26.4628 561.793C26.3672 561.701 26.2402 561.65 26.1081 561.65C25.976 561.65 25.8489 561.701 25.7534 561.793C25.6579 561.885 25.6012 562.01 25.5951 562.143V566.695C25.5951 566.98 25.8236 567.212 26.1075 567.212H28.2096C28.3458 567.212 28.4764 567.158 28.5727 567.061C28.669 566.964 28.7231 566.832 28.7231 566.695C28.7231 566.558 28.669 566.427 28.5727 566.33C28.4764 566.233 28.3458 566.179 28.2096 566.179ZM21.837 564.984L22.5943 563.115L23.2885 564.983L21.837 564.984ZM24.5821 565.518L24.5843 565.5C24.584 565.37 24.5347 565.245 24.4461 565.15L23.308 562.085C23.2603 561.939 23.1695 561.811 23.0476 561.718C22.9257 561.625 22.7785 561.572 22.6259 561.566C22.4721 561.565 22.3217 561.612 22.1948 561.699C22.0679 561.787 21.9704 561.911 21.9154 562.055L20.1071 566.516C20.0556 566.643 20.0563 566.785 20.109 566.911C20.1618 567.038 20.2622 567.138 20.3883 567.19C20.5144 567.241 20.6558 567.241 20.7814 567.188C20.907 567.135 21.0065 567.033 21.058 566.907L21.4192 566.017H23.6714L23.9957 566.892C24.0178 566.958 24.0527 567.018 24.0985 567.07C24.1442 567.121 24.1997 567.163 24.2618 567.193C24.3239 567.223 24.3913 567.239 24.4599 567.242C24.5286 567.245 24.5971 567.234 24.6615 567.21C24.7259 567.186 24.7848 567.149 24.8347 567.102C24.8846 567.054 24.9246 566.997 24.9522 566.934C24.9798 566.87 24.9945 566.802 24.9954 566.733C24.9963 566.664 24.9834 566.595 24.9575 566.531L24.5821 565.518ZM20.9666 562.148C20.9666 562.011 20.9127 561.88 20.8166 561.783C20.7205 561.686 20.5902 561.632 20.4542 561.632H16.9235C16.7873 561.632 16.6567 561.686 16.5604 561.783C16.4641 561.88 16.41 562.011 16.41 562.148C16.41 562.285 16.4641 562.417 16.5604 562.514C16.6567 562.611 16.7873 562.665 16.9235 562.665H18.1856V566.754C18.1856 566.892 18.2397 567.023 18.3361 567.12C18.4324 567.217 18.563 567.271 18.6992 567.271C18.8354 567.271 18.966 567.217 19.0623 567.12C19.1586 567.023 19.2127 566.892 19.2127 566.754V562.665H20.4531C20.5893 562.665 20.7199 562.611 20.8162 562.514C20.9125 562.417 20.9666 562.285 20.9666 562.148Z" fill="black"/>
<g clip-path="url(#clip0_610_94)">
<path d="M28.2048 505.634L21.532 496H16V514H21.7945V504.367L28.468 514H34V496H28.2048V505.634Z" fill="white"/>
</g>
<path d="M35.6227 442.878H34.7501V442.833H25.0001V447.167H31.1225C30.2293 449.689 27.8292 451.5 25.0001 451.5C21.4105 451.5 18.5001 448.59 18.5001 445C18.5001 441.41 21.4105 438.5 25.0001 438.5C26.657 438.5 28.1645 439.125 29.3123 440.146L32.3765 437.082C30.4417 435.279 27.8536 434.167 25.0001 434.167C19.0174 434.167 14.1667 439.017 14.1667 445C14.1667 450.983 19.0174 455.833 25.0001 455.833C30.9828 455.833 35.8334 450.983 35.8334 445C35.8334 444.274 35.7587 443.565 35.6227 442.878Z" fill="#FFC107"/>
<path d="M15.4158 439.958L18.9751 442.568C19.9381 440.184 22.2706 438.5 25 438.5C26.657 438.5 28.1644 439.125 29.3122 440.146L32.3764 437.082C30.4416 435.279 27.8535 434.167 25 434.167C20.8389 434.167 17.2304 436.516 15.4158 439.958Z" fill="#FF3D00"/>
<path d="M25.0001 455.833C27.7983 455.833 30.3409 454.762 32.2633 453.021L28.9104 450.184C27.7862 451.039 26.4125 451.501 25.0001 451.5C22.1823 451.5 19.7898 449.703 18.8885 447.196L15.3557 449.918C17.1486 453.426 20.7897 455.833 25.0001 455.833Z" fill="#4CAF50"/>
<path d="M35.6226 442.878H34.75V442.833H25V447.167H31.1225C30.6952 448.367 29.9256 449.416 28.9087 450.184L28.9103 450.183L32.2632 453.02C32.026 453.236 35.8333 450.417 35.8333 445C35.8333 444.274 35.7586 443.565 35.6226 442.878Z" fill="#1976D2"/>
<defs>
<filter id="filter0_d_610_94" x="271.578" y="42" width="24.8444" height="59.8444" filterUnits="userSpaceOnUse" color-interpolation-filters="sRGB">
<feFlood flood-opacity="0" result="BackgroundImageFix"/>
<feColorMatrix in="SourceAlpha" type="matrix" values="0 0 0 0 0 0 0 0 0 0 0 0 0 0 0 0 0 0 127 0" result="hardAlpha"/>
<feOffset dy="3.42222"/>
<feGaussianBlur stdDeviation="1.71111"/>
<feComposite in2="hardAlpha" operator="out"/>
<feColorMatrix type="matrix" values="0 0 0 0 0 0 0 0 0 0 0 0 0 0 0 0 0 0 0.25 0"/>
<feBlend mode="normal" in2="BackgroundImageFix" result="effect1_dropShadow_610_94"/>
<feBlend mode="normal" in="SourceGraphic" in2="effect1_dropShadow_610_94" result="shape"/>
</filter>
<filter id="filter1_d_610_94" x="229.578" y="46" width="55.8444" height="66.8444" filterUnits="userSpaceOnUse" color-interpolation-filters="sRGB">
<feFlood flood-opacity="0" result="BackgroundImageFix"/>
<feColorMatrix in="SourceAlpha" type="matrix" values="0 0 0 0 0 0 0 0 0 0 0 0 0 0 0 0 0 0 127 0" result="hardAlpha"/>
<feOffset dy="3.42222"/>
<feGaussianBlur stdDeviation="1.71111"/>
<feComposite in2="hardAlpha" operator="out"/>
<feColorMatrix type="matrix" values="0 0 0 0 0 0 0 0 0 0 0 0 0 0 0 0 0 0 0.25 0"/>
<feBlend mode="normal" in2="BackgroundImageFix" result="effect1_dropShadow_610_94"/>
<feBlend mode="normal" in="SourceGraphic" in2="effect1_dropShadow_610_94" result="shape"/>
</filter>
<filter id="filter2_d_610_94" x="186.578" y="58" width="50.8444" height="44.8444" filterUnits="userSpaceOnUse" color-interpolation-filters="sRGB">
<feFlood flood-opacity="0" result="BackgroundImageFix"/>
<feColorMatrix in="SourceAlpha" type="matrix" values="0 0 0 0 0 0 0 0 0 0 0 0 0 0 0 0 0 0 127 0" result="hardAlpha"/>
<feOffset dy="3.42222"/>
<feGaussianBlur stdDeviation="1.71111"/>
<feComposite in2="hardAlpha" operator="out"/>
<feColorMatrix type="matrix" values="0 0 0 0 0 0 0 0 0 0 0 0 0 0 0 0 0 0 0.25 0"/>
<feBlend mode="normal" in2="BackgroundImageFix" result="effect1_dropShadow_610_94"/>
<feBlend mode="normal" in="SourceGraphic" in2="effect1_dropShadow_610_94" result="shape"/>
</filter>
<filter id="filter3_d_610_94" x="156.578" y="61" width="45.8444" height="42.8444" filterUnits="userSpaceOnUse" color-interpolation-filters="sRGB">
<feFlood flood-opacity="0" result="BackgroundImageFix"/>
<feColorMatrix in="SourceAlpha" type="matrix" values="0 0 0 0 0 0 0 0 0 0 0 0 0 0 0 0 0 0 127 0" result="hardAlpha"/>
<feOffset dy="3.42222"/>
<feGaussianBlur stdDeviation="1.71111"/>
<feComposite in2="hardAlpha" operator="out"/>
<feColorMatrix type="matrix" values="0 0 0 0 0 0 0 0 0 0 0 0 0 0 0 0 0 0 0.25 0"/>
<feBlend mode="normal" in2="BackgroundImageFix" result="effect1_dropShadow_610_94"/>
<feBlend mode="normal" in="SourceGraphic" in2="effect1_dropShadow_610_94" result="shape"/>
</filter>
<filter id="filter4_d_610_94" x="121.578" y="62" width="43.8444" height="40.8444" filterUnits="userSpaceOnUse" color-interpolation-filters="sRGB">
<feFlood flood-opacity="0" result="BackgroundImageFix"/>
<feColorMatrix in="SourceAlpha" type="matrix" values="0 0 0 0 0 0 0 0 0 0 0 0 0 0 0 0 0 0 127 0" result="hardAlpha"/>
<feOffset dy="3.42222"/>
<feGaussianBlur stdDeviation="1.71111"/>
<feComposite in2="hardAlpha" operator="out"/>
<feColorMatrix type="matrix" values="0 0 0 0 0 0 0 0 0 0 0 0 0 0 0 0 0 0 0.25 0"/>
<feBlend mode="normal" in2="BackgroundImageFix" result="effect1_dropShadow_610_94"/>
<feBlend mode="normal" in="SourceGraphic" in2="effect1_dropShadow_610_94" result="shape"/>
</filter>
<filter id="filter5_d_610_94" x="93.5778" y="46" width="35.8444" height="56.8444" filterUnits="userSpaceOnUse" color-interpolation-filters="sRGB">
<feFlood flood-opacity="0" result="BackgroundImageFix"/>
<feColorMatrix in="SourceAlpha" type="matrix" values="0 0 0 0 0 0 0 0 0 0 0 0 0 0 0 0 0 0 127 0" result="hardAlpha"/>
<feOffset dy="3.42222"/>
<feGaussianBlur stdDeviation="1.71111"/>
<feComposite in2="hardAlpha" operator="out"/>
<feColorMatrix type="matrix" values="0 0 0 0 0 0 0 0 0 0 0 0 0 0 0 0 0 0 0.25 0"/>
<feBlend mode="normal" in2="BackgroundImageFix" result="effect1_dropShadow_610_94"/>
<feBlend mode="normal" in="SourceGraphic" in2="effect1_dropShadow_610_94" result="shape"/>
</filter>
<filter id="filter6_d_610_94" x="51.5778" y="64" width="55.8444" height="40.8444" filterUnits="userSpaceOnUse" color-interpolation-filters="sRGB">
<feFlood flood-opacity="0" result="BackgroundImageFix"/>
<feColorMatrix in="SourceAlpha" type="matrix" values="0 0 0 0 0 0 0 0 0 0 0 0 0 0 0 0 0 0 127 0" result="hardAlpha"/>
<feOffset dy="3.42222"/>
<feGaussianBlur stdDeviation="1.71111"/>
<feComposite in2="hardAlpha" operator="out"/>
<feColorMatrix type="matrix" values="0 0 0 0 0 0 0 0 0 0 0 0 0 0 0 0 0 0 0.25 0"/>
<feBlend mode="normal" in2="BackgroundImageFix" result="effect1_dropShadow_610_94"/>
<feBlend mode="normal" in="SourceGraphic" in2="effect1_dropShadow_610_94" result="shape"/>
</filter>
<filter id="filter7_d_610_94" x="9.57778" y="54" width="61.8444" height="66.8444" filterUnits="userSpaceOnUse" color-interpolation-filters="sRGB">
<feFlood flood-opacity="0" result="BackgroundImageFix"/>
<feColorMatrix in="SourceAlpha" type="matrix" values="0 0 0 0 0 0 0 0 0 0 0 0 0 0 0 0 0 0 127 0" result="hardAlpha"/>
<feOffset dy="3.42222"/>
<feGaussianBlur stdDeviation="1.71111"/>
<feComposite in2="hardAlpha" operator="out"/>
<feColorMatrix type="matrix" values="0 0 0 0 0 0 0 0 0 0 0 0 0 0 0 0 0 0 0.25 0"/>
<feBlend mode="normal" in2="BackgroundImageFix" result="effect1_dropShadow_610_94"/>
<feBlend mode="normal" in="SourceGraphic" in2="effect1_dropShadow_610_94" result="shape"/>
</filter>
<clipPath id="clip0_610_94">
<rect width="18" height="18" fill="white" transform="translate(16 496)"/>
</clipPath>
</defs>
</svg>
