<svg width="492" height="60" viewBox="0 0 492 60" fill="none" xmlns="http://www.w3.org/2000/svg">
<path d="M7.2551 18.646C5.5911 18.776 3.9271 18.88 2.3931 18.984C1.7431 18.984 1.4051 18.594 1.4051 17.788C1.4051 17.034 1.6911 16.67 2.4191 16.618C5.9551 16.332 8.8151 16.124 11.5971 15.942C11.6231 15.266 11.6751 13.81 11.7531 12.172C9.1271 12.328 4.4211 12.588 2.5491 12.64C1.8471 12.666 1.5351 12.38 1.5091 11.574C1.4831 10.846 1.9771 10.508 2.4451 10.482C4.4731 10.3 9.1271 10.118 11.8571 9.988C11.9351 8.272 11.9871 6.66 12.0391 5.828C9.4651 5.932 5.2011 5.984 2.4971 5.984C1.7951 5.984 1.5091 5.698 1.5091 4.892C1.5091 4.164 2.0031 3.852 2.4711 3.826C5.9031 3.644 10.6871 3.54 13.9111 3.54C14.5871 3.54 14.8211 3.826 14.7951 4.528C14.6911 7.258 14.3011 13.394 14.0671 15.76C14.3531 15.76 14.6131 15.734 14.8991 15.708C15.5491 15.656 15.8091 16.124 15.8091 16.748C15.8091 17.554 15.4191 17.866 14.8471 17.944C13.3651 18.126 11.7011 18.282 9.9851 18.438C9.9591 20.206 9.9331 22.234 9.8291 23.664C9.7511 24.652 9.1791 24.964 8.4511 24.938C7.6971 24.912 7.3071 24.574 7.2811 23.586C7.2291 22.234 7.2291 20.388 7.2551 18.646ZM19.5011 22.364C19.4231 23.352 18.9031 23.69 18.1751 23.638C17.4211 23.586 17.0571 23.144 17.0571 22.026C17.0571 16.254 17.1611 10.482 17.3691 4.788C17.3951 3.852 17.7851 3.488 18.8251 3.488C19.7611 3.488 20.1771 3.93 20.1771 4.866C20.1251 10.534 19.8911 17.112 19.5011 22.364ZM31.8602 12.796C30.0402 14.278 27.2062 16.306 25.4642 17.424C24.8402 17.814 24.2422 17.71 23.8002 17.164C23.3842 16.644 23.3582 16.176 23.8002 15.812C25.7762 14.278 28.4022 12.354 30.2222 10.846C30.1962 9.806 30.1442 8.038 30.0922 6.79C27.6482 6.894 25.4642 6.972 24.5022 6.998C23.8782 7.024 23.4882 6.686 23.4622 5.88C23.4362 5.048 23.8002 4.658 24.3202 4.632C27.0502 4.528 37.3462 4.112 39.9982 4.034C40.7002 4.008 41.0122 4.294 41.0382 5.126C41.0642 5.932 40.7522 6.296 40.0242 6.348C38.9062 6.426 36.0202 6.53 33.0042 6.66C33.0302 7.882 33.0302 9.364 33.0042 10.586C35.2662 11.704 38.8022 13.498 40.6742 14.382C41.1422 14.616 41.2982 15.11 40.9082 15.812C40.4922 16.566 39.8682 16.644 39.2702 16.358C37.6322 15.604 33.7322 13.836 31.8602 12.796ZM40.4142 22.286C35.4742 22.676 30.2222 22.962 24.9182 23.092C24.2682 23.118 23.9302 22.702 23.9302 21.896C23.9302 21.142 24.2162 20.752 24.9442 20.726C30.3782 20.492 35.7342 20.206 40.4662 20.05C41.1162 20.024 41.3762 20.466 41.3762 21.09C41.3762 21.896 40.9862 22.234 40.4142 22.286ZM70.1109 21.428C70.2149 24.548 67.8749 26.836 63.8189 26.992C59.7109 27.148 57.5009 25.016 57.5009 21.818C57.5009 19.01 59.5029 16.462 63.6629 16.254C67.6669 16.046 70.0069 18.178 70.1109 21.428ZM68.2909 10.404C67.4069 10.43 66.1069 10.43 65.1709 10.43C65.1449 11.704 65.1189 12.926 65.0929 14.278C65.0669 15.058 64.6509 15.396 63.8709 15.396C63.1169 15.396 62.7009 15.006 62.6749 14.174C62.5969 11.106 62.4929 8.09 62.5189 4.58C62.5189 3.93 62.8309 3.644 63.7929 3.618C64.7549 3.592 65.1449 3.982 65.1449 4.58C65.1449 5.854 65.1709 6.998 65.1709 8.064C66.2369 8.064 67.5889 8.038 68.3429 8.038C68.3689 6.764 68.4209 5.516 68.4469 4.372C68.4729 3.722 68.7849 3.41 69.7469 3.41C70.7089 3.436 71.0729 3.774 71.0729 4.372C71.0209 8.168 70.8909 12.25 70.6569 15.526C70.6049 16.306 70.1369 16.67 69.3569 16.644C68.6029 16.618 68.2389 16.254 68.2389 15.422C68.2389 13.992 68.2649 12.224 68.2909 10.404ZM55.7589 11.444C54.4329 13.446 53.2889 14.902 52.0929 16.28C51.6249 16.826 50.8189 16.592 50.3769 16.046C49.9609 15.526 50.1689 15.11 50.5069 14.642C51.4169 13.368 53.1589 11.054 54.2249 9.39C54.1729 7.57 54.0169 5.698 53.9649 4.06C53.9389 3.254 54.1729 2.812 55.2909 2.76C56.5389 2.682 56.7209 3.02 56.7469 3.904C56.7729 5.516 56.8509 7.362 56.8769 9.13C58.3329 10.612 59.8669 12.016 61.0109 13.108C61.4789 13.576 61.6609 14.044 61.2449 14.642C60.8029 15.266 60.2569 15.474 59.7369 15.032C58.3069 13.862 57.2669 12.874 55.7589 11.444ZM67.5109 21.454C67.4589 19.504 65.9769 18.308 63.7409 18.412C61.4009 18.516 60.0749 19.998 60.1009 21.74C60.1269 23.664 61.4789 24.912 63.7409 24.834C66.1589 24.756 67.5629 23.326 67.5109 21.454ZM93.0011 21.428C93.1051 24.548 90.7911 26.836 86.8391 26.992C82.8351 27.148 80.6511 25.016 80.6511 21.818C80.6511 19.01 82.6271 16.462 86.6831 16.254C90.5831 16.046 92.8971 18.178 93.0011 21.428ZM80.3911 11.366C78.3631 13.602 76.5951 15.188 75.3211 16.254C74.8011 16.696 74.0991 16.514 73.6571 15.968C73.2411 15.448 73.3711 14.98 73.7871 14.564C75.1131 13.16 77.5311 10.794 78.7271 9.364C78.6491 7.544 78.5191 5.568 78.4671 3.93C78.4411 3.124 78.7531 2.682 79.8711 2.63C81.1191 2.552 81.4051 2.89 81.4311 3.774C81.4571 5.126 81.5611 7.336 81.5611 9.104C83.5111 10.638 85.4871 11.704 87.0211 12.874C87.5151 13.264 87.6711 13.81 87.2551 14.408C86.8391 15.058 86.4231 15.344 85.8511 15.006C84.3691 14.122 82.0291 12.692 80.3911 11.366ZM90.3751 15.032C90.3231 14.018 90.3491 11.756 90.3751 9.26C88.5031 9.338 86.1111 9.39 85.7471 9.39C85.0191 9.39 84.8111 8.974 84.7851 8.22C84.7591 7.44 85.0191 7.076 85.6691 7.05C86.1111 7.024 88.5291 6.92 90.4011 6.868C90.4271 6.166 90.4271 5.464 90.4531 4.788C90.4531 3.852 90.8171 3.488 91.8571 3.488C92.7931 3.488 93.2351 3.93 93.2091 4.866C93.1571 8.194 93.1311 13.238 92.9231 15.11C92.8191 16.098 92.3251 16.332 91.5971 16.306C90.8431 16.28 90.4011 16.072 90.3751 15.032ZM90.3491 21.454C90.2971 19.504 88.8411 18.308 86.7611 18.412C84.5771 18.516 83.2771 19.998 83.3031 21.74C83.3291 23.664 84.6551 24.912 86.7611 24.834C89.0231 24.756 90.4011 23.326 90.3491 21.454ZM110.938 13.056C110.262 13.082 109.456 13.108 108.702 13.16C108.26 16.436 105.946 18.36 102.592 18.464C98.64 18.594 96.404 16.254 96.404 11.964C96.404 8.402 98.51 5.386 102.592 5.23C106.206 5.1 108.338 7.388 108.728 10.768C109.482 10.742 110.288 10.716 110.938 10.69C110.938 8.662 110.938 6.66 110.964 4.632C110.964 3.956 111.328 3.618 112.29 3.618C113.226 3.618 113.59 3.904 113.59 4.554C113.668 11.106 113.564 15.552 113.356 22.104C113.33 22.936 112.94 23.274 112.134 23.274C111.354 23.274 110.99 22.884 110.99 22.052C110.964 19.062 110.938 16.046 110.938 13.056ZM117.724 22.546C117.672 23.326 117.256 23.69 116.476 23.664C115.722 23.638 115.41 23.274 115.41 22.442C115.436 15.838 115.566 10.82 115.774 4.372C115.8 3.722 116.112 3.41 117.074 3.41C118.036 3.436 118.4 3.774 118.4 4.372C118.374 10.924 118.166 15.942 117.724 22.546ZM102.514 16.072C104.932 16.046 106.18 14.174 106.18 11.834C106.18 9.26 104.88 7.544 102.592 7.622C100.122 7.7 99.03 9.65 99.03 11.964C99.03 14.59 100.148 16.098 102.514 16.072ZM139.133 17.164C134.193 17.45 127.329 17.632 122.025 17.762C121.375 17.788 121.037 17.45 121.037 16.644C121.037 15.89 121.323 15.5 122.051 15.474C127.485 15.266 134.453 15.11 139.185 14.98C139.835 14.954 140.095 15.396 140.095 16.02C140.095 16.826 139.705 17.138 139.133 17.164ZM136.975 25.458C133.543 25.718 128.447 25.874 125.223 25.9C124.391 25.9 123.897 25.25 123.819 24.392C123.689 22.806 123.637 21.22 123.637 20.258C123.637 19.478 123.923 19.244 124.937 19.192C125.951 19.14 126.419 19.374 126.445 20.154C126.471 21.298 126.471 22.312 126.497 23.274C126.497 23.456 126.575 23.586 126.757 23.586C129.409 23.534 134.323 23.3 136.949 23.3C137.651 23.3 137.937 23.586 137.937 24.392C137.937 25.12 137.443 25.432 136.975 25.458ZM137.807 12.328C135.337 12.692 127.719 13.056 124.625 13.108C123.481 13.134 122.753 12.51 122.675 11.444C122.519 9.416 122.467 7.18 122.363 4.658C122.337 3.904 122.467 3.54 123.741 3.436C124.833 3.358 125.197 3.644 125.223 4.476C125.275 6.192 125.327 9.546 125.353 10.456C125.353 10.638 125.457 10.742 125.613 10.742C128.213 10.638 135.025 10.326 137.625 10.196C138.223 10.17 138.613 10.326 138.639 11.262C138.665 11.938 138.301 12.25 137.807 12.328ZM157.393 8.064V10.82C159.343 11.86 161.397 12.874 162.931 13.706C163.477 14.018 163.581 14.538 163.165 15.136C162.749 15.786 162.411 15.942 161.839 15.682C160.357 15.006 158.303 14.044 156.275 12.978C154.897 14.33 152.791 16.02 151.517 17.086C150.997 17.528 150.295 17.346 149.853 16.8C149.437 16.28 149.567 15.89 149.983 15.474C151.309 14.2 153.467 12.302 154.663 11.054C154.637 10.326 154.585 9.286 154.559 8.22C152.661 8.324 150.919 8.402 149.957 8.428C149.333 8.454 148.943 8.142 148.917 7.336C148.891 6.504 149.307 6.14 149.853 6.114C150.919 6.062 152.635 5.984 154.533 5.906C154.507 5.152 154.481 4.476 154.481 3.982C154.455 3.176 154.715 2.734 155.833 2.682C157.081 2.604 157.315 2.942 157.341 3.826C157.341 4.268 157.341 4.97 157.367 5.776C159.421 5.698 161.345 5.62 162.463 5.568C163.165 5.542 163.477 5.724 163.503 6.556C163.529 7.362 163.217 7.726 162.489 7.778C161.449 7.83 159.499 7.934 157.393 8.064ZM168.105 21.064C168.027 22.052 167.507 22.39 166.779 22.338C166.025 22.286 165.661 21.844 165.661 20.726C165.661 14.954 165.765 11.132 165.973 5.438C165.999 4.502 166.389 4.138 167.429 4.138C168.365 4.138 168.781 4.58 168.781 5.516C168.729 11.184 168.495 15.812 168.105 21.064ZM150.217 22.676C149.567 22.676 149.229 22.286 149.229 21.48C149.229 20.726 149.515 20.362 150.243 20.31C152.193 20.154 153.857 20.05 155.391 19.92C155.339 18.854 155.313 17.658 155.313 16.956C155.287 16.02 155.573 15.682 156.613 15.63C157.705 15.578 158.069 15.916 158.121 16.852C158.147 17.476 158.147 18.672 158.147 19.738C159.837 19.608 161.527 19.504 163.503 19.4C164.153 19.374 164.413 19.816 164.413 20.44C164.413 21.246 164.023 21.584 163.451 21.636C159.291 22.104 154.793 22.416 150.217 22.676ZM189.63 13.212H186.666C186.614 15.994 186.536 18.776 186.432 22.104C186.406 22.936 186.016 23.274 185.21 23.274C184.43 23.274 184.066 22.884 184.066 22.052C184.04 16.254 183.988 10.43 184.04 4.632C184.04 3.956 184.404 3.618 185.366 3.618C186.302 3.618 186.666 3.904 186.666 4.554C186.692 6.868 186.692 8.896 186.692 10.846C187.654 10.846 188.902 10.82 189.682 10.82C189.734 8.766 189.812 6.66 189.89 4.372C189.916 3.722 190.228 3.41 191.19 3.41C192.152 3.436 192.516 3.774 192.516 4.372C192.49 10.924 192.282 15.942 191.84 22.546C191.788 23.326 191.372 23.69 190.592 23.664C189.838 23.638 189.526 23.274 189.526 22.442C189.526 19.088 189.578 16.15 189.63 13.212ZM174.888 6.816C174.914 8.038 174.914 17.034 174.94 17.84C174.94 18.022 175.018 18.178 175.2 18.152C177.332 17.996 179.516 17.84 181.648 17.658C182.35 17.606 182.584 17.84 182.636 18.646C182.688 19.478 182.272 19.816 181.726 19.868C179.074 20.18 176.656 20.414 174.186 20.518C173.198 20.57 172.418 19.894 172.366 18.802C172.262 16.748 172.21 7.466 172.21 5.412C172.21 4.71 172.418 4.45 173.094 4.424C175.564 4.294 178.398 4.164 181.05 4.112C181.596 4.112 181.882 4.502 181.882 5.23C181.882 6.036 181.726 6.374 181.024 6.426C179.1 6.582 176.682 6.712 174.888 6.816ZM208.013 7.258C207.181 7.83 204.607 9.286 203.489 9.884C202.891 10.196 202.397 10.17 202.007 9.572C201.695 9.078 201.669 8.298 202.059 8.038C203.307 7.206 206.167 5.36 207.441 4.554C208.143 4.112 208.871 4.008 209.963 4.19C210.561 4.294 210.847 4.58 210.873 5.048C211.003 9.182 211.029 16.124 210.925 20.674C210.899 22.182 211.081 22.988 209.495 23.066C207.857 23.144 208.299 22.26 208.221 20.648C208.065 16.878 208.117 11.08 208.013 7.258ZM229.48 13.524C227.218 13.628 218.014 13.758 216.662 13.758C215.362 13.758 214.738 13.368 214.634 11.782C214.53 9.988 214.348 5.958 214.322 4.086C214.322 3.384 214.66 2.968 215.674 2.942C216.792 2.916 217.078 3.254 217.104 3.956C217.13 5.126 217.156 6.036 217.182 6.816C220.77 6.686 224.566 6.53 228.076 6.4C228.076 5.88 228.076 5.412 228.102 3.878C228.102 3.098 228.57 2.734 229.532 2.734C230.494 2.734 230.884 3.072 230.884 3.748C230.884 5.958 230.702 10.144 230.624 12.484C230.598 13.212 230.208 13.472 229.48 13.524ZM224.592 17.944C224.566 18.906 224.514 19.92 224.436 20.674C224.332 21.662 223.786 21.974 223.058 21.948C222.304 21.922 221.94 21.584 221.888 20.596C221.836 19.998 221.836 19.036 221.862 18.022C219.21 18.1 216.584 18.178 214.244 18.23C213.594 18.256 213.256 17.918 213.256 17.112C213.256 16.358 213.542 15.968 214.27 15.942C219.704 15.734 226.672 15.578 231.404 15.448C232.054 15.422 232.314 15.864 232.314 16.488C232.314 17.294 231.924 17.606 231.352 17.632C229.324 17.762 227.01 17.84 224.592 17.944ZM229.194 25.458C225.762 25.718 220.666 25.874 217.442 25.9C216.61 25.9 216.116 25.25 216.038 24.392C215.908 22.806 215.856 21.688 215.856 20.726C215.856 19.946 216.142 19.712 217.156 19.66C218.17 19.608 218.638 19.842 218.664 20.622C218.69 21.766 218.69 22.312 218.716 23.274C218.716 23.456 218.794 23.586 218.976 23.586C221.628 23.534 226.542 23.3 229.168 23.3C229.87 23.3 230.156 23.586 230.156 24.392C230.156 25.12 229.662 25.432 229.194 25.458ZM228.05 8.766C224.54 8.896 220.77 9.052 217.286 9.182C217.312 9.858 217.338 10.56 217.364 11.444C218.326 11.444 226.542 11.288 227.53 11.262C227.79 11.262 228.024 11.132 228.024 10.768C228.024 9.832 228.024 9.234 228.05 8.766ZM238.155 6.79C236.881 6.816 236.023 6.816 234.879 6.816C234.177 6.816 233.891 6.478 233.891 5.672C233.891 4.944 234.385 4.632 234.853 4.606C236.725 4.476 238.337 4.45 240.001 4.45C240.417 4.45 240.651 4.554 240.781 4.814C240.963 4.606 241.249 4.502 241.509 4.476C243.381 4.346 245.409 4.32 247.073 4.32C247.749 4.32 247.957 4.606 247.957 5.308C247.957 7.414 247.853 18.178 247.619 20.18C247.515 20.96 247.047 21.298 246.293 21.246C245.539 21.194 245.227 20.856 245.201 20.154C245.149 18.932 245.227 8.194 245.227 6.66C243.953 6.686 242.679 6.686 241.535 6.686C241.249 6.686 241.041 6.634 240.885 6.53C240.859 9.884 240.755 18.1 240.547 19.868C240.443 20.648 239.975 20.986 239.221 20.934C238.467 20.882 238.155 20.544 238.129 19.842C238.077 18.62 238.155 8.324 238.155 6.79ZM253.391 13.68C253.261 16.722 253.105 19.712 252.923 22.364C252.845 23.352 252.325 23.69 251.597 23.638C250.843 23.586 250.531 23.144 250.531 22.026C250.531 16.254 250.635 10.482 250.843 4.788C250.869 3.852 251.207 3.488 252.247 3.488C253.183 3.488 253.599 3.93 253.599 4.866C253.573 6.92 253.521 9.104 253.469 11.314C254.327 11.288 255.185 11.288 255.497 11.288C256.225 11.288 256.511 11.574 256.511 12.328C256.511 13.082 256.329 13.602 255.679 13.628C255.289 13.654 254.327 13.68 253.391 13.68ZM264.64 15.63C262.612 17.762 260.714 19.556 259.44 20.622C258.92 21.064 258.218 20.882 257.776 20.336C257.36 19.816 257.516 19.426 257.906 18.984C259.232 17.554 261.858 15.11 263.054 13.68C263.002 11.912 262.846 8.662 262.794 6.738C260.766 6.842 258.92 6.92 257.906 6.946C257.282 6.972 256.892 6.634 256.866 5.828C256.84 4.996 257.204 4.606 257.724 4.58C260.454 4.476 267.63 4.138 270.282 4.06C270.984 4.034 271.296 4.32 271.322 5.152C271.348 5.958 271.036 6.322 270.308 6.374C269.346 6.426 267.63 6.53 265.706 6.608C265.784 8.532 265.81 11.73 265.836 13.42C267.786 15.032 269.476 16.176 271.01 17.45C271.504 17.866 271.66 18.334 271.244 18.932C270.828 19.582 270.412 19.894 269.84 19.53C268.358 18.568 266.252 16.956 264.64 15.63ZM276.314 22.364C276.236 23.352 275.716 23.69 274.988 23.638C274.234 23.586 273.87 23.144 273.87 22.026C273.87 16.254 273.974 10.482 274.182 4.788C274.208 3.852 274.598 3.488 275.638 3.488C276.574 3.488 276.99 3.93 276.99 4.866C276.938 10.534 276.704 17.112 276.314 22.364ZM295.282 12.432C293.462 14.044 290.498 16.332 288.756 17.45C288.132 17.84 287.534 17.736 287.092 17.19C286.676 16.67 286.65 16.15 287.092 15.786C289.068 14.2 291.798 11.99 293.618 10.248C293.592 8.948 293.514 6.452 293.488 5.334C293.462 4.528 293.748 4.086 294.866 4.034C296.114 3.956 296.452 4.294 296.452 5.178C296.478 6.478 296.478 8.61 296.452 10.118C298.714 11.314 302.848 13.394 304.72 14.356C305.188 14.59 305.344 15.136 304.954 15.838C304.538 16.592 303.914 16.644 303.316 16.384C301.678 15.604 297.154 13.472 295.282 12.432ZM296.998 20.466C299.494 20.362 301.886 20.258 304.148 20.18C304.798 20.154 305.058 20.596 305.058 21.22C305.058 22.026 304.668 22.364 304.096 22.416C299.156 22.806 293.904 23.092 288.6 23.222C287.95 23.248 287.612 22.832 287.612 22.026C287.612 21.272 287.898 20.882 288.626 20.856C290.498 20.778 292.344 20.7 294.164 20.596C294.112 19.4 294.086 17.762 294.06 16.8C294.034 15.864 294.32 15.526 295.36 15.474C296.452 15.422 296.816 15.76 296.868 16.696C296.894 17.58 296.972 19.322 296.998 20.466ZM321.556 15.838L321.504 20.414C322.492 20.388 323.48 20.336 324.416 20.31C325.066 20.284 325.326 20.726 325.326 21.35C325.326 22.156 324.936 22.494 324.364 22.546C319.424 22.936 314.172 23.222 308.868 23.352C308.218 23.352 307.88 22.962 307.88 22.156C307.88 21.402 308.166 21.012 308.894 20.986C309.856 20.96 310.844 20.908 311.806 20.856L311.676 16.384C309.596 15.266 308.348 13.264 308.348 10.456C308.348 6.634 311.494 3.462 316.356 3.332C321.14 3.202 324.39 6.14 324.39 10.404C324.39 12.796 323.298 14.668 321.556 15.838ZM321.66 10.326C321.66 7.492 319.32 5.62 316.356 5.698C313.21 5.776 311.078 7.882 311.078 10.456C311.078 13.342 313.236 15.006 316.278 14.98C319.372 14.954 321.66 12.926 321.66 10.326ZM318.774 20.544L318.8 17.034C318.046 17.216 317.214 17.32 316.356 17.346C315.68 17.372 315.03 17.32 314.432 17.242L314.536 20.726C315.966 20.674 317.396 20.596 318.774 20.544ZM336.923 11.886V13.732C338.613 13.654 340.303 13.55 342.279 13.446C342.929 13.42 343.189 13.758 343.189 14.382C343.189 15.188 342.799 15.526 342.227 15.578C338.067 15.968 333.569 16.176 328.993 16.436C328.343 16.436 328.005 16.046 328.005 15.24C328.005 14.486 328.291 14.226 329.019 14.174C330.969 14.044 332.607 13.94 334.141 13.862V12.068C332.919 12.12 331.723 12.172 330.605 12.198C329.617 12.224 328.837 11.574 328.785 10.482C328.707 8.688 328.629 6.166 328.629 4.372C328.629 3.67 328.837 3.41 329.513 3.384C332.737 3.254 337.547 3.098 340.979 3.02C341.525 3.02 341.811 3.384 341.811 4.112C341.811 4.918 341.655 5.178 340.953 5.23C338.249 5.412 333.933 5.568 331.359 5.672C331.385 6.894 331.385 8.636 331.411 9.624C331.411 9.806 331.489 9.936 331.671 9.936C334.323 9.78 338.301 9.624 340.927 9.442C341.629 9.39 341.863 9.546 341.915 10.352C341.967 11.184 341.551 11.496 341.005 11.548C339.679 11.678 338.301 11.808 336.923 11.886ZM343.891 19.218C340.823 19.348 336.377 19.504 333.309 19.608C332.763 19.634 332.529 19.4 332.503 18.62C332.477 17.814 332.737 17.528 333.335 17.502C337.157 17.294 341.629 17.138 345.971 17.008C346.361 17.008 346.595 17.164 346.595 17.658C346.595 18.906 346.491 20.284 346.413 21.506C346.361 22.182 346.127 22.468 345.373 22.494C342.513 22.624 338.795 22.728 335.649 22.858C335.675 23.378 335.675 23.508 335.701 24.054C338.899 24.028 342.617 23.95 346.075 23.898C346.595 23.898 346.777 24.236 346.777 24.808C346.777 25.38 346.673 25.9 346.049 25.926C341.993 26.082 338.795 26.134 334.713 26.134C333.491 26.134 333.153 25.744 333.075 24.626C332.997 23.586 332.945 22.754 332.945 21.714C332.945 21.324 333.049 21.064 333.413 21.038C336.169 20.908 341.135 20.752 343.865 20.648C343.891 20.05 343.891 19.842 343.891 19.218ZM346.855 15.032C346.751 16.02 346.257 16.254 345.529 16.228C344.775 16.202 344.333 15.994 344.307 14.954C344.255 13.342 344.333 8.662 344.385 4.788C344.385 3.852 344.749 3.488 345.789 3.488C346.725 3.488 347.167 3.93 347.141 4.866C347.089 8.194 347.063 13.16 346.855 15.032ZM365.589 10.664C363.769 12.224 360.805 14.382 359.063 15.448C358.439 15.838 357.841 15.734 357.399 15.188C356.983 14.668 356.957 14.148 357.399 13.784C359.375 12.25 362.105 10.17 363.925 8.48C363.899 7.18 363.821 5.516 363.795 4.398C363.769 3.592 364.055 3.15 365.173 3.098C366.421 3.02 366.759 3.358 366.759 4.242C366.785 5.542 366.785 6.842 366.759 8.35C369.021 9.494 373.155 11.444 375.027 12.354C375.495 12.588 375.651 13.134 375.261 13.836C374.845 14.59 374.221 14.642 373.623 14.382C371.985 13.654 367.461 11.652 365.589 10.664ZM364.965 19.53C362.963 19.634 360.935 19.686 358.907 19.738C358.257 19.738 357.919 19.348 357.919 18.542C357.919 17.788 358.205 17.398 358.933 17.372C364.367 17.138 369.723 16.852 374.455 16.696C375.105 16.67 375.365 17.112 375.365 17.736C375.365 18.542 374.975 18.88 374.403 18.932C372.219 19.114 369.983 19.27 367.695 19.4C367.695 21.116 367.695 22.988 367.591 24.444C367.513 25.432 366.941 25.744 366.213 25.718C365.459 25.692 365.069 25.354 365.043 24.366C364.991 22.988 364.965 21.246 364.965 19.53ZM397.703 9.286C397.703 13.316 394.791 15.422 390.891 15.552C386.809 15.682 384.105 13.628 384.105 9.338C384.105 5.776 386.679 3.02 390.891 2.89C395.025 2.76 397.703 5.282 397.703 9.286ZM400.355 22.286C399.185 23.378 397.209 25.198 396.169 25.952C395.597 26.368 395.077 26.29 394.635 25.744C394.219 25.224 394.219 24.834 394.661 24.444C394.869 24.262 395.103 24.028 395.363 23.794C394.557 23.196 393.673 22.494 393.101 22.078C391.931 23.274 390.241 24.964 389.149 25.822C388.577 26.29 388.057 26.16 387.615 25.614C387.199 25.094 387.225 24.73 387.641 24.314C388.629 23.274 390.137 21.844 391.437 20.44C391.463 19.92 391.385 18.724 391.359 18.126C391.333 17.32 391.671 16.878 392.737 16.826C393.933 16.774 394.271 17.086 394.271 17.97C394.271 18.542 394.245 19.426 394.219 20.154C395.025 20.856 396.065 21.636 396.949 22.286C397.573 21.714 398.171 21.116 398.717 20.57C398.743 20.05 398.665 18.464 398.639 17.866C398.613 17.06 398.951 16.618 400.017 16.566C401.213 16.514 401.551 16.826 401.551 17.71C401.551 18.282 401.525 19.556 401.499 20.284C402.981 21.584 404.437 22.858 405.633 23.768C406.023 24.054 406.413 24.496 405.997 25.146C405.581 25.796 405.191 26.03 404.593 25.64C403.371 24.808 401.577 23.274 400.355 22.286ZM394.973 9.182C394.973 6.556 393.127 5.1 390.891 5.178C388.473 5.256 386.835 6.946 386.835 9.312C386.835 11.99 388.499 13.264 390.813 13.238C393.179 13.212 394.973 11.574 394.973 9.182ZM403.501 14.668C403.397 15.656 402.903 15.89 402.175 15.864C401.421 15.838 400.979 15.63 400.953 14.59C400.901 12.978 400.979 8.662 401.031 4.788C401.031 3.852 401.395 3.488 402.435 3.488C403.371 3.488 403.813 3.93 403.787 4.866C403.735 8.194 403.709 12.796 403.501 14.668ZM422.66 25.874C420.398 25.978 412.78 26.056 411.428 26.056C410.128 26.056 409.504 25.666 409.4 24.08C409.322 22.806 409.114 20.7 409.114 18.828C409.114 18.126 409.4 17.71 410.414 17.684C411.532 17.658 411.714 17.996 411.74 18.698C411.766 19.14 411.766 19.53 411.792 19.894C414.34 19.79 418.968 19.608 421.412 19.504C421.412 19.218 421.438 18.932 421.438 18.516C421.438 17.736 421.802 17.372 422.764 17.372C423.726 17.372 424.064 17.71 424.064 18.386C424.064 20.336 423.908 22.754 423.804 24.834C423.778 25.562 423.388 25.822 422.66 25.874ZM415.848 9C414.028 10.274 411.194 11.964 409.452 12.9C408.828 13.238 408.23 13.186 407.788 12.64C407.372 12.12 407.32 11.626 407.788 11.288C409.764 9.884 412.364 8.298 414.184 6.972C414.158 5.672 414.08 4.996 414.054 3.878C414.028 3.072 414.314 2.63 415.432 2.578C416.68 2.5 417.018 2.838 417.018 3.722C417.044 5.022 417.044 5.282 417.018 6.79C419.28 7.856 423.284 9.52 425.156 10.378C425.624 10.586 425.78 11.106 425.39 11.808C424.974 12.562 424.35 12.614 423.752 12.406C422.062 11.834 417.98 9.91 415.848 9ZM425.26 15.864C420.32 16.15 413.456 16.332 408.152 16.462C407.502 16.488 407.164 16.124 407.164 15.318C407.164 14.564 407.45 14.2 408.178 14.174C413.612 13.966 420.58 13.81 425.312 13.68C425.962 13.654 426.222 14.07 426.222 14.694C426.222 15.5 425.832 15.838 425.26 15.864ZM421.386 21.792C418.942 21.896 414.184 22.052 411.896 22.156C411.922 22.702 411.948 23.248 411.974 23.82C412.936 23.82 419.878 23.716 420.866 23.69C421.126 23.69 421.36 23.56 421.36 23.196C421.36 22.546 421.36 22.104 421.386 21.792ZM429.411 18.516C429.203 15.63 428.813 8.714 428.709 5.75C428.683 4.996 428.813 4.632 430.087 4.528C431.179 4.45 431.569 4.736 431.621 5.568C431.829 9.624 431.985 14.07 432.115 17.32C432.115 17.502 432.219 17.606 432.375 17.606C434.975 17.476 438.589 17.242 441.189 17.086C441.787 17.06 442.177 17.242 442.203 18.178C442.229 18.854 441.865 19.192 441.371 19.27C438.901 19.634 434.455 19.998 431.361 20.05C430.217 20.076 429.515 19.582 429.411 18.516ZM446.441 22.364C446.363 23.352 445.843 23.69 445.115 23.638C444.361 23.586 443.997 23.144 443.997 22.026C443.997 16.254 444.101 10.482 444.309 4.788C444.335 3.852 444.725 3.488 445.765 3.488C446.701 3.488 447.117 3.93 447.117 4.866C447.065 10.534 446.831 17.112 446.441 22.364ZM453.864 6.816C453.89 8.038 453.89 17.034 453.916 17.84C453.916 18.022 453.994 18.152 454.176 18.152C456.828 17.97 460.234 17.71 462.86 17.528C463.562 17.476 463.796 17.71 463.848 18.516C463.9 19.348 463.484 19.686 462.938 19.738C459.506 20.128 456.282 20.414 453.058 20.518C452.07 20.544 451.29 19.894 451.238 18.802C451.134 16.748 451.082 7.466 451.082 5.412C451.082 4.71 451.29 4.45 451.966 4.424C455.19 4.294 458.96 4.138 462.392 4.06C462.938 4.06 463.224 4.45 463.224 5.178C463.224 5.984 463.068 6.322 462.366 6.374C459.662 6.556 456.438 6.712 453.864 6.816ZM471.57 13.628C471.102 13.68 469.802 13.68 468.762 13.68C468.632 16.722 468.476 19.712 468.294 22.364C468.216 23.352 467.696 23.69 466.968 23.638C466.214 23.586 465.85 23.144 465.85 22.026C465.85 16.254 465.954 10.482 466.162 4.788C466.188 3.852 466.578 3.488 467.618 3.488C468.554 3.488 468.97 3.93 468.97 4.866C468.944 6.92 468.892 9.104 468.84 11.314C469.854 11.288 471.024 11.288 471.388 11.288C472.116 11.288 472.402 11.574 472.402 12.328C472.402 13.082 472.22 13.602 471.57 13.628ZM477.339 22.208C477.339 23.222 476.559 24.002 475.519 24.002C474.505 24.002 473.725 23.222 473.725 22.208C473.725 21.168 474.505 20.388 475.519 20.388C476.559 20.388 477.339 21.168 477.339 22.208ZM483.889 22.208C483.889 23.222 483.109 24.002 482.069 24.002C481.055 24.002 480.275 23.222 480.275 22.208C480.275 21.168 481.055 20.388 482.069 20.388C483.109 20.388 483.889 21.168 483.889 22.208ZM490.44 22.208C490.44 23.222 489.66 24.002 488.62 24.002C487.606 24.002 486.826 23.222 486.826 22.208C486.826 21.168 487.606 20.388 488.62 20.388C489.66 20.388 490.44 21.168 490.44 22.208Z" fill="black"/>
<path d="M179.69 45.628C178.43 46.654 176.468 48.058 175.262 48.832C174.83 49.102 174.416 49.03 174.11 48.652C173.822 48.292 173.804 47.968 174.11 47.716C175.478 46.654 177.296 45.322 178.556 44.278C178.538 43.558 178.502 42.334 178.466 41.47C176.774 41.542 175.262 41.596 174.596 41.614C174.164 41.632 173.894 41.398 173.876 40.84C173.858 40.264 174.11 39.994 174.47 39.976C176.36 39.904 183.488 39.616 185.324 39.562C185.81 39.544 186.026 39.742 186.044 40.318C186.062 40.876 185.846 41.128 185.342 41.164C184.568 41.218 182.57 41.29 180.482 41.38C180.5 42.226 180.5 43.252 180.482 44.098C182.048 44.872 184.496 46.114 185.792 46.726C186.116 46.888 186.224 47.23 185.954 47.716C185.666 48.238 185.234 48.292 184.82 48.094C183.686 47.572 180.986 46.348 179.69 45.628ZM180.698 50.938C182.426 50.866 184.082 50.794 185.648 50.74C186.098 50.722 186.278 51.028 186.278 51.46C186.278 52.018 186.008 52.252 185.612 52.288C182.192 52.558 178.556 52.756 174.884 52.846C174.434 52.864 174.2 52.576 174.2 52.018C174.2 51.496 174.398 51.226 174.902 51.208C176.198 51.154 177.476 51.1 178.736 51.046C178.7 50.272 178.682 49.318 178.664 48.652C178.646 48.004 178.844 47.788 179.564 47.752C180.32 47.716 180.572 47.932 180.608 48.58C180.626 49.192 180.68 50.2 180.698 50.938ZM198.671 54.592C197.501 54.682 191.507 54.79 190.409 54.79C189.725 54.79 189.383 54.43 189.329 53.71C189.257 52.756 189.203 50.848 189.185 49.732C189.185 49.192 189.419 48.94 189.887 48.922C191.201 48.868 197.483 48.67 198.905 48.688C199.265 48.688 199.391 48.904 199.391 49.282C199.391 50.668 199.373 52.756 199.319 53.764C199.283 54.304 199.139 54.556 198.671 54.592ZM199.319 45.466C199.643 45.448 199.949 45.448 200.255 45.43C200.705 45.412 200.885 45.7 200.885 46.132C200.885 46.69 200.615 46.924 200.219 46.942C196.799 47.14 192.047 47.266 188.375 47.356C187.925 47.374 187.691 47.122 187.691 46.564C187.691 46.042 187.889 45.79 188.393 45.772C191.219 45.664 194.639 45.574 197.555 45.502C197.645 44.224 197.843 41.704 197.915 40.606C196.133 40.678 190.931 40.714 189.059 40.714C188.573 40.714 188.375 40.48 188.375 39.922C188.375 39.418 188.717 39.202 189.041 39.184C191.417 39.058 197.015 38.986 199.247 38.986C199.715 38.986 199.877 39.184 199.859 39.67C199.823 40.984 199.517 43.864 199.319 45.466ZM197.573 50.236L191.021 50.452C191.039 51.064 191.039 52.63 191.075 53.242L197.357 53.116C197.501 53.116 197.591 53.044 197.591 52.864C197.609 52.342 197.591 50.884 197.573 50.236ZM210.419 47.77C209.249 47.86 205.001 48.058 203.903 48.058C203.219 48.058 202.805 47.59 202.769 46.87C202.697 45.196 202.643 41.902 202.661 40.066C202.661 39.526 202.895 39.274 203.363 39.256C204.677 39.202 209.015 39.094 210.437 39.112C210.851 39.112 211.049 39.328 211.049 39.706C211.085 42.01 211.103 44.674 211.067 46.942C211.049 47.554 210.887 47.734 210.419 47.77ZM204.623 46.438L209.015 46.24C209.159 46.24 209.249 46.168 209.249 45.988C209.249 44.8 209.195 42.208 209.141 40.732L204.569 40.876C204.605 42.334 204.587 44.71 204.623 46.438ZM215.099 44.602C215.063 46.438 215.027 48.166 214.955 48.85C214.883 49.534 214.541 49.696 214.037 49.678C213.515 49.66 213.209 49.516 213.191 48.796C213.155 47.68 213.209 42.766 213.245 40.084C213.245 39.436 213.497 39.184 214.217 39.184C214.865 39.184 215.171 39.49 215.153 40.138C215.135 40.876 215.135 41.884 215.117 42.964C215.747 42.946 216.431 42.946 216.647 42.946C217.151 42.946 217.349 43.144 217.349 43.666C217.349 44.188 217.223 44.548 216.773 44.566C216.485 44.584 215.765 44.602 215.099 44.602ZM214.487 54.394C212.111 54.574 209.051 54.682 206.819 54.7C206.243 54.7 205.883 54.25 205.847 53.656C205.757 52.198 205.721 51.496 205.721 50.11C205.721 49.57 205.919 49.408 206.621 49.372C207.323 49.336 207.647 49.498 207.665 50.038C207.683 50.83 207.683 52.216 207.701 52.882C207.701 53.008 207.755 53.098 207.881 53.098C209.717 53.062 212.651 52.9 214.469 52.9C214.955 52.9 215.153 53.098 215.153 53.656C215.153 54.16 214.811 54.376 214.487 54.394ZM235.395 52.252C235.341 52.936 234.981 53.17 234.477 53.134C233.955 53.098 233.703 52.792 233.703 52.018C233.703 48.022 233.775 44.026 233.919 40.084C233.937 39.436 234.207 39.184 234.927 39.184C235.575 39.184 235.863 39.49 235.863 40.138C235.827 44.062 235.665 48.616 235.395 52.252ZM228.969 41.29C227.187 41.362 225.135 41.398 223.263 41.398C222.777 41.398 222.579 41.164 222.579 40.606C222.579 40.102 222.921 39.886 223.245 39.868C225.621 39.742 228.069 39.67 230.301 39.67C230.769 39.67 230.913 39.868 230.913 40.354C230.913 41.812 230.841 49.264 230.679 50.65C230.607 51.19 230.247 51.424 229.725 51.388C229.203 51.352 228.969 51.118 228.951 50.632C228.915 49.786 228.969 42.352 228.969 41.29ZM240.711 41.488C240.729 42.334 240.729 48.562 240.747 49.12C240.747 49.246 240.801 49.336 240.927 49.336C242.763 49.21 245.121 49.03 246.939 48.904C247.425 48.868 247.587 49.03 247.623 49.588C247.659 50.164 247.371 50.398 246.993 50.434C244.617 50.704 242.385 50.902 240.153 50.974C239.469 50.992 238.929 50.542 238.893 49.786C238.821 48.364 238.785 41.938 238.785 40.516C238.785 40.03 238.929 39.85 239.397 39.832C241.629 39.742 244.239 39.634 246.615 39.58C246.993 39.58 247.191 39.85 247.191 40.354C247.191 40.912 247.083 41.146 246.597 41.182C244.725 41.308 242.493 41.416 240.711 41.488ZM252.969 46.204C252.645 46.24 251.745 46.24 251.025 46.24C250.935 48.346 250.827 50.416 250.701 52.252C250.647 52.936 250.287 53.17 249.783 53.134C249.261 53.098 249.009 52.792 249.009 52.018C249.009 48.022 249.081 44.026 249.225 40.084C249.243 39.436 249.513 39.184 250.233 39.184C250.881 39.184 251.169 39.49 251.169 40.138C251.151 41.56 251.115 43.072 251.079 44.602C251.781 44.584 252.591 44.584 252.843 44.584C253.347 44.584 253.545 44.782 253.545 45.304C253.545 45.826 253.419 46.186 252.969 46.204ZM260.347 41.218C258.025 41.272 256.837 41.344 255.055 41.38C254.677 41.38 254.551 41.056 254.551 40.552C254.551 40.012 254.677 39.796 255.127 39.76C257.557 39.598 259.789 39.544 261.859 39.526C262.129 39.526 262.291 39.706 262.291 40.012C262.327 41.74 262.363 43.414 262.363 45.142C262.363 45.628 262.129 45.79 261.589 45.88C259.681 46.204 258.583 46.438 256.657 46.744C256.693 47.572 256.765 48.49 256.819 49.156C256.837 49.318 256.963 49.408 257.125 49.39C258.817 49.282 260.491 49.156 262.273 49.012C262.723 48.976 262.903 49.174 262.939 49.678C262.975 50.272 262.813 50.488 262.417 50.542C260.527 50.776 258.169 51.01 256.189 51.1C255.559 51.136 255.163 50.83 255.073 50.29C254.893 49.228 254.749 47.464 254.659 45.988C254.641 45.664 254.785 45.502 255.091 45.448C257.107 45.124 258.475 44.89 260.473 44.53C260.437 43.468 260.419 42.298 260.347 41.218ZM265.585 47.734C264.703 47.752 263.911 47.77 263.731 47.77C263.227 47.77 263.083 47.5 263.065 46.978C263.047 46.438 263.227 46.204 263.677 46.186C263.893 46.168 264.721 46.15 265.621 46.114C265.621 45.43 265.639 44.764 265.657 44.098C264.721 44.116 263.875 44.134 263.695 44.134C263.191 44.134 263.047 43.864 263.029 43.342C263.011 42.802 263.191 42.568 263.641 42.55C263.875 42.55 264.757 42.496 265.693 42.46C265.729 41.668 265.747 40.876 265.783 40.084C265.801 39.436 266.071 39.184 266.791 39.184C267.439 39.184 267.727 39.49 267.727 40.138C267.691 44.062 267.529 48.616 267.259 52.252C267.205 52.936 266.845 53.17 266.341 53.134C265.819 53.098 265.567 52.792 265.567 52.018C265.567 50.596 265.567 49.156 265.585 47.734ZM275.807 44.548C274.547 45.574 272.585 46.978 271.379 47.752C270.947 48.022 270.533 47.95 270.227 47.572C269.939 47.212 269.921 46.888 270.227 46.636C271.595 45.574 273.413 44.242 274.673 43.198C274.655 42.424 274.619 41.632 274.583 40.93C272.891 41.002 271.379 41.056 270.713 41.074C270.281 41.092 270.011 40.858 269.993 40.3C269.975 39.724 270.227 39.454 270.587 39.436C272.477 39.364 279.605 39.076 281.441 39.022C281.927 39.004 282.143 39.202 282.161 39.778C282.179 40.336 281.963 40.588 281.459 40.624C280.685 40.678 278.687 40.75 276.599 40.84C276.617 41.56 276.617 42.118 276.599 43.018C278.165 43.792 280.613 45.034 281.909 45.646C282.233 45.808 282.341 46.15 282.071 46.636C281.783 47.158 281.351 47.212 280.937 47.014C279.803 46.492 277.103 45.268 275.807 44.548ZM275.195 50.29C273.809 50.362 272.405 50.398 271.001 50.434C270.551 50.434 270.317 50.164 270.317 49.606C270.317 49.084 270.515 48.814 271.019 48.796C274.781 48.634 278.489 48.436 281.765 48.328C282.215 48.31 282.395 48.616 282.395 49.048C282.395 49.606 282.125 49.84 281.729 49.876C280.217 50.002 278.669 50.11 277.085 50.2C277.085 51.388 277.085 52.684 277.013 53.692C276.959 54.376 276.563 54.592 276.059 54.574C275.537 54.556 275.267 54.322 275.249 53.638C275.213 52.684 275.195 51.478 275.195 50.29ZM287.499 47.212C286.581 48.688 285.789 49.894 284.961 50.92C284.655 51.298 284.079 51.136 283.773 50.758C283.485 50.398 283.647 50.11 283.863 49.786C284.529 48.76 285.699 46.996 286.437 45.754C286.419 44.314 286.293 41.668 286.257 40.174C286.239 39.616 286.401 39.31 287.175 39.274C288.039 39.22 288.183 39.454 288.183 40.066C288.201 41.722 288.273 43.99 288.273 45.574C289.281 46.744 290.307 47.806 291.135 48.724C291.441 49.066 291.585 49.372 291.297 49.786C290.991 50.218 290.613 50.416 290.271 50.092C289.281 49.156 288.543 48.364 287.499 47.212ZM292.485 45.088C291.621 45.124 290.595 45.16 290.343 45.16C289.839 45.16 289.695 44.872 289.677 44.35C289.659 43.81 289.839 43.558 290.289 43.54C290.595 43.522 291.621 43.468 292.485 43.432C292.485 42.28 292.485 41.128 292.503 39.976C292.503 39.508 292.755 39.274 293.421 39.274C294.069 39.274 294.321 39.472 294.321 39.922C294.375 44.458 294.303 47.536 294.159 52.072C294.141 52.648 293.871 52.882 293.313 52.882C292.773 52.882 292.521 52.612 292.521 52.036C292.503 49.732 292.485 47.41 292.485 45.088ZM297.723 52.378C297.687 52.918 297.399 53.17 296.859 53.152C296.337 53.134 296.121 52.882 296.121 52.306C296.139 47.734 296.229 44.26 296.373 39.796C296.391 39.346 296.607 39.13 297.273 39.13C297.939 39.148 298.191 39.382 298.191 39.796C298.173 44.332 298.029 47.806 297.723 52.378ZM310.024 47.734L309.988 50.902C310.672 50.884 311.356 50.848 312.004 50.83C312.454 50.812 312.634 51.118 312.634 51.55C312.634 52.108 312.364 52.342 311.968 52.378C308.548 52.648 304.912 52.846 301.24 52.936C300.79 52.936 300.556 52.666 300.556 52.108C300.556 51.586 300.754 51.316 301.258 51.298C301.924 51.28 302.608 51.244 303.274 51.208L303.184 48.112C301.744 47.338 300.88 45.952 300.88 44.008C300.88 41.362 303.058 39.166 306.424 39.076C309.736 38.986 311.986 41.02 311.986 43.972C311.986 45.628 311.23 46.924 310.024 47.734ZM310.096 43.918C310.096 41.956 308.476 40.66 306.424 40.714C304.246 40.768 302.77 42.226 302.77 44.008C302.77 46.006 304.264 47.158 306.37 47.14C308.512 47.122 310.096 45.718 310.096 43.918ZM308.098 50.992L308.116 48.562C307.594 48.688 307.018 48.76 306.424 48.778C305.956 48.796 305.506 48.76 305.092 48.706L305.164 51.118C306.154 51.082 307.144 51.028 308.098 50.992ZM317.008 48.274C316.954 49.048 316.81 49.246 315.982 49.228C315.406 49.21 315.136 48.976 315.118 48.13C315.046 45.124 315.082 43.252 315.082 40.246C315.082 39.58 315.262 39.31 316.144 39.31C317.116 39.31 317.206 39.634 317.206 40.228C317.152 43.828 317.17 45.826 317.008 48.274ZM317.224 51.964C317.224 52.63 316.702 53.152 316.018 53.152C315.352 53.152 314.83 52.63 314.83 51.964C314.83 51.28 315.352 50.758 316.018 50.758C316.702 50.758 317.224 51.28 317.224 51.964Z" fill="#AAAAAA"/>
</svg>

