<svg width="283" height="87" viewBox="0 0 283 87" fill="none" xmlns="http://www.w3.org/2000/svg">
<path d="M17.0242 66.4571C17.0242 64.1055 20.3109 55.7985 20.3109 55.7985C23.4773 54.8196 46.3422 55.6508 49.8258 55.6508C49.8258 55.6508 52.9758 62.3938 52.9758 66.4571C52.9758 70.5204 43.307 73.8125 35.0328 73.8125C26.7586 73.8125 17.0242 70.5204 17.0242 66.4571Z" fill="#8B5738"/>
<path d="M35.0328 63.5582C43.2028 63.5582 49.8258 60.6813 49.8258 57.1324C49.8258 53.5836 43.2028 50.7067 35.0328 50.7067C26.8629 50.7067 20.2399 53.5836 20.2399 57.1324C20.2399 60.6813 26.8629 63.5582 35.0328 63.5582Z" fill="#FFB17A"/>
<path d="M21.1477 64.0509C22.7992 64.9915 25.4133 64.9204 27.4422 65.2868C30.0234 65.7571 31.4836 67.7259 36.4602 67.6384C38.2375 67.6056 42.3828 67.4032 42.1531 67.4087C42.0109 67.1188 41.2016 66.8399 39.6266 66.5938C38.1828 66.3642 37.1438 66.386 35.4703 66.386C34.1906 66.386 32.4352 66.0032 30.6633 65.0298C29.8539 64.5868 28.5961 64.0946 27.3656 63.8431C25.4734 63.4548 24.1555 63.8649 21.5141 62.6126C20.2508 62.0165 19.2281 60.7806 18.9875 59.3423L18.3641 61.136C19.1844 62.6399 19.9336 63.3618 21.1477 64.0509ZM48.3656 62.5798C44.1328 65.2704 40.5563 64.9696 40.5563 64.9696C40.2555 65.1665 42.7219 65.697 44.5539 65.3907C48.1523 64.7892 50.3398 62.9845 51.7617 60.5673C51.5648 59.9548 51.1328 58.7954 51.1328 58.7954C50.7227 59.7853 50.2469 61.3821 48.3656 62.5798Z" fill="#CC8552"/>
<path d="M40.7477 70.2135C38.407 70.64 36.1649 69.9127 33.8625 69.3713C30.707 68.633 24.7789 68.7369 24.7789 68.7369C24.4234 68.9119 27.5734 70.0549 29.1047 70.1861C30.4992 70.3064 31.9758 70.1861 33.2992 70.7275C35.1641 71.4877 36.9688 71.8705 38.7735 71.8705C42.2024 71.8705 46.6813 69.8033 47.7477 67.1182C47.7477 67.1182 45.7899 68.2666 44.2695 69.0377C43.1649 69.601 41.9727 69.9947 40.7477 70.2135Z" fill="#A86D44"/>
<path d="M19.5891 66.966C20.0539 67.7098 20.5297 68.3988 21.1531 69.0168C22.2086 70.0668 23.543 70.6738 24.4016 70.5207C24.4016 70.5207 21.3609 68.0652 21.6836 67.4254C21.8477 67.0973 28.1586 67.6168 28.1586 67.6168C28.1586 67.6168 26.2445 66.6105 24.3797 66.2496C23.1711 66.0145 20.9617 66.4848 18.9492 65.0684C17.8391 64.2863 17.6695 63.3457 17.6695 63.3457C17.6695 63.3457 17.2703 64.7074 17.1883 65.227C18.3531 66.4465 19.4359 66.7199 19.5891 66.966ZM51.5703 64.2645C50.4656 65.2543 48.7211 67.2559 48.7211 68.2895C48.7211 68.2895 50.6789 66.3918 51.9969 65.5223C52.325 65.309 52.5602 65.0355 52.8172 64.7457C52.8172 64.7457 52.6859 63.7668 52.4781 63.0723C52.3961 63.5371 52.0625 63.827 51.5703 64.2645Z" fill="#A86D44"/>
<path d="M35 61.5187C49.727 61.5187 61.6656 49.5801 61.6656 34.8531C61.6656 20.1261 49.727 8.1875 35 8.1875C20.273 8.1875 8.33438 20.1261 8.33438 34.8531C8.33438 49.5801 20.273 61.5187 35 61.5187Z" fill="url(#paint0_radial_353_2026)"/>
<path d="M35 61.5187C49.727 61.5187 61.6656 49.5801 61.6656 34.8531C61.6656 20.1261 49.727 8.1875 35 8.1875C20.273 8.1875 8.33438 20.1261 8.33438 34.8531C8.33438 49.5801 20.273 61.5187 35 61.5187Z" fill="url(#paint1_radial_353_2026)"/>
<path opacity="0.7" d="M25.107 18.2335C27.5898 18.4468 32.6758 20.3062 28.9734 25.075C26.5398 28.2085 23.4992 31.1234 22.4219 33.6445C19.3102 40.9343 27.1086 43.9093 29.5312 44.6695C31.6312 45.3312 35.6781 46.8078 36.8156 48.6945C41.207 55.9679 27.8523 57.9531 27.8523 57.9531C27.8523 57.9531 37.6797 61.5351 45.7734 56.0609C48.8359 53.9882 51.532 49.1648 48.8961 44.8226C47.6164 42.7171 44.0891 40.8195 43.225 40.1414C39.5281 37.221 37.2477 34.2023 39.0852 30.8171C39.8289 29.45 41.382 28.739 42.8859 28.3234C47.0969 27.1585 52.3523 27.3664 53.725 22.1656C54.9117 17.6812 46.2492 7.66245 32.8125 9.29214C27.2344 9.9648 22.2141 12.3 18.107 16.139C10.5273 23.232 11.1836 29.1 11.1836 29.1C11.1836 29.1 16.1219 17.4515 25.107 18.2335Z" fill="url(#paint2_linear_353_2026)"/>
<path opacity="0.39" d="M54.5617 19.2453C52.6586 16.4781 50.0282 14.2797 47.2555 12.382C42.8313 9.35779 37.111 9.11169 37.111 9.11169C44.1328 12.4695 43.3453 16.9211 41.0539 20.1039C38.2649 23.9812 32.6703 26.6008 31.2102 31.3203C30.3571 34.0765 30.8821 36.975 33.5672 38.7359C36.2524 40.4968 45.9157 45.1726 46.2492 50.707C46.5008 54.8742 43.1867 57.4992 43.1867 57.4992C47.0641 56.6625 55.2235 50.9531 52.8063 45.0797C51.636 42.2359 46.3149 40.3492 48.9946 37.1062C49.9899 35.8976 56.9407 35.2523 57.5914 28.2195C57.8922 24.9328 56.1203 21.5093 54.5617 19.2453Z" fill="url(#paint3_linear_353_2026)"/>
<path opacity="0.85" d="M13.5133 39.7199C13.5133 39.7199 9.52111 29.1324 17.7188 19.327C24.4727 11.2442 30.5703 14.5145 29.6297 17.9598C28.6836 21.4051 25.7469 22.466 21.3227 25.9278C15.4766 30.4996 13.5133 39.7199 13.5133 39.7199Z" fill="url(#paint4_linear_353_2026)"/>
<path d="M50.8375 25.0143C49.7711 24.4839 48.918 23.8167 48.5461 22.6846L46.9656 17.451L45.3852 22.6846C45.0133 23.8112 44.1547 24.4839 43.0938 25.0143L40.4524 26.1573L43.1703 27.2839C44.2367 27.8143 45.0133 28.5417 45.3906 29.6682L46.9711 34.8581L48.5516 29.6682C48.9235 28.5417 49.7055 27.8143 50.7719 27.2839L53.4899 26.1573L50.8375 25.0143Z" fill="url(#paint5_linear_353_2026)"/>
<path d="M45.5602 43.9368C44.4938 43.4063 43.6406 42.7392 43.2688 41.6071L41.6883 36.3735L40.1078 41.6071C39.7359 42.7337 38.8773 43.4063 37.8164 43.9368L35.175 45.0798L37.893 46.2063C38.9594 46.7368 39.7359 47.4642 40.1133 48.5907L41.6938 53.7806L43.2742 48.5907C43.6461 47.4642 44.4281 46.7368 45.4945 46.2063L48.2125 45.0798L45.5602 43.9368Z" fill="url(#paint6_linear_353_2026)"/>
<path d="M58.1547 35.5144C57.3508 35.1152 56.7055 34.6066 56.4211 33.759L55.2289 29.8051L54.0367 33.759C53.7523 34.6121 53.107 35.1152 52.3031 35.5144L50.3125 36.3785L52.3633 37.2316C53.1672 37.6308 53.7578 38.1777 54.0367 39.0308L55.2289 42.9465L56.4211 39.0308C56.7055 38.1777 57.2906 37.6308 58.0945 37.2316L60.1453 36.3785L58.1547 35.5144Z" fill="white"/>
<g filter="url(#filter0_d_353_2026)">
<path d="M279 30.3397L273.869 58.8581L268.864 58.2577L270 29.6536L279 30.3397ZM274.542 64.1329C274.542 64.6475 274.416 65.1049 274.163 65.5052C273.939 65.8769 273.645 66.1913 273.28 66.4487C272.916 66.706 272.495 66.8918 272.018 67.0062C271.542 67.1205 271.079 67.1777 270.63 67.1777C270.182 67.1777 269.691 67.1062 269.158 66.9633C268.654 66.8489 268.177 66.6488 267.729 66.3629C267.308 66.077 266.957 65.7339 266.677 65.3336C266.397 64.9334 266.256 64.4474 266.256 63.8756C266.256 63.2752 266.397 62.7606 266.677 62.3317C266.957 61.9029 267.308 61.5598 267.729 61.3025C268.177 61.0166 268.668 60.8165 269.201 60.7021C269.733 60.5592 270.252 60.4877 270.757 60.4877C271.233 60.4877 271.696 60.5877 272.145 60.7879C272.621 60.9594 273.028 61.2024 273.364 61.5169C273.729 61.8314 274.009 62.2174 274.205 62.6748C274.43 63.1322 274.542 63.6183 274.542 64.1329Z" fill="#1E1E1E"/>
</g>
<g filter="url(#filter1_d_353_2026)">
<path d="M270.168 71.937L255.616 73.9955L255.826 70.2645C255.013 70.4647 254.186 70.6076 253.345 70.6934C252.504 70.7791 251.662 70.822 250.821 70.822C249.167 70.822 247.499 70.6219 245.816 70.2216C244.162 69.85 242.662 69.2353 241.316 68.3776C239.998 67.5199 238.919 66.4049 238.078 65.0326C237.237 63.6603 236.816 61.9878 236.816 60.0151C236.816 58.4141 237.153 56.9846 237.825 55.7266C238.498 54.4401 239.382 53.3537 240.475 52.4674C241.569 51.5525 242.802 50.852 244.176 50.366C245.578 49.88 247.008 49.637 248.466 49.637C249.896 49.637 251.326 49.7942 252.756 50.1087C254.214 50.3946 255.574 50.8378 256.836 51.4381L257.593 36.6429L248.298 32.14L265.626 33.3837L261.083 69.7499L270.168 71.937ZM256.583 55.4264C255.77 54.8546 254.761 54.4401 253.555 54.1828C252.349 53.9255 251.256 53.7968 250.275 53.7968C249.265 53.7968 248.326 53.9683 247.457 54.3114C246.616 54.6545 245.887 55.1405 245.27 55.7695C244.681 56.3985 244.218 57.1561 243.882 58.0424C243.545 58.9001 243.377 59.8435 243.377 60.8728C243.377 61.9878 243.643 62.9598 244.176 63.7889C244.709 64.5895 245.396 65.2613 246.237 65.8045C247.078 66.3191 248.003 66.6908 249.013 66.9195C250.022 67.1768 250.99 67.3055 251.915 67.3055C253.317 67.3055 254.705 67.0196 256.079 66.4478L256.583 55.4264Z" fill="#1E1E1E"/>
</g>
<g filter="url(#filter2_d_353_2026)">
<path d="M237.699 45.8197C237.699 46.9919 237.349 47.964 236.648 48.7359C235.947 49.4792 235.008 49.8509 233.83 49.8509C232.961 49.8509 232.288 49.6937 231.811 49.3792C231.335 49.0361 230.928 48.6644 230.591 48.2642C230.283 47.8353 229.961 47.4636 229.624 47.1492C229.316 46.8061 228.867 46.6345 228.278 46.6345C227.241 46.6345 226.414 46.9776 225.797 47.6638C225.18 48.3213 224.717 49.1076 224.409 50.0224C224.381 50.0796 224.353 50.3512 224.325 50.8372C224.325 51.3233 224.311 51.938 224.283 52.6813C224.255 53.4246 224.227 54.2394 224.199 55.1257C224.171 56.012 224.143 56.8554 224.115 57.6559C224.087 58.4564 224.059 59.1712 224.03 59.8002C224.002 60.4005 223.988 60.8008 223.988 61.0009L234.208 64.7748L209.899 67.305C211.357 66.3615 212.815 65.4323 214.273 64.5175C215.731 63.574 217.189 62.6448 218.647 61.73L217.091 46.7632L207.712 44.1901L224.661 40.4163L224.577 44.3617C225.755 43.5325 226.96 42.8321 228.194 42.2603C229.456 41.6599 230.844 41.3597 232.358 41.3597C232.863 41.3597 233.381 41.4169 233.914 41.5313C234.447 41.6456 234.951 41.8172 235.428 42.0459C235.905 42.2746 236.325 42.5891 236.69 42.9893C237.054 43.361 237.321 43.8184 237.489 44.3617C237.629 44.8763 237.699 45.3623 237.699 45.8197Z" fill="#1E1E1E"/>
</g>
<g filter="url(#filter3_d_353_2026)">
<path d="M213.726 67.1767L200.394 67.7342L200.688 65.3326C199.791 65.447 198.894 65.5184 197.997 65.547C197.099 65.547 196.202 65.547 195.305 65.547C194.492 65.547 193.595 65.447 192.613 65.2468C191.632 65.0467 190.721 64.7322 189.88 64.3034C189.038 63.8459 188.337 63.2598 187.777 62.5451C187.216 61.8304 186.935 60.9584 186.935 59.9291C186.935 58.7855 187.202 57.8135 187.735 57.013C188.267 56.2125 188.94 55.5692 189.753 55.0832C190.595 54.5971 191.52 54.2398 192.529 54.011C193.539 53.7823 194.52 53.668 195.473 53.668C196.651 53.668 197.8 53.7251 198.922 53.8395C200.043 53.9539 201.179 54.0539 202.329 54.1397C202.385 53.768 202.427 53.3964 202.455 53.0247C202.483 52.6244 202.497 52.2242 202.497 51.8239C202.497 51.052 202.427 50.2944 202.287 49.551C202.174 48.8077 201.95 48.1501 201.614 47.5783C201.305 46.9779 200.857 46.5062 200.268 46.1631C199.707 45.8201 198.978 45.6485 198.081 45.6485C197.24 45.6485 196.469 45.7915 195.768 46.0774C195.095 46.3347 194.492 46.7921 193.959 47.4497C194.352 47.7642 194.618 48.1215 194.758 48.5218C194.898 48.8935 194.969 49.3223 194.969 49.8083V50.0656C194.548 52.0669 193.314 53.0676 191.267 53.0676C190.342 53.0676 189.585 52.7388 188.996 52.0812C188.408 51.3951 188.113 50.5946 188.113 49.6797C188.113 48.4217 188.464 47.3353 189.165 46.4204C189.866 45.5056 190.721 44.7479 191.73 44.1476C192.767 43.5472 193.875 43.104 195.053 42.8181C196.258 42.5322 197.366 42.3893 198.375 42.3893C201.6 42.3893 204.109 43.1469 205.904 44.6622C207.726 46.1774 208.637 48.6505 208.637 52.0812C208.637 52.4529 208.623 52.8246 208.595 53.1962C208.595 53.5679 208.581 53.9396 208.553 54.3112L207.544 64.1747C208.609 64.6608 209.647 65.1611 210.656 65.6757C211.665 66.1903 212.689 66.6906 213.726 67.1767ZM201.866 57.013C201.137 56.9272 200.408 56.8414 199.679 56.7557C198.95 56.6413 198.221 56.5841 197.492 56.5841C197.015 56.5841 196.539 56.6413 196.062 56.7557C195.613 56.8414 195.193 56.9987 194.8 57.2274C194.436 57.4561 194.141 57.7706 193.917 58.1709C193.693 58.5425 193.581 59.0143 193.581 59.5861C193.581 60.0149 193.679 60.4009 193.875 60.7439C194.071 61.0584 194.324 61.33 194.632 61.5588C194.969 61.7875 195.319 61.959 195.684 62.0734C196.076 62.1877 196.455 62.2449 196.819 62.2449C197.548 62.2449 198.277 62.202 199.006 62.1163C199.763 62.0305 200.492 61.9447 201.193 61.8589L201.866 57.013Z" fill="#1E1E1E"/>
</g>
<g filter="url(#filter4_d_353_2026)">
<path d="M187.819 43.7626L174.108 62.6747L180.627 63.3609L184.706 54.0549L185.421 67.5636L162.836 65.9769L177.094 47.7509L168.472 48.051L165.57 57.7001L163.005 44.4058L187.819 43.7626Z" fill="#1E1E1E"/>
</g>
<g filter="url(#filter5_d_353_2026)">
<path d="M159.724 36.4293C159.724 37.0583 159.598 37.6587 159.346 38.2305C159.121 38.7737 158.799 39.2597 158.378 39.6886C157.986 40.0888 157.509 40.4176 156.948 40.6749C156.416 40.9036 155.841 41.018 155.224 41.018C154.607 41.018 154.032 40.9036 153.5 40.6749C152.967 40.4176 152.49 40.0888 152.07 39.6886C151.677 39.2597 151.355 38.7737 151.102 38.2305C150.878 37.6587 150.766 37.0583 150.766 36.4293C150.766 35.8003 150.878 35.2143 151.102 34.6711C151.355 34.1278 151.677 33.6561 152.07 33.2559C152.49 32.827 152.967 32.4982 153.5 32.2695C154.032 32.0122 154.607 31.8835 155.224 31.8835C155.841 31.8835 156.416 32.0122 156.948 32.2695C157.509 32.4982 157.986 32.827 158.378 33.2559C158.799 33.6561 159.121 34.1278 159.346 34.6711C159.598 35.2143 159.724 35.8003 159.724 36.4293ZM164.645 66.8346L145.803 66.4915L152.785 62.0744L152.196 47.8367L144.163 43.977H159.598L158.21 62.3746L164.645 66.8346Z" fill="#1E1E1E"/>
</g>
<g filter="url(#filter6_d_353_2026)">
<path d="M148.915 66.6188L137.391 68.8059L137.518 64.9463C137.209 65.3465 136.817 65.7039 136.34 66.0184C135.863 66.3043 135.345 66.5473 134.784 66.7474C134.251 66.919 133.704 67.0476 133.144 67.1334C132.583 67.2192 132.05 67.2621 131.545 67.2621C128.041 67.2621 125.517 66.4044 123.975 64.689C122.433 62.9736 121.662 60.3862 121.662 56.9268C121.662 55.5831 121.676 54.268 121.704 52.9814C121.732 51.6949 121.76 50.3941 121.788 49.0789C120.694 48.4214 119.587 47.7781 118.465 47.1491C117.344 46.5202 116.236 45.8769 115.143 45.2193L128.77 45.1335C128.573 47.192 128.335 49.3648 128.055 51.652C127.802 53.9106 127.676 56.0549 127.676 58.0847C127.676 59.8859 128.069 61.201 128.854 62.0301C129.639 62.8592 130.914 63.2738 132.681 63.2738C133.578 63.2738 134.475 63.0165 135.373 62.5019C136.27 61.9872 136.985 61.3726 137.518 60.6578L138.064 49.6793L130.536 45.9484L145.004 45.8197L142.144 64.0886L148.915 66.6188Z" fill="#1E1E1E"/>
</g>
<g filter="url(#filter7_d_353_2026)">
<path d="M123.975 71.9373L95.7962 79.9997L103.997 72.8379L102.273 65.8906C100.198 65.9192 98.2075 65.6476 96.3009 65.0758C94.3943 64.4754 92.698 63.5891 91.2119 62.4169C89.7259 61.2162 88.5342 59.7438 87.637 57.9998C86.7678 56.2558 86.3332 54.2402 86.3332 51.9531C86.3332 49.5229 86.7818 47.4359 87.6791 45.6919C88.6043 43.9479 89.824 42.5327 91.3381 41.4463C92.8522 40.3599 94.5906 39.5594 96.5533 39.0448C98.544 38.5301 100.619 38.2728 102.778 38.2728C104.769 38.2728 106.675 38.5873 108.498 39.2163C110.32 39.8167 111.932 40.703 113.334 41.8751C114.736 43.0187 115.844 44.4482 116.657 46.1636C117.498 47.8504 117.919 49.7802 117.919 51.9531C117.919 53.5255 117.68 54.9836 117.204 56.3273C116.755 57.671 116.11 58.8861 115.269 59.9725C114.428 61.0589 113.418 62.0167 112.241 62.8458C111.091 63.6463 109.801 64.2896 108.372 64.7756C108.764 65.6905 109.213 66.5767 109.717 67.4344C110.222 68.3207 110.727 69.1927 111.231 70.0504L123.975 71.9373ZM110.306 51.8673C110.306 50.7523 110.138 49.6373 109.801 48.5223C109.465 47.4073 108.974 46.4066 108.329 45.5203C107.713 44.6341 106.928 43.9193 105.974 43.3761C105.049 42.8043 103.983 42.5184 102.778 42.5184C101.488 42.5184 100.296 42.7614 99.2029 43.2475C98.1374 43.7049 97.2122 44.3482 96.4271 45.1773C95.642 46.0064 95.0252 46.9784 94.5766 48.0934C94.1279 49.2084 93.9036 50.4092 93.9036 51.6957C93.9036 52.8965 94.0438 54.0973 94.3242 55.2981C94.6326 56.4702 95.0953 57.5281 95.7121 58.4715C96.357 59.415 97.1561 60.1869 98.1094 60.7873C99.0627 61.3591 100.212 61.645 101.558 61.645C103.072 61.645 104.376 61.402 105.47 60.916C106.563 60.4299 107.46 59.7581 108.161 58.9004C108.89 58.0141 109.423 56.9849 109.759 55.8127C110.124 54.6119 110.306 53.2968 110.306 51.8673Z" fill="#1E1E1E"/>
</g>
<path d="M109.119 10.8003C109.438 11.0097 109.69 11.3102 109.843 11.6643C109.997 12.0184 110.045 12.4106 109.981 12.7923L108.59 21.1414C108.478 21.8108 108.538 22.4982 108.762 23.1373L112.27 33.1168C113.976 33.4606 115.487 33.9072 116.664 34.4546C117.373 34.7846 118.067 35.1976 118.609 35.7312C119.154 36.2667 119.699 37.0809 119.699 38.15C119.699 39.8257 118.414 40.8573 117.528 41.3908C116.514 42.0014 115.175 42.4836 113.691 42.861C110.691 43.6258 106.648 44.0783 102.256 44.0783C97.8647 44.0783 93.822 43.6258 90.822 42.861C89.3374 42.4836 87.9983 42.0014 86.9847 41.3908C86.099 40.8573 84.8141 39.8257 84.8141 38.15C84.8141 37.0828 85.3567 36.2667 85.9032 35.7312C86.4459 35.1976 87.1397 34.7826 87.849 34.4546C89.0273 33.9072 90.5371 33.4606 92.2445 33.1148L97.012 19.5467C97.5673 17.966 98.6018 16.6066 99.9655 15.6656L106.985 10.8241C107.299 10.6073 107.669 10.4894 108.048 10.4848C108.427 10.4802 108.8 10.5912 109.119 10.8003ZM115.392 15.2881C115.722 14.5906 115.832 14.4997 116.047 14.8771L116.177 15.13L116.253 15.2881C117.085 17.0558 118.36 18.5683 119.949 19.6732L120.387 19.9637C120.896 20.2798 120.983 20.3707 120.538 20.6711L120.387 20.7679C118.749 21.7933 117.405 23.2411 116.491 24.9652L116.047 25.8525C115.834 26.23 115.722 26.1391 115.392 25.4415C114.56 23.6739 113.285 22.1613 111.696 21.0565L111.005 20.6019C110.735 20.4043 110.753 20.2996 111.107 20.0605L111.258 19.9617C113.048 18.8411 114.483 17.2186 115.392 15.2881ZM93.7251 9.82216L93.8588 10.0652C94.4674 11.2114 95.386 12.1915 96.5256 12.9207L96.9635 13.1796C97.3221 13.3792 97.3763 13.4523 97.1864 13.5847L96.9635 13.7171C95.8003 14.3521 94.8151 15.2792 94.1011 16.4106L93.7115 17.0904C93.5623 17.3196 93.4829 17.2998 93.3472 17.0746L93.2115 16.8335C92.5791 15.663 91.6605 14.6792 90.5448 13.978L90.1068 13.7171C89.7483 13.5175 89.694 13.4444 89.8839 13.312L90.1068 13.1796C91.2701 12.5446 92.2553 11.6176 92.9693 10.4861L93.2115 10.0652C93.4674 9.58503 93.5507 9.53365 93.7251 9.82216Z" fill="#1E1E1E"/>
<path d="M112.162 32.8807C102.515 35.3398 94.9349 33.9053 92.3508 32.8807L92.7815 31.5632C101.395 34.6372 109.291 32.2951 111.731 31.5632L112.162 32.8807Z" fill="white"/>
<path fill-rule="evenodd" clip-rule="evenodd" d="M92.5112 31.0015L92.9238 31.1487C101.4 34.1738 109.181 31.8703 111.61 31.1419L112.008 31.0223L112.717 33.1916L112.266 33.3066C102.54 35.7861 94.8683 34.35 92.1948 33.2899L91.8126 33.1384L92.5112 31.0015ZM93.053 32.1215L92.8921 32.6135C95.6644 33.5707 102.702 34.7392 111.605 32.5673L111.454 32.1033C108.663 32.9256 101.215 34.8816 93.053 32.1215Z" fill="white"/>
<defs>
<filter id="filter0_d_353_2026" x="263.106" y="29.6536" width="19.0435" height="43.8242" filterUnits="userSpaceOnUse" color-interpolation-filters="sRGB">
<feFlood flood-opacity="0" result="BackgroundImageFix"/>
<feColorMatrix in="SourceAlpha" type="matrix" values="0 0 0 0 0 0 0 0 0 0 0 0 0 0 0 0 0 0 127 0" result="hardAlpha"/>
<feOffset dy="3.15"/>
<feGaussianBlur stdDeviation="1.575"/>
<feComposite in2="hardAlpha" operator="out"/>
<feColorMatrix type="matrix" values="0 0 0 0 0 0 0 0 0 0 0 0 0 0 0 0 0 0 0.25 0"/>
<feBlend mode="normal" in2="BackgroundImageFix" result="effect1_dropShadow_353_2026"/>
<feBlend mode="normal" in="SourceGraphic" in2="effect1_dropShadow_353_2026" result="shape"/>
</filter>
<filter id="filter1_d_353_2026" x="233.666" y="32.14" width="39.6518" height="48.1555" filterUnits="userSpaceOnUse" color-interpolation-filters="sRGB">
<feFlood flood-opacity="0" result="BackgroundImageFix"/>
<feColorMatrix in="SourceAlpha" type="matrix" values="0 0 0 0 0 0 0 0 0 0 0 0 0 0 0 0 0 0 127 0" result="hardAlpha"/>
<feOffset dy="3.15"/>
<feGaussianBlur stdDeviation="1.575"/>
<feComposite in2="hardAlpha" operator="out"/>
<feColorMatrix type="matrix" values="0 0 0 0 0 0 0 0 0 0 0 0 0 0 0 0 0 0 0.25 0"/>
<feBlend mode="normal" in2="BackgroundImageFix" result="effect1_dropShadow_353_2026"/>
<feBlend mode="normal" in="SourceGraphic" in2="effect1_dropShadow_353_2026" result="shape"/>
</filter>
<filter id="filter2_d_353_2026" x="204.562" y="40.4163" width="36.2872" height="33.1887" filterUnits="userSpaceOnUse" color-interpolation-filters="sRGB">
<feFlood flood-opacity="0" result="BackgroundImageFix"/>
<feColorMatrix in="SourceAlpha" type="matrix" values="0 0 0 0 0 0 0 0 0 0 0 0 0 0 0 0 0 0 127 0" result="hardAlpha"/>
<feOffset dy="3.15"/>
<feGaussianBlur stdDeviation="1.575"/>
<feComposite in2="hardAlpha" operator="out"/>
<feColorMatrix type="matrix" values="0 0 0 0 0 0 0 0 0 0 0 0 0 0 0 0 0 0 0.25 0"/>
<feBlend mode="normal" in2="BackgroundImageFix" result="effect1_dropShadow_353_2026"/>
<feBlend mode="normal" in="SourceGraphic" in2="effect1_dropShadow_353_2026" result="shape"/>
</filter>
<filter id="filter3_d_353_2026" x="183.785" y="42.3893" width="33.0908" height="31.6448" filterUnits="userSpaceOnUse" color-interpolation-filters="sRGB">
<feFlood flood-opacity="0" result="BackgroundImageFix"/>
<feColorMatrix in="SourceAlpha" type="matrix" values="0 0 0 0 0 0 0 0 0 0 0 0 0 0 0 0 0 0 127 0" result="hardAlpha"/>
<feOffset dy="3.15"/>
<feGaussianBlur stdDeviation="1.575"/>
<feComposite in2="hardAlpha" operator="out"/>
<feColorMatrix type="matrix" values="0 0 0 0 0 0 0 0 0 0 0 0 0 0 0 0 0 0 0.25 0"/>
<feBlend mode="normal" in2="BackgroundImageFix" result="effect1_dropShadow_353_2026"/>
<feBlend mode="normal" in="SourceGraphic" in2="effect1_dropShadow_353_2026" result="shape"/>
</filter>
<filter id="filter4_d_353_2026" x="159.686" y="43.7626" width="31.2823" height="30.101" filterUnits="userSpaceOnUse" color-interpolation-filters="sRGB">
<feFlood flood-opacity="0" result="BackgroundImageFix"/>
<feColorMatrix in="SourceAlpha" type="matrix" values="0 0 0 0 0 0 0 0 0 0 0 0 0 0 0 0 0 0 127 0" result="hardAlpha"/>
<feOffset dy="3.15"/>
<feGaussianBlur stdDeviation="1.575"/>
<feComposite in2="hardAlpha" operator="out"/>
<feColorMatrix type="matrix" values="0 0 0 0 0 0 0 0 0 0 0 0 0 0 0 0 0 0 0.25 0"/>
<feBlend mode="normal" in2="BackgroundImageFix" result="effect1_dropShadow_353_2026"/>
<feBlend mode="normal" in="SourceGraphic" in2="effect1_dropShadow_353_2026" result="shape"/>
</filter>
<filter id="filter5_d_353_2026" x="141.013" y="31.8835" width="26.7822" height="41.251" filterUnits="userSpaceOnUse" color-interpolation-filters="sRGB">
<feFlood flood-opacity="0" result="BackgroundImageFix"/>
<feColorMatrix in="SourceAlpha" type="matrix" values="0 0 0 0 0 0 0 0 0 0 0 0 0 0 0 0 0 0 127 0" result="hardAlpha"/>
<feOffset dy="3.15"/>
<feGaussianBlur stdDeviation="1.575"/>
<feComposite in2="hardAlpha" operator="out"/>
<feColorMatrix type="matrix" values="0 0 0 0 0 0 0 0 0 0 0 0 0 0 0 0 0 0 0.25 0"/>
<feBlend mode="normal" in2="BackgroundImageFix" result="effect1_dropShadow_353_2026"/>
<feBlend mode="normal" in="SourceGraphic" in2="effect1_dropShadow_353_2026" result="shape"/>
</filter>
<filter id="filter6_d_353_2026" x="111.993" y="45.1335" width="40.0724" height="29.9724" filterUnits="userSpaceOnUse" color-interpolation-filters="sRGB">
<feFlood flood-opacity="0" result="BackgroundImageFix"/>
<feColorMatrix in="SourceAlpha" type="matrix" values="0 0 0 0 0 0 0 0 0 0 0 0 0 0 0 0 0 0 127 0" result="hardAlpha"/>
<feOffset dy="3.15"/>
<feGaussianBlur stdDeviation="1.575"/>
<feComposite in2="hardAlpha" operator="out"/>
<feColorMatrix type="matrix" values="0 0 0 0 0 0 0 0 0 0 0 0 0 0 0 0 0 0 0.25 0"/>
<feBlend mode="normal" in2="BackgroundImageFix" result="effect1_dropShadow_353_2026"/>
<feBlend mode="normal" in="SourceGraphic" in2="effect1_dropShadow_353_2026" result="shape"/>
</filter>
<filter id="filter7_d_353_2026" x="83.1832" y="38.2728" width="43.9417" height="48.0268" filterUnits="userSpaceOnUse" color-interpolation-filters="sRGB">
<feFlood flood-opacity="0" result="BackgroundImageFix"/>
<feColorMatrix in="SourceAlpha" type="matrix" values="0 0 0 0 0 0 0 0 0 0 0 0 0 0 0 0 0 0 127 0" result="hardAlpha"/>
<feOffset dy="3.15"/>
<feGaussianBlur stdDeviation="1.575"/>
<feComposite in2="hardAlpha" operator="out"/>
<feColorMatrix type="matrix" values="0 0 0 0 0 0 0 0 0 0 0 0 0 0 0 0 0 0 0.25 0"/>
<feBlend mode="normal" in2="BackgroundImageFix" result="effect1_dropShadow_353_2026"/>
<feBlend mode="normal" in="SourceGraphic" in2="effect1_dropShadow_353_2026" result="shape"/>
</filter>
<radialGradient id="paint0_radial_353_2026" cx="0" cy="0" r="1" gradientUnits="userSpaceOnUse" gradientTransform="translate(43.6548 18.1183) rotate(-3.714) scale(41.6631 41.6631)">
<stop offset="0.104" stop-color="#CE93D8"/>
<stop offset="1" stop-color="#AB47BC"/>
</radialGradient>
<radialGradient id="paint1_radial_353_2026" cx="0" cy="0" r="1" gradientUnits="userSpaceOnUse" gradientTransform="translate(29.1752 31.2301) scale(37.9471 37.9471)">
<stop offset="0.28" stop-color="#81D4FA" stop-opacity="0"/>
<stop offset="0.964" stop-color="#81D4FA" stop-opacity="0.9"/>
</radialGradient>
<linearGradient id="paint2_linear_353_2026" x1="40.8461" y1="11.8247" x2="19.6558" y2="66.7069" gradientUnits="userSpaceOnUse">
<stop stop-color="#673AB7"/>
<stop offset="0.937" stop-color="#673AB7" stop-opacity="0"/>
</linearGradient>
<linearGradient id="paint3_linear_353_2026" x1="44.2302" y1="19.6358" x2="44.2302" y2="65.1046" gradientUnits="userSpaceOnUse">
<stop offset="0.235" stop-color="#1D44B3"/>
<stop offset="0.884" stop-color="#2044B3" stop-opacity="0.074"/>
<stop offset="0.936" stop-color="#2144B3" stop-opacity="0"/>
</linearGradient>
<linearGradient id="paint4_linear_353_2026" x1="17.9961" y1="15.0135" x2="22.7695" y2="32.8069" gradientUnits="userSpaceOnUse">
<stop offset="0.227" stop-color="white"/>
<stop offset="1" stop-color="white" stop-opacity="0"/>
</linearGradient>
<linearGradient id="paint5_linear_353_2026" x1="46.9607" y1="21.837" x2="46.9607" y2="34.6486" gradientUnits="userSpaceOnUse">
<stop offset="0.261" stop-color="white"/>
<stop offset="1" stop-color="white" stop-opacity="0"/>
</linearGradient>
<linearGradient id="paint6_linear_353_2026" x1="41.6834" y1="37.8069" x2="41.6834" y2="52.6108" gradientUnits="userSpaceOnUse">
<stop stop-color="white"/>
<stop offset="1" stop-color="white" stop-opacity="0"/>
</linearGradient>
</defs>
</svg>
